<svg width="205" height="205" viewBox="0 0 205 205" fill="none" xmlns="http://www.w3.org/2000/svg">
<g filter="url(#filter0_d_170_654)">
<circle cx="102.5" cy="88.5" r="60.5" fill="#6072FA"/>
<circle cx="102.5" cy="88.5" r="66.5" stroke="white" stroke-width="12"/>
</g>
<path d="M127.009 67.6853H80.0966C79.1753 67.6863 78.2919 68.0527 77.6405 68.7042C76.989 69.3557 76.6226 70.239 76.6216 71.1603V107.839C76.6226 108.76 76.989 109.643 77.6405 110.295C78.2919 110.946 79.1753 111.313 80.0966 111.314H127.009C127.931 111.313 128.814 110.946 129.465 110.295C130.117 109.643 130.483 108.76 130.484 107.839V71.1603C130.483 70.239 130.117 69.3557 129.465 68.7042C128.814 68.0527 127.931 67.6863 127.009 67.6853ZM128.747 107.839C128.746 108.299 128.563 108.741 128.237 109.067C127.911 109.393 127.47 109.576 127.009 109.576H80.0966C79.6359 109.576 79.1943 109.393 78.8686 109.067C78.5428 108.741 78.3596 108.299 78.3591 107.839V71.1603C78.3596 70.6997 78.5428 70.258 78.8686 69.9323C79.1943 69.6066 79.6359 69.4233 80.0966 69.4228H127.009C127.47 69.4233 127.911 69.6066 128.237 69.9323C128.563 70.258 128.746 70.6997 128.747 71.1603V107.839ZM126.01 71.2821H81.096C80.9819 71.282 80.8689 71.3045 80.7635 71.3481C80.6581 71.3918 80.5623 71.4558 80.4816 71.5364C80.4009 71.6171 80.337 71.7129 80.2933 71.8183C80.2497 71.9237 80.2272 72.0367 80.2272 72.1508V81.7156C80.2272 81.8297 80.2497 81.9426 80.2933 82.048C80.337 82.1535 80.4009 82.2492 80.4816 82.3299C80.5623 82.4106 80.6581 82.4746 80.7635 82.5182C80.8689 82.5619 80.9819 82.5843 81.096 82.5843H126.01C126.124 82.5843 126.237 82.5619 126.342 82.5182C126.448 82.4746 126.543 82.4106 126.624 82.3299C126.705 82.2492 126.769 82.1535 126.812 82.048C126.856 81.9426 126.879 81.8297 126.879 81.7156V72.1508C126.879 72.0367 126.856 71.9237 126.812 71.8183C126.769 71.7129 126.705 71.6171 126.624 71.5364C126.543 71.4558 126.448 71.3918 126.342 71.3481C126.237 71.3045 126.124 71.282 126.01 71.2821ZM115.118 75.412C113.539 75.412 113.54 73.023 115.118 73.023H119.788C121.367 73.023 121.366 75.412 119.788 75.412H115.118ZM115.118 77.1495H116.584V80.8468H108.562C108.761 80.4009 108.845 79.9123 108.807 79.4254C108.769 78.9386 108.61 78.469 108.344 78.0593C108.078 77.6496 107.715 77.3128 107.286 77.0796C106.856 76.8464 106.376 76.7242 105.888 76.7241H104.422V73.0196H112.448C112.247 73.4655 112.162 73.9546 112.198 74.4422C112.235 74.9299 112.394 75.4006 112.659 75.8113C112.925 76.222 113.289 76.5596 113.718 76.7934C114.148 77.0271 114.629 77.1496 115.118 77.1495ZM101.18 80.8468C99.6257 80.7971 99.664 78.4616 101.218 78.4616H105.888C107.441 78.4616 107.482 80.7971 105.925 80.8468H101.18ZM87.2803 80.8468C85.7257 80.7971 85.764 78.4616 87.3181 78.4616H91.9876C93.5406 78.4616 93.5819 80.7971 92.0254 80.8468H87.2803ZM91.9876 76.7241H90.5216V73.0196H102.684V76.7241H101.218C100.73 76.7242 100.249 76.8464 99.8202 77.0795C99.3911 77.3127 99.0272 77.6495 98.7614 78.0592C98.4957 78.4689 98.3367 78.9386 98.2988 79.4254C98.2608 79.9123 98.3452 80.4009 98.5443 80.8468H94.6615C94.8605 80.4009 94.9449 79.9123 94.9069 79.4254C94.869 78.9386 94.7099 78.469 94.4442 78.0593C94.1785 77.6496 93.8145 77.3128 93.3855 77.0796C92.9565 76.8464 92.4759 76.7242 91.9876 76.7241ZM81.9647 73.0196H88.7841V76.7241H87.3181C86.8298 76.7242 86.3492 76.8464 85.9201 77.0795C85.4911 77.3127 85.1271 77.6495 84.8614 78.0592C84.5957 78.4689 84.4366 78.9386 84.3987 79.4254C84.3608 79.9123 84.4452 80.4009 84.6443 80.8468H81.9647V73.0196ZM125.141 80.8468H118.322V77.1495H119.788C120.277 77.1496 120.758 77.0272 121.188 76.7934C121.617 76.5597 121.981 76.222 122.247 75.8113C122.512 75.4006 122.671 74.9299 122.708 74.4423C122.744 73.9546 122.658 73.4655 122.458 73.0196H125.141L125.141 80.8468ZM126.01 85.3993H81.096C80.9819 85.3992 80.8689 85.4217 80.7635 85.4653C80.6581 85.509 80.5623 85.573 80.4816 85.6537C80.4009 85.7343 80.337 85.8301 80.2933 85.9355C80.2497 86.0409 80.2272 86.1539 80.2272 86.268V106.848C80.2272 106.962 80.2497 107.075 80.2933 107.181C80.337 107.286 80.4009 107.382 80.4816 107.463C80.5623 107.543 80.6581 107.607 80.7635 107.651C80.8689 107.695 80.9819 107.717 81.096 107.717H126.01C126.124 107.717 126.237 107.695 126.342 107.651C126.448 107.607 126.543 107.543 126.624 107.463C126.705 107.382 126.769 107.286 126.812 107.181C126.856 107.075 126.879 106.962 126.879 106.848V86.268C126.879 86.1539 126.856 86.0409 126.812 85.9355C126.769 85.8301 126.705 85.7343 126.624 85.6537C126.543 85.573 126.448 85.509 126.342 85.4653C126.237 85.4217 126.124 85.3992 126.01 85.3993ZM119.868 93.7334H115.199C113.62 93.7334 113.62 91.3444 115.199 91.3444H119.868C121.447 91.3444 121.447 93.7334 119.868 93.7334ZM115.199 87.2178H119.868C121.447 87.2178 121.447 89.6069 119.868 89.6069H115.199C113.62 89.6069 113.62 87.2178 115.199 87.2178ZM113.119 90.4756C111.29 92.319 112.598 95.4709 115.199 95.4709H116.584V101.85H115.199C114.71 101.85 114.228 101.972 113.799 102.206C113.369 102.44 113.005 102.777 112.74 103.188C112.474 103.599 112.316 104.069 112.279 104.557C112.242 105.045 112.328 105.534 112.529 105.98H108.558C108.803 105.441 108.878 104.839 108.773 104.257C108.667 103.674 108.386 103.137 107.967 102.718C109.796 100.875 108.488 97.723 105.888 97.723H104.422V91.2638H105.888C106.376 91.2637 106.857 91.1413 107.287 90.9077C107.716 90.6742 108.08 90.3369 108.346 89.9266C108.611 89.5164 108.77 89.0462 108.807 88.5589C108.844 88.0716 108.759 87.5827 108.559 87.1368H112.571C112.301 87.6804 112.208 88.2954 112.306 88.8946C112.405 89.4938 112.689 90.0469 113.119 90.4756ZM119.868 105.976H115.199C113.62 105.976 113.62 103.587 115.199 103.587H119.868C121.447 103.587 121.447 105.976 119.868 105.976ZM87.3181 95.3339H91.9876C93.5667 95.3339 93.5659 97.723 91.9876 97.723H87.3181C85.739 97.723 85.7398 95.3339 87.3181 95.3339ZM91.9876 105.976H87.3181C85.739 105.976 85.7398 103.587 87.3181 103.587H91.9876C93.5667 103.587 93.5659 105.976 91.9876 105.976ZM87.3181 99.4605H91.9876C93.5667 99.4605 93.5659 101.85 91.9876 101.85H87.3181C85.739 101.85 85.7398 99.4605 87.3181 99.4605ZM94.0674 102.718C94.6133 102.17 94.9198 101.428 94.9198 100.655C94.9198 99.8816 94.6133 99.1397 94.0674 98.5917C95.8961 96.7483 94.5879 93.5964 91.9876 93.5964H90.5216V87.1368H98.5466C98.3466 87.5827 98.2613 88.0716 98.2986 88.5589C98.3359 89.0462 98.4946 89.5164 98.7602 89.9267C99.0258 90.337 99.3898 90.6742 99.8191 90.9078C100.248 91.1413 100.729 91.2637 101.218 91.2638H102.684V97.723H101.218C98.6207 97.723 97.3072 100.872 99.1383 102.718C98.7194 103.137 98.4384 103.674 98.333 104.257C98.2275 104.839 98.3026 105.441 98.5482 105.98H94.6576C94.9031 105.441 94.9782 104.839 94.8728 104.257C94.7673 103.674 94.4863 103.137 94.0674 102.718ZM101.218 89.5263C99.6391 89.5263 99.6399 87.1372 101.218 87.1372H105.888C107.467 87.1372 107.466 89.5263 105.888 89.5263H101.218ZM105.888 105.976H101.218C99.6391 105.976 99.6399 103.587 101.218 103.587H105.888C107.467 103.587 107.466 105.976 105.888 105.976ZM105.888 101.85H101.218C99.6391 101.85 99.6399 99.4605 101.218 99.4605H105.888C107.467 99.4605 107.466 101.85 105.888 101.85ZM81.9647 87.1368H88.7841V93.5964H87.3181C84.7207 93.5964 83.4071 96.7458 85.2383 98.5917C84.6924 99.1397 84.3859 99.8816 84.3859 100.655C84.3859 101.428 84.6924 102.17 85.2383 102.718C84.8194 103.137 84.5384 103.674 84.4329 104.257C84.3275 104.839 84.4026 105.441 84.6482 105.98H81.9647V87.1368ZM125.141 105.98H122.538C122.739 105.534 122.825 105.044 122.788 104.557C122.751 104.069 122.593 103.599 122.327 103.188C122.062 102.777 121.698 102.439 121.268 102.206C120.839 101.972 120.357 101.85 119.868 101.85H118.322V95.4709H119.868C122.466 95.4709 123.779 92.3216 121.948 90.4756C122.378 90.0469 122.662 89.4938 122.761 88.8946C122.859 88.2954 122.766 87.6804 122.496 87.1368H125.141V105.98Z" fill="white"/>
<defs>
<filter id="filter0_d_170_654" x="0" y="0" width="205" height="205" filterUnits="userSpaceOnUse" color-interpolation-filters="sRGB">
<feFlood flood-opacity="0" result="BackgroundImageFix"/>
<feColorMatrix in="SourceAlpha" type="matrix" values="0 0 0 0 0 0 0 0 0 0 0 0 0 0 0 0 0 0 127 0" result="hardAlpha"/>
<feOffset dy="14"/>
<feGaussianBlur stdDeviation="15"/>
<feComposite in2="hardAlpha" operator="out"/>
<feColorMatrix type="matrix" values="0 0 0 0 0.461068 0 0 0 0 0.461068 0 0 0 0 0.461068 0 0 0 0.25 0"/>
<feBlend mode="normal" in2="BackgroundImageFix" result="effect1_dropShadow_170_654"/>
<feBlend mode="normal" in="SourceGraphic" in2="effect1_dropShadow_170_654" result="shape"/>
</filter>
</defs>
</svg>
