<svg width="46" height="46" viewBox="0 0 46 46" fill="none" xmlns="http://www.w3.org/2000/svg">
<rect x="1" y="1" width="44" height="44" rx="7" fill="white" stroke="#E2EBF4" stroke-width="2"/>
<path d="M29.375 12.5V21.8188C29.375 22.2163 29.1613 22.5875 28.82 22.79L24.2188 25.25H21.7812L17.195 22.7975C16.8388 22.5875 16.625 22.2163 16.625 21.8188V12.5H29.375Z" fill="#3867D6"/>
<path d="M29.375 12.5V21.8188C29.375 22.2163 29.1613 22.5875 28.82 22.79L25.625 24.5L24.2188 25.25H21.7812L20.5738 24.605L20.375 24.5V12.5H29.375Z" fill="#2D98DA"/>
<path d="M29.375 12.5V21.8188C29.375 22.2163 29.1613 22.5875 28.82 22.79L25.625 24.5V12.5H29.375Z" fill="#3867D6"/>
<path d="M22.5312 25.25H21.7812L17.195 22.7975C16.8388 22.5875 16.625 22.2163 16.625 21.8188V12.5H17.375V21.8188C17.375 21.9538 17.45 22.0775 17.5775 22.1525L22.1337 24.59C22.3888 24.725 22.5312 24.9838 22.5312 25.25Z" fill="#4B7BEC"/>
<path d="M29.375 12.5V21.8188C29.375 22.2163 29.1613 22.5875 28.82 22.79L25.625 24.5L24.2188 25.25H23.4688C23.4688 24.9838 23.6113 24.725 23.8663 24.59L28.4675 22.13C28.55 22.0775 28.625 21.95 28.625 21.8188V12.5H29.375Z" fill="#206C9A"/>
<path d="M29.375 12.5V21.8188C29.375 22.2163 29.1613 22.5875 28.82 22.79L25.625 24.5V23.6488L28.4675 22.13C28.55 22.0775 28.625 21.95 28.625 21.8188V12.5H29.375Z" fill="#274896"/>
<path d="M22.5312 25.2501H21.7812L20.5738 24.6051L20.375 24.5001V23.6488L22.1338 24.5901C22.3888 24.7251 22.5312 24.9838 22.5312 25.2501Z" fill="#45AAF2"/>
<path d="M30.5 12.875C30.5 13.4937 29.9937 14 29.375 14H16.625C16.4975 14 16.3738 13.9775 16.2575 13.9362H16.2538C16.055 13.865 15.8825 13.7413 15.755 13.58C15.6725 13.4825 15.6088 13.3663 15.5638 13.2425C15.5225 13.1263 15.5 13.0025 15.5 12.875C15.5 12.2563 16.0063 11.75 16.625 11.75H29.375C29.5025 11.75 29.6263 11.7725 29.7425 11.8138C29.9412 11.8813 30.1137 12.0087 30.245 12.17C30.3275 12.2675 30.3913 12.3837 30.4363 12.5075C30.4775 12.6237 30.5 12.7475 30.5 12.875Z" fill="#F7B731"/>
<path d="M29.375 11.75C29.375 12.1625 29.0375 12.5 28.625 12.5H16.625C16.4225 12.5 16.25 12.6725 16.25 12.875C16.25 13.1975 16.0438 13.475 15.755 13.58C15.6725 13.4825 15.6088 13.3663 15.5638 13.2425C15.5225 13.1263 15.5 13.0025 15.5 12.875C15.5 12.2563 16.0063 11.75 16.625 11.75H29.375Z" fill="#FED330"/>
<path d="M30.5 12.875C30.5 13.4938 29.9938 14 29.375 14H16.625C16.4975 14 16.3738 13.9775 16.2575 13.9363H16.2538C16.2875 13.5538 16.61 13.25 17 13.25H29.375C29.5775 13.25 29.75 13.0775 29.75 12.875C29.75 12.5525 29.9563 12.275 30.245 12.17C30.3275 12.2675 30.3913 12.3838 30.4363 12.5075C30.4775 12.6238 30.5 12.7475 30.5 12.875Z" fill="#B78824"/>
<path d="M28.2799 28.5537L26.3074 29.99C26.1724 30.0874 26.1199 30.2562 26.1687 30.41L26.9224 32.7275C27.0799 33.2 26.9187 33.695 26.5099 33.9837C26.3187 34.1262 26.0899 34.205 25.8537 34.205C25.6212 34.205 25.3924 34.13 25.1899 33.9837L23.2212 32.5512C23.1574 32.5062 23.0787 32.48 22.9999 32.48C22.9212 32.48 22.8424 32.5062 22.7749 32.5512L22.4974 32.7537L20.8099 33.9837C20.6224 34.1187 20.4124 34.1937 20.1987 34.2012C20.18 34.205 20.165 34.205 20.1462 34.205C19.91 34.205 19.6812 34.1262 19.4825 33.98C19.0812 33.695 18.92 33.2 19.0775 32.7275L19.8312 30.41C19.88 30.2562 19.8275 30.0875 19.6925 29.99L17.72 28.5575C17.3187 28.2612 17.1612 27.77 17.315 27.3012C17.4612 26.8287 17.8812 26.5212 18.3837 26.5212H20.8212C20.9862 26.5212 21.125 26.42 21.1775 26.2625L21.665 24.7587L21.9312 23.945C22.0137 23.69 22.175 23.48 22.3887 23.3487C22.565 23.2325 22.775 23.1687 23 23.1687C23.2287 23.1687 23.4387 23.2325 23.615 23.3525C23.825 23.4837 23.9862 23.69 24.0687 23.9487L24.335 24.7587L24.8225 26.2625C24.875 26.42 25.0137 26.5212 25.1787 26.5212H27.6162C28.1187 26.5212 28.5387 26.8287 28.685 27.305C28.8387 27.77 28.6812 28.2612 28.2799 28.5537Z" fill="#F7B731"/>
<path d="M17.72 28.5538L19.6925 29.99C19.8275 30.0875 19.88 30.2563 19.8312 30.41L19.0775 32.7275C18.92 33.2 19.0812 33.695 19.49 33.9838C19.6812 34.1263 19.91 34.205 20.1462 34.205C20.3787 34.205 20.6075 34.13 20.81 33.9838L22.7787 32.5513C22.8425 32.5063 22.9212 32.48 23 32.48C23.0787 32.48 23.1575 32.5063 23.225 32.5513L23.5025 32.7538C23.5625 32.54 23.525 32.3038 23.3863 32.1088C23.1425 31.775 22.67 31.7 22.3363 31.9438L20.3675 33.3763C20.2288 33.4775 20.0638 33.4775 19.9363 33.3838C19.7863 33.275 19.7375 33.125 19.79 32.9638L20.5438 30.6425C20.6938 30.1775 20.5325 29.6713 20.135 29.3825L18.1587 27.95C18.0275 27.8488 17.9749 27.695 18.0275 27.5413C18.08 27.365 18.2112 27.2713 18.3837 27.2713H20.8212C21.3087 27.2713 21.74 26.96 21.89 26.495L22.6437 24.1813C22.745 23.87 22.6325 23.54 22.385 23.3525C22.175 23.4838 22.0137 23.69 21.9312 23.9488L21.665 24.7588L21.1775 26.2625C21.125 26.42 20.9862 26.5213 20.8212 26.5213H18.3837C17.8812 26.5213 17.4612 26.8288 17.315 27.305C17.1612 27.77 17.3187 28.2613 17.72 28.5538Z" fill="#FED330"/>
<path d="M23.3562 24.1775L24.11 26.495C24.26 26.96 24.6912 27.2713 25.1787 27.2713H27.6162C27.7887 27.2713 27.92 27.365 27.9687 27.5263C28.025 27.695 27.9762 27.8488 27.8337 27.9538L25.865 29.3825C25.4675 29.6713 25.3062 30.1775 25.4562 30.6425L26.21 32.96C26.2625 33.1213 26.2137 33.275 26.0825 33.3688C25.8125 33.56 25.7075 33.9013 25.8012 34.2013C25.82 34.205 25.835 34.205 25.8537 34.205C26.09 34.205 26.3187 34.1263 26.5175 33.98C26.9187 33.695 27.08 33.2 26.9225 32.7275L26.1687 30.41C26.12 30.2563 26.1725 30.0875 26.3075 29.99L28.28 28.5575C28.6812 28.2613 28.8387 27.77 28.685 27.3013C28.5387 26.8288 28.1188 26.5213 27.6162 26.5213H25.1787C25.0137 26.5213 24.875 26.42 24.8225 26.2625L24.335 24.7588L24.0687 23.945C23.9862 23.69 23.825 23.48 23.6112 23.3488C23.3675 23.54 23.255 23.8663 23.3562 24.1775Z" fill="#B78824"/>
</svg>
