<svg width="468" height="642" viewBox="0 0 468 642" fill="none" xmlns="http://www.w3.org/2000/svg">
<rect y="25" width="445" height="617" rx="20" fill="#042FBC"/>
<rect x="41" width="427" height="601" rx="20" fill="#6173FD"/>
<path d="M41 523H468V581C468 592.046 459.046 601 448 601H61C49.9543 601 41 592.046 41 581V523Z" fill="#FD6161"/>
<mask id="path-4-outside-1_1629_655" maskUnits="userSpaceOnUse" x="110" y="27" width="276" height="458" fill="black">
<rect fill="white" x="110" y="27" width="276" height="458"/>
<path d="M183 411.953L174 414.353L174 434.553L183 436.953L183 458.453L113 436.153L113 412.753L183 390.453L183 411.953ZM158 430.253L158 418.653L136.5 424.453L158 430.253ZM146.9 341.437C150.3 335.437 155.467 332.437 162.4 332.437C168.8 332.437 173.833 334.537 177.5 338.737C181.167 342.871 183 348.904 183 356.837L183 386.437L113 386.437L113 358.637C113 350.771 114.7 344.771 118.1 340.637C121.5 336.504 126.367 334.437 132.7 334.437C138.767 334.437 143.5 336.771 146.9 341.437ZM130.2 359.837L130.2 366.437L139.6 366.437L139.5 358.737C139.1 355.871 137.567 354.437 134.9 354.437C133.367 354.437 132.2 354.971 131.4 356.037C130.6 357.104 130.2 358.371 130.2 359.837ZM165.8 358.037C165.8 356.437 165.333 355.104 164.4 354.037C163.467 352.971 162.267 352.437 160.8 352.437C158 352.437 156.367 353.937 155.9 356.937L155.8 366.437L165.8 366.437L165.8 358.037ZM183 285.391L174 287.791L174 307.991L183 310.391L183 331.891L113 309.591L113 286.191L183 263.891L183 285.391ZM158 303.691L158 292.091L136.5 297.891L158 303.691ZM184.6 228.314C184.6 238.847 181.1 247.581 174.1 254.514C167.1 261.447 158.4 264.914 148 264.914C137.6 264.914 128.9 261.447 121.9 254.514C114.9 247.581 111.4 238.847 111.4 228.314C111.4 221.847 112.933 215.881 116 210.414C119.067 204.947 123.2 200.681 128.4 197.614L138.4 215.014C136.133 216.147 134.333 217.914 133 220.314C131.667 222.714 131 225.381 131 228.314C131 233.247 132.6 237.247 135.8 240.314C139 243.381 143.067 244.914 148 244.914C152.933 244.914 157 243.381 160.2 240.314C163.4 237.247 165 233.247 165 228.314C165 225.314 164.333 222.647 163 220.314C161.667 217.914 159.833 216.147 157.5 215.014L167.5 197.614C172.767 200.681 176.933 204.947 180 210.414C183.067 215.881 184.6 221.847 184.6 228.314ZM177.7 144.002C182.3 149.268 184.6 156.135 184.6 164.602C184.6 173.068 182.3 179.935 177.7 185.202C173.1 190.468 167.067 193.102 159.6 193.102L113 193.102L113 173.102L157.4 173.102C162.6 173.102 165.2 170.268 165.2 164.602C165.2 158.935 162.6 156.102 157.4 156.102L113 156.102L113 136.102L159.6 136.102C167.067 136.102 173.1 138.735 177.7 144.002ZM184.6 101.862C184.6 109.462 183.033 115.796 179.9 120.862C176.7 125.929 172.4 129.329 167 131.062L157.1 113.962C163.033 111.629 166 107.429 166 101.362C166 96.8292 164.8 94.5625 162.4 94.5625C161.733 94.5625 161.133 94.7292 160.6 95.0625C160.067 95.3958 159.6 96.0292 159.2 96.9625C158.8 97.8958 158.5 98.7292 158.3 99.4625C158.033 100.129 157.667 101.329 157.2 103.062C156.733 104.796 156.367 106.096 156.1 106.962C151.9 120.896 144.4 127.862 133.6 127.862C127.2 127.862 121.9 125.562 117.7 120.962C113.5 116.296 111.4 110.196 111.4 102.662C111.4 96.7292 112.8 91.4292 115.6 86.7625C118.4 82.0292 122.433 78.5625 127.7 76.3625L137.4 92.9625C132.467 94.8958 130 98.0958 130 102.562C130 104.296 130.367 105.629 131.1 106.562C131.767 107.429 132.633 107.862 133.7 107.862C135.167 107.862 136.3 107.096 137.1 105.562C137.9 103.962 138.933 100.929 140.2 96.4625C141.2 93.1292 142.167 90.3958 143.1 88.2625C143.967 86.1292 145.233 83.8958 146.9 81.5625C148.5 79.2292 150.6 77.4958 153.2 76.3625C155.733 75.1625 158.733 74.5625 162.2 74.5625C169.333 74.5625 174.867 77.0292 178.8 81.9625C182.667 86.8292 184.6 93.4625 184.6 101.862Z"/>
<path d="M213 424.889L232.4 424.889L232.4 441.389L283 441.389L283 461.389L232.4 461.389L232.4 477.889L213 477.889L213 424.889ZM264.6 398.908L264.6 372.908L283 372.908L283 418.908L213 418.908L213 373.408L231.2 373.408L231.2 398.908L238.8 398.908L238.8 375.908L256.8 375.908L256.8 398.908L264.6 398.908ZM283 323.428L274 325.828L274 346.028L283 348.428L283 369.928L213 347.628L213 324.228L283 301.928L283 323.428ZM258 341.728L258 330.128L236.5 335.928L258 341.728ZM284.6 266.351C284.6 276.884 281.1 285.618 274.1 292.551C267.1 299.484 258.4 302.951 248 302.951C237.6 302.951 228.9 299.484 221.9 292.551C214.9 285.618 211.4 276.884 211.4 266.351C211.4 259.884 212.933 253.918 216 248.451C219.067 242.984 223.2 238.718 228.4 235.651L238.4 253.051C236.133 254.184 234.333 255.951 233 258.351C231.667 260.751 231 263.418 231 266.351C231 271.284 232.6 275.284 235.8 278.351C239 281.418 243.067 282.951 248 282.951C252.933 282.951 257 281.418 260.2 278.351C263.4 275.284 265 271.284 265 266.351C265 263.351 264.333 260.684 263 258.351C261.667 255.951 259.833 254.184 257.5 253.051L267.5 235.651C272.767 238.718 276.933 242.984 280 248.451C283.067 253.918 284.6 259.884 284.6 266.351ZM213 193.627L213 173.627L283 173.627L283 193.627L257.2 193.627L257.2 210.627L283 210.627L283 230.627L213 230.627L213 210.627L237.8 210.627L237.8 193.627L213 193.627ZM264.6 143.635L264.6 117.635L283 117.635L283 163.635L213 163.635L213 118.135L231.2 118.135L231.2 143.635L238.8 143.635L238.8 120.635L256.8 120.635L256.8 143.635L264.6 143.635ZM282.9 73.5309L260.9 84.6309L260.9 89.6309L282.9 89.6309L282.9 109.631L212.9 109.631L212.9 81.6309C212.9 73.9642 215.167 67.6309 219.7 62.6309C224.167 57.6309 230.1 55.1309 237.5 55.1309C241.633 55.1309 245.367 56.0975 248.7 58.0308C252.033 59.8975 254.733 62.5308 256.8 65.9309L282.9 52.1309L282.9 73.5309ZM231.3 89.6309L244.3 89.6309L244.3 82.0309C244.367 79.8975 243.833 78.2309 242.7 77.0309C241.567 75.7642 239.967 75.1309 237.9 75.1309C235.833 75.1309 234.233 75.7642 233.1 77.0309C231.9 78.2309 231.3 79.8975 231.3 82.0309L231.3 89.6309ZM313 430.797L332.4 430.797L332.4 447.297L383 447.297L383 467.297L332.4 467.297L332.4 483.797L313 483.797L313 430.797ZM382.9 388.716L360.9 399.816L360.9 404.816L382.9 404.816L382.9 424.816L312.9 424.816L312.9 396.816C312.9 389.15 315.167 382.816 319.7 377.816C324.167 372.816 330.1 370.316 337.5 370.316C341.633 370.316 345.367 371.283 348.7 373.216C352.033 375.083 354.733 377.716 356.8 381.116L382.9 367.316L382.9 388.716ZM331.3 404.816L344.3 404.816L344.3 397.216C344.367 395.083 343.833 393.416 342.7 392.216C341.567 390.95 339.967 390.316 337.9 390.316C335.833 390.316 334.233 390.95 333.1 392.216C331.9 393.416 331.3 395.083 331.3 397.216L331.3 404.816ZM383 319.863L374 322.263L374 342.463L383 344.863L383 366.363L313 344.063L313 320.663L383 298.363L383 319.863ZM358 338.163L358 326.563L336.5 332.363L358 338.163ZM313 294.348L313 274.348L383 274.348L383 294.348L313 294.348ZM313 226.367L313 206.367L383 206.367L383 222.367L351 244.367L383 244.367L383 264.367L313 264.367L313 248.367L345 226.367L313 226.367ZM313 196.398L313 176.398L383 176.398L383 196.398L313 196.398ZM313 128.418L313 108.418L383 108.418L383 124.418L351 146.418L383 146.418L383 166.418L313 166.418L313 150.418L345 128.418L313 128.418ZM341.7 28.7492L350 28.7492C360 28.7492 368.267 31.9825 374.8 38.4492C381.333 44.8492 384.6 53.2825 384.6 63.7492C384.6 74.6825 381.133 83.6159 374.2 90.5492C367.2 97.4825 358.5 100.949 348.1 100.949C337.7 100.949 329 97.4825 322 90.5492C314.933 83.6159 311.4 74.9492 311.4 64.5492C311.4 58.0159 312.867 52.0492 315.8 46.6492C318.733 41.1825 322.7 36.8825 327.7 33.7492L337.4 50.7492C333.133 53.5492 331 58.0159 331 64.1492C331 69.1492 332.6 73.2159 335.8 76.3492C339 79.4159 343.133 80.9492 348.2 80.9492C353 80.9492 357.2 79.5159 360.8 76.6492C364.333 73.7825 366.1 69.3492 366.1 63.3492C366.1 56.4159 363.633 51.7825 358.7 49.4492L358.7 64.3492L341.7 64.3492L341.7 28.7492Z"/>
</mask>
<path d="M183 411.953L183.258 412.919L184 412.721L184 411.953L183 411.953ZM174 414.353L173.742 413.387L173 413.585L173 414.353L174 414.353ZM174 434.553L173 434.553L173 435.321L173.742 435.519L174 434.553ZM183 436.953L184 436.953L184 436.185L183.258 435.987L183 436.953ZM183 458.453L182.696 459.406L184 459.821L184 458.453L183 458.453ZM113 436.153L112 436.153L112 436.884L112.696 437.106L113 436.153ZM113 412.753L112.696 411.8L112 412.022L112 412.753L113 412.753ZM183 390.453L184 390.453L184 389.085L182.696 389.5L183 390.453ZM158 430.253L157.74 431.219L159 431.559L159 430.253L158 430.253ZM158 418.653L159 418.653L159 417.348L157.74 417.688L158 418.653ZM136.5 424.453L136.24 423.488L132.661 424.453L136.24 425.419L136.5 424.453ZM182.742 410.987L173.742 413.387L174.258 415.319L183.258 412.919L182.742 410.987ZM173 414.353L173 434.553L175 434.553L175 414.353L173 414.353ZM173.742 435.519L182.742 437.919L183.258 435.987L174.258 433.587L173.742 435.519ZM182 436.953L182 458.453L184 458.453L184 436.953L182 436.953ZM183.304 457.5L113.304 435.2L112.696 437.106L182.696 459.406L183.304 457.5ZM114 436.153L114 412.753L112 412.753L112 436.153L114 436.153ZM113.304 413.706L183.304 391.406L182.696 389.5L112.696 411.8L113.304 413.706ZM182 390.453L182 411.953L184 411.953L184 390.453L182 390.453ZM159 430.253L159 418.653L157 418.653L157 430.253L159 430.253ZM157.74 417.688L136.24 423.488L136.76 425.419L158.26 419.619L157.74 417.688ZM136.24 425.419L157.74 431.219L158.26 429.288L136.76 423.488L136.24 425.419ZM146.9 341.437L146.092 342.026L147.005 343.28L147.77 341.931L146.9 341.437ZM177.5 338.737L176.747 339.395L176.752 339.401L177.5 338.737ZM183 386.437L183 387.437L184 387.437L184 386.437L183 386.437ZM113 386.437L112 386.437L112 387.437L113 387.437L113 386.437ZM118.1 340.637L118.872 341.273L118.1 340.637ZM130.2 366.437L129.2 366.437L129.2 367.437L130.2 367.437L130.2 366.437ZM139.6 366.437L139.6 367.437L140.613 367.437L140.6 366.425L139.6 366.437ZM139.5 358.737L140.5 358.725L140.499 358.662L140.49 358.599L139.5 358.737ZM131.4 356.038L130.6 355.437L131.4 356.038ZM155.9 356.937L154.912 356.784L154.901 356.855L154.9 356.927L155.9 356.937ZM155.8 366.437L154.8 366.427L154.789 367.437L155.8 367.437L155.8 366.437ZM165.8 366.437L165.8 367.437L166.8 367.437L166.8 366.437L165.8 366.437ZM147.77 341.931C150.991 336.246 155.824 333.437 162.4 333.437L162.4 331.437C155.109 331.437 149.609 334.629 146.03 340.944L147.77 341.931ZM162.4 333.437C168.559 333.437 173.299 335.446 176.747 339.395L178.253 338.08C174.368 333.629 169.041 331.437 162.4 331.437L162.4 333.437ZM176.752 339.401C180.198 343.286 182 349.043 182 356.837L184 356.837C184 348.765 182.135 342.456 178.248 338.074L176.752 339.401ZM182 356.837L182 386.437L184 386.437L184 356.837L182 356.837ZM183 385.437L113 385.437L113 387.437L183 387.437L183 385.437ZM114 386.437L114 358.637L112 358.637L112 386.437L114 386.437ZM114 358.637C114 350.897 115.675 345.16 118.872 341.273L117.328 340.002C113.725 344.382 112 350.645 112 358.637L114 358.637ZM118.872 341.273C122.047 337.414 126.605 335.437 132.7 335.437L132.7 333.437C126.129 333.437 120.953 335.595 117.328 340.002L118.872 341.273ZM132.7 335.437C138.466 335.437 142.891 337.633 146.092 342.026L147.708 340.849C144.109 335.909 139.067 333.437 132.7 333.437L132.7 335.437ZM129.2 359.838L129.2 366.437L131.2 366.437L131.2 359.838L129.2 359.838ZM130.2 367.437L139.6 367.437L139.6 365.437L130.2 365.437L130.2 367.437ZM140.6 366.425L140.5 358.725L138.5 358.75L138.6 366.45L140.6 366.425ZM140.49 358.599C140.271 357.024 139.72 355.705 138.733 354.782C137.735 353.849 136.416 353.437 134.9 353.437L134.9 355.437C136.051 355.437 136.832 355.743 137.367 356.243C137.913 356.753 138.329 357.584 138.51 358.876L140.49 358.599ZM134.9 353.437C133.106 353.437 131.619 354.079 130.6 355.437L132.2 356.637C132.781 355.863 133.628 355.437 134.9 355.437L134.9 353.437ZM130.6 355.437C129.657 356.695 129.2 358.177 129.2 359.838L131.2 359.838C131.2 358.564 131.543 357.514 132.2 356.637L130.6 355.437ZM166.8 358.037C166.8 356.229 166.266 354.652 165.153 353.379L163.647 354.696C164.401 355.557 164.8 356.646 164.8 358.037L166.8 358.037ZM165.153 353.379C164.022 352.087 162.544 351.437 160.8 351.437L160.8 353.437C161.99 353.437 162.911 353.855 163.647 354.696L165.153 353.379ZM160.8 351.437C159.218 351.437 157.845 351.865 156.799 352.826C155.763 353.777 155.167 355.142 154.912 356.784L156.888 357.091C157.099 355.733 157.554 354.848 158.151 354.299C158.739 353.76 159.582 353.437 160.8 353.437L160.8 351.437ZM154.9 356.927L154.8 366.427L156.8 366.448L156.9 356.948L154.9 356.927ZM155.8 367.437L165.8 367.437L165.8 365.437L155.8 365.437L155.8 367.437ZM166.8 366.437L166.8 358.037L164.8 358.037L164.8 366.437L166.8 366.437ZM183 285.391L183.258 286.357L184 286.159L184 285.391L183 285.391ZM174 287.791L173.742 286.824L173 287.022L173 287.791L174 287.791ZM174 307.991L173 307.991L173 308.759L173.742 308.957L174 307.991ZM183 310.391L184 310.391L184 309.622L183.258 309.424L183 310.391ZM183 331.891L182.696 332.843L184 333.259L184 331.891L183 331.891ZM113 309.591L112 309.591L112 310.322L112.696 310.543L113 309.591ZM113 286.191L112.696 285.238L112 285.46L112 286.191L113 286.191ZM183 263.891L184 263.891L184 262.523L182.696 262.938L183 263.891ZM158 303.691L157.74 304.656L159 304.996L159 303.691L158 303.691ZM158 292.091L159 292.091L159 290.785L157.74 291.125L158 292.091ZM136.5 297.891L136.24 296.925L132.661 297.891L136.24 298.856L136.5 297.891ZM182.742 284.424L173.742 286.824L174.258 288.757L183.258 286.357L182.742 284.424ZM173 287.791L173 307.991L175 307.991L175 287.791L173 287.791ZM173.742 308.957L182.742 311.357L183.258 309.424L174.258 307.024L173.742 308.957ZM182 310.391L182 331.891L184 331.891L184 310.391L182 310.391ZM183.304 330.938L113.304 308.638L112.696 310.543L182.696 332.843L183.304 330.938ZM114 309.591L114 286.191L112 286.191L112 309.591L114 309.591ZM113.304 287.143L183.304 264.843L182.696 262.938L112.696 285.238L113.304 287.143ZM182 263.891L182 285.391L184 285.391L184 263.891L182 263.891ZM159 303.691L159 292.091L157 292.091L157 303.691L159 303.691ZM157.74 291.125L136.24 296.925L136.76 298.856L158.26 293.056L157.74 291.125ZM136.24 298.856L157.74 304.656L158.26 302.725L136.76 296.925L136.24 298.856ZM174.1 254.514L173.396 253.804L174.1 254.514ZM121.9 254.514L122.604 253.804L121.9 254.514ZM116 210.414L115.128 209.925L116 210.414ZM128.4 197.614L129.267 197.116L128.763 196.239L127.892 196.753L128.4 197.614ZM138.4 215.014L138.847 215.908L139.795 215.435L139.267 214.516L138.4 215.014ZM133 220.314L133.874 220.8L133 220.314ZM135.8 240.314L136.492 239.592L135.8 240.314ZM160.2 240.314L159.508 239.592L160.2 240.314ZM163 220.314L162.126 220.8L162.132 220.81L163 220.314ZM157.5 215.014L156.633 214.516L156.099 215.445L157.063 215.914L157.5 215.014ZM167.5 197.614L168.003 196.75L167.134 196.244L166.633 197.116L167.5 197.614ZM180 210.414L180.872 209.925L180 210.414ZM183.6 228.314C183.6 238.601 180.193 247.072 173.396 253.804L174.804 255.225C182.007 248.089 185.6 239.094 185.6 228.314L183.6 228.314ZM173.396 253.804C166.595 260.54 158.153 263.914 148 263.914L148 265.914C158.647 265.914 167.605 262.354 174.804 255.225L173.396 253.804ZM148 263.914C137.847 263.914 129.405 260.54 122.604 253.804L121.196 255.225C128.395 262.354 137.353 265.914 148 265.914L148 263.914ZM122.604 253.804C115.807 247.072 112.4 238.601 112.4 228.314L110.4 228.314C110.4 239.094 113.993 248.089 121.196 255.225L122.604 253.804ZM112.4 228.314C112.4 222.013 113.892 216.216 116.872 210.903L115.128 209.925C111.975 215.546 110.4 221.682 110.4 228.314L112.4 228.314ZM116.872 210.903C119.856 205.585 123.866 201.449 128.908 198.475L127.892 196.753C122.534 199.913 118.277 204.31 115.128 209.925L116.872 210.903ZM127.533 198.112L137.533 215.512L139.267 214.516L129.267 197.116L127.533 198.112ZM137.953 214.12C135.491 215.351 133.548 217.268 132.126 219.828L133.874 220.8C135.118 218.56 136.776 216.944 138.847 215.908L137.953 214.12ZM132.126 219.828C130.704 222.387 130 225.223 130 228.314L132 228.314C132 225.539 132.629 223.041 133.874 220.8L132.126 219.828ZM130 228.314C130 233.486 131.688 237.758 135.108 241.036L136.492 239.592C133.512 236.736 132 233.009 132 228.314L130 228.314ZM135.108 241.036C138.516 244.302 142.841 245.914 148 245.914L148 243.914C143.293 243.914 139.484 242.46 136.492 239.592L135.108 241.036ZM148 245.914C153.159 245.914 157.484 244.302 160.892 241.036L159.508 239.592C156.516 242.46 152.707 243.914 148 243.914L148 245.914ZM160.892 241.036C164.312 237.758 166 233.486 166 228.314L164 228.314C164 233.009 162.488 236.736 159.508 239.592L160.892 241.036ZM166 228.314C166 225.161 165.298 222.319 163.868 219.818L162.132 220.81C163.369 222.975 164 225.467 164 228.314L166 228.314ZM163.874 219.828C162.447 217.26 160.466 215.343 157.937 214.115L157.063 215.914C159.201 216.952 160.886 218.568 162.126 220.8L163.874 219.828ZM158.367 215.512L168.367 198.112L166.633 197.116L156.633 214.516L158.367 215.512ZM166.997 198.478C172.105 201.452 176.146 205.588 179.128 210.903L180.872 209.925C177.721 204.307 173.429 199.909 168.003 196.75L166.997 198.478ZM179.128 210.903C182.108 216.216 183.6 222.013 183.6 228.314L185.6 228.314C185.6 221.682 184.025 215.546 180.872 209.925L179.128 210.903ZM177.7 144.002L178.453 143.344L177.7 144.002ZM177.7 185.202L178.453 185.859L177.7 185.202ZM113 193.102L112 193.102L112 194.102L113 194.102L113 193.102ZM113 173.102L113 172.102L112 172.102L112 173.102L113 173.102ZM113 156.102L112 156.102L112 157.102L113 157.102L113 156.102ZM113 136.102L113 135.102L112 135.102L112 136.102L113 136.102ZM176.947 144.659C181.356 149.707 183.6 156.323 183.6 164.602L185.6 164.602C185.6 155.946 183.244 148.829 178.453 143.344L176.947 144.659ZM183.6 164.602C183.6 172.88 181.356 179.496 176.947 184.544L178.453 185.859C183.244 180.374 185.6 173.257 185.6 164.602L183.6 164.602ZM176.947 184.544C172.551 189.577 166.8 192.102 159.6 192.102L159.6 194.102C167.333 194.102 173.649 191.36 178.453 185.859L176.947 184.544ZM159.6 192.102L113 192.102L113 194.102L159.6 194.102L159.6 192.102ZM114 193.102L114 173.102L112 173.102L112 193.102L114 193.102ZM113 174.102L157.4 174.102L157.4 172.102L113 172.102L113 174.102ZM157.4 174.102C160.177 174.102 162.438 173.341 163.987 171.653C165.521 169.981 166.2 167.569 166.2 164.602L164.2 164.602C164.2 167.301 163.579 169.139 162.513 170.3C161.462 171.445 159.823 172.102 157.4 172.102L157.4 174.102ZM166.2 164.602C166.2 161.634 165.521 159.222 163.987 157.55C162.438 155.862 160.177 155.102 157.4 155.102L157.4 157.102C159.823 157.102 161.462 157.758 162.513 158.903C163.579 160.064 164.2 161.902 164.2 164.602L166.2 164.602ZM157.4 155.102L113 155.102L113 157.102L157.4 157.102L157.4 155.102ZM114 156.102L114 136.102L112 136.102L112 156.102L114 156.102ZM113 137.102L159.6 137.102L159.6 135.102L113 135.102L113 137.102ZM159.6 137.102C166.8 137.102 172.551 139.626 176.947 144.659L178.453 143.344C173.649 137.843 167.333 135.102 159.6 135.102L159.6 137.102ZM179.9 120.862L180.746 121.397L180.75 121.388L179.9 120.862ZM167 131.062L166.135 131.564L166.538 132.261L167.306 132.015L167 131.062ZM157.1 113.962L156.734 113.032L155.652 113.457L156.235 114.464L157.1 113.962ZM160.6 95.0625L161.13 95.9105L161.13 95.9105L160.6 95.0625ZM159.2 96.9625L160.119 97.3564L159.2 96.9625ZM158.3 99.4625L159.228 99.8339L159.25 99.7808L159.265 99.7256L158.3 99.4625ZM157.2 103.062L156.234 102.803L157.2 103.062ZM156.1 106.962L155.144 106.668L155.143 106.674L156.1 106.962ZM117.7 120.962L116.957 121.631L116.961 121.637L117.7 120.962ZM115.6 86.7625L116.457 87.277L116.461 87.2716L115.6 86.7625ZM127.7 76.3625L128.563 75.858L128.122 75.1025L127.315 75.4398L127.7 76.3625ZM137.4 92.9625L137.765 93.8936L138.853 93.4671L138.263 92.458L137.4 92.9625ZM131.1 106.562L131.893 105.953L131.886 105.945L131.1 106.562ZM137.1 105.562L137.987 106.025L137.991 106.017L137.994 106.01L137.1 105.562ZM140.2 96.4625L139.242 96.1751L139.24 96.1824L139.238 96.1897L140.2 96.4625ZM143.1 88.2625L144.016 88.6633L144.021 88.6512L144.026 88.6389L143.1 88.2625ZM146.9 81.5625L147.714 82.1437L147.719 82.1359L147.725 82.128L146.9 81.5625ZM153.2 76.3625L153.6 77.2792L153.614 77.2729L153.628 77.2662L153.2 76.3625ZM178.8 81.9625L179.583 81.3404L179.582 81.3391L178.8 81.9625ZM183.6 101.862C183.6 109.327 182.062 115.466 179.049 120.337L180.75 121.388C184.005 116.126 185.6 109.598 185.6 101.862L183.6 101.862ZM179.054 120.329C175.972 125.209 171.858 128.453 166.694 130.11L167.306 132.015C172.942 130.205 177.428 126.649 180.745 121.396L179.054 120.329ZM167.865 130.561L157.965 113.461L156.235 114.464L166.135 131.564L167.865 130.561ZM157.466 114.893C160.571 113.672 162.972 111.933 164.592 109.639C166.215 107.342 167 104.564 167 101.362L165 101.362C165 104.227 164.302 106.583 162.958 108.486C161.612 110.392 159.563 111.919 156.734 113.032L157.466 114.893ZM167 101.362C167 99.0402 166.698 97.144 165.984 95.7946C165.619 95.1051 165.134 94.5353 164.508 94.1413C163.878 93.745 163.164 93.5625 162.4 93.5625L162.4 95.5625C162.836 95.5625 163.172 95.6633 163.442 95.8337C163.716 96.0064 163.981 96.2866 164.216 96.7304C164.702 97.6477 165 99.1515 165 101.362L167 101.362ZM162.4 93.5625C161.558 93.5625 160.772 93.7758 160.07 94.2145L161.13 95.9105C161.495 95.6826 161.909 95.5625 162.4 95.5625L162.4 93.5625ZM160.07 94.2145C159.287 94.704 158.716 95.5531 158.281 96.5686L160.119 97.3564C160.484 96.5052 160.846 96.0877 161.13 95.9105L160.07 94.2145ZM158.281 96.5686C157.868 97.5312 157.551 98.4095 157.335 99.1994L159.265 99.7256C159.449 99.0488 159.732 98.2604 160.119 97.3564L158.281 96.5686ZM157.372 99.0911C157.08 99.8187 156.701 101.071 156.234 102.803L158.166 103.322C158.633 101.587 158.986 100.44 159.228 99.8339L157.372 99.0911ZM156.234 102.803C155.768 104.533 155.405 105.819 155.144 106.668L157.056 107.257C157.328 106.372 157.698 105.058 158.166 103.322L156.234 102.803ZM155.143 106.674C153.073 113.538 150.221 118.583 146.644 121.905C143.09 125.206 138.763 126.862 133.6 126.862L133.6 128.862C139.237 128.862 144.06 127.035 148.006 123.37C151.929 119.726 154.927 114.32 157.057 107.251L155.143 106.674ZM133.6 126.862C127.472 126.862 122.443 124.674 118.438 120.288L116.961 121.637C121.357 126.451 126.928 128.862 133.6 128.862L133.6 126.862ZM118.443 120.294C114.44 115.846 112.4 110.001 112.4 102.663L110.4 102.663C110.4 110.391 112.56 116.746 116.957 121.631L118.443 120.294ZM112.4 102.663C112.4 96.8935 113.759 91.7744 116.457 87.277L114.742 86.248C111.841 91.084 110.4 96.5648 110.4 102.663L112.4 102.663ZM116.461 87.2716C119.147 82.7311 123.01 79.4055 128.085 77.2852L127.315 75.4398C121.857 77.7195 117.653 81.3272 114.739 86.2534L116.461 87.2716ZM126.837 76.867L136.537 93.467L138.263 92.458L128.563 75.858L126.837 76.867ZM137.035 92.0314C134.451 93.0442 132.431 94.4203 131.058 96.202C129.675 97.9955 129 100.133 129 102.562L131 102.562C131 100.525 131.558 98.8295 132.642 97.423C133.735 96.0047 135.416 94.8142 137.765 93.8936L137.035 92.0314ZM129 102.562C129 104.42 129.391 106.006 130.314 107.18L131.886 105.945C131.342 105.252 131 104.171 131 102.562L129 102.562ZM130.307 107.172C131.158 108.278 132.314 108.862 133.7 108.862L133.7 106.862C132.953 106.862 132.376 106.581 131.893 105.953L130.307 107.172ZM133.7 108.862C135.614 108.862 137.052 107.817 137.987 106.025L136.213 105.1C135.548 106.375 134.72 106.862 133.7 106.862L133.7 108.862ZM137.994 106.01C138.842 104.315 139.897 101.197 141.162 96.7353L139.238 96.1897C137.97 100.662 136.958 103.61 136.206 105.115L137.994 106.01ZM141.158 96.7498C142.151 93.4383 143.105 90.7465 144.016 88.6633L142.184 87.8617C141.229 90.0452 140.249 92.8201 139.242 96.1751L141.158 96.7498ZM144.026 88.6389C144.858 86.5931 146.082 84.4283 147.714 82.1437L146.086 80.9813C144.385 83.3634 143.076 85.6652 142.174 87.8861L144.026 88.6389ZM147.725 82.128C149.218 79.9497 151.171 78.3378 153.6 77.2792L152.8 75.4458C150.029 76.6538 147.782 78.5086 146.075 80.997L147.725 82.128ZM153.628 77.2662C156 76.1428 158.847 75.5625 162.2 75.5625L162.2 73.5625C158.619 73.5625 155.467 74.1822 152.772 75.4588L153.628 77.2662ZM162.2 75.5625C169.074 75.5625 174.301 77.9236 178.018 82.5859L179.582 81.3391C175.432 76.1347 169.593 73.5625 162.2 73.5625L162.2 75.5625ZM178.017 82.5846C181.701 87.2211 183.6 93.6094 183.6 101.862L185.6 101.862C185.6 93.3156 183.632 86.4373 179.583 81.3404L178.017 82.5846ZM213 424.889L213 423.889L212 423.889L212 424.889L213 424.889ZM232.4 424.889L233.4 424.889L233.4 423.889L232.4 423.889L232.4 424.889ZM232.4 441.389L231.4 441.389L231.4 442.389L232.4 442.389L232.4 441.389ZM283 441.389L284 441.389L284 440.389L283 440.389L283 441.389ZM283 461.389L283 462.389L284 462.389L284 461.389L283 461.389ZM232.4 461.389L232.4 460.389L231.4 460.389L231.4 461.389L232.4 461.389ZM232.4 477.889L232.4 478.889L233.4 478.889L233.4 477.889L232.4 477.889ZM213 477.889L212 477.889L212 478.889L213 478.889L213 477.889ZM213 425.889L232.4 425.889L232.4 423.889L213 423.889L213 425.889ZM231.4 424.889L231.4 441.389L233.4 441.389L233.4 424.889L231.4 424.889ZM232.4 442.389L283 442.389L283 440.389L232.4 440.389L232.4 442.389ZM282 441.389L282 461.389L284 461.389L284 441.389L282 441.389ZM283 460.389L232.4 460.389L232.4 462.389L283 462.389L283 460.389ZM231.4 461.389L231.4 477.889L233.4 477.889L233.4 461.389L231.4 461.389ZM232.4 476.889L213 476.889L213 478.889L232.4 478.889L232.4 476.889ZM214 477.889L214 424.889L212 424.889L212 477.889L214 477.889ZM264.6 398.908L264.6 399.908L265.6 399.908L265.6 398.908L264.6 398.908ZM264.6 372.908L264.6 371.908L263.6 371.908L263.6 372.908L264.6 372.908ZM283 372.908L284 372.908L284 371.908L283 371.908L283 372.908ZM283 418.908L283 419.908L284 419.908L284 418.908L283 418.908ZM213 418.908L212 418.908L212 419.908L213 419.908L213 418.908ZM213 373.408L213 372.408L212 372.408L212 373.408L213 373.408ZM231.2 373.408L232.2 373.408L232.2 372.408L231.2 372.408L231.2 373.408ZM231.2 398.908L230.2 398.908L230.2 399.908L231.2 399.908L231.2 398.908ZM238.8 398.908L238.8 399.908L239.8 399.908L239.8 398.908L238.8 398.908ZM238.8 375.908L238.8 374.908L237.8 374.908L237.8 375.908L238.8 375.908ZM256.8 375.908L257.8 375.908L257.8 374.908L256.8 374.908L256.8 375.908ZM256.8 398.908L255.8 398.908L255.8 399.908L256.8 399.908L256.8 398.908ZM265.6 398.908L265.6 372.908L263.6 372.908L263.6 398.908L265.6 398.908ZM264.6 373.908L283 373.908L283 371.908L264.6 371.908L264.6 373.908ZM282 372.908L282 418.908L284 418.908L284 372.908L282 372.908ZM283 417.908L213 417.908L213 419.908L283 419.908L283 417.908ZM214 418.908L214 373.408L212 373.408L212 418.908L214 418.908ZM213 374.408L231.2 374.408L231.2 372.408L213 372.408L213 374.408ZM230.2 373.408L230.2 398.908L232.2 398.908L232.2 373.408L230.2 373.408ZM231.2 399.908L238.8 399.908L238.8 397.908L231.2 397.908L231.2 399.908ZM239.8 398.908L239.8 375.908L237.8 375.908L237.8 398.908L239.8 398.908ZM238.8 376.908L256.8 376.908L256.8 374.908L238.8 374.908L238.8 376.908ZM255.8 375.908L255.8 398.908L257.8 398.908L257.8 375.908L255.8 375.908ZM256.8 399.908L264.6 399.908L264.6 397.908L256.8 397.908L256.8 399.908ZM283 323.428L283.258 324.394L284 324.196L284 323.428L283 323.428ZM274 325.828L273.742 324.861L273 325.059L273 325.828L274 325.828ZM274 346.028L273 346.028L273 346.796L273.742 346.994L274 346.028ZM283 348.428L284 348.428L284 347.659L283.258 347.461L283 348.428ZM283 369.928L282.696 370.881L284 371.296L284 369.928L283 369.928ZM213 347.628L212 347.628L212 348.359L212.696 348.581L213 347.628ZM213 324.228L212.696 323.275L212 323.497L212 324.228L213 324.228ZM283 301.928L284 301.928L284 300.56L282.696 300.975L283 301.928ZM258 341.728L257.74 342.693L259 343.033L259 341.728L258 341.728ZM258 330.128L259 330.128L259 328.822L257.74 329.162L258 330.128ZM236.5 335.928L236.24 334.962L232.661 335.928L236.24 336.893L236.5 335.928ZM282.742 322.461L273.742 324.861L274.258 326.794L283.258 324.394L282.742 322.461ZM273 325.828L273 346.028L275 346.028L275 325.828L273 325.828ZM273.742 346.994L282.742 349.394L283.258 347.461L274.258 345.061L273.742 346.994ZM282 348.428L282 369.928L284 369.928L284 348.428L282 348.428ZM283.304 368.975L213.304 346.675L212.696 348.581L282.696 370.881L283.304 368.975ZM214 347.628L214 324.228L212 324.228L212 347.628L214 347.628ZM213.304 325.181L283.304 302.881L282.696 300.975L212.696 323.275L213.304 325.181ZM282 301.928L282 323.428L284 323.428L284 301.928L282 301.928ZM259 341.728L259 330.128L257 330.128L257 341.728L259 341.728ZM257.74 329.162L236.24 334.962L236.76 336.893L258.26 331.093L257.74 329.162ZM236.24 336.893L257.74 342.693L258.26 340.762L236.76 334.962L236.24 336.893ZM274.1 292.551L273.396 291.841L274.1 292.551ZM221.9 292.551L222.604 291.841L221.9 292.551ZM216 248.451L215.128 247.962L216 248.451ZM228.4 235.651L229.267 235.153L228.763 234.276L227.892 234.79L228.4 235.651ZM238.4 253.051L238.847 253.946L239.795 253.472L239.267 252.553L238.4 253.051ZM233 258.351L233.874 258.837L233 258.351ZM235.8 278.351L236.492 277.629L235.8 278.351ZM260.2 278.351L259.508 277.629L260.2 278.351ZM263 258.351L262.126 258.837L262.132 258.847L263 258.351ZM257.5 253.051L256.633 252.553L256.099 253.482L257.063 253.951L257.5 253.051ZM267.5 235.651L268.003 234.787L267.134 234.281L266.633 235.153L267.5 235.651ZM280 248.451L280.872 247.962L280 248.451ZM283.6 266.351C283.6 276.638 280.193 285.109 273.396 291.841L274.804 293.262C282.007 286.127 285.6 277.131 285.6 266.351L283.6 266.351ZM273.396 291.841C266.595 298.577 258.153 301.951 248 301.951L248 303.951C258.647 303.951 267.605 300.392 274.804 293.262L273.396 291.841ZM248 301.951C237.847 301.951 229.405 298.577 222.604 291.841L221.196 293.262C228.395 300.392 237.353 303.951 248 303.951L248 301.951ZM222.604 291.841C215.807 285.109 212.4 276.638 212.4 266.351L210.4 266.351C210.4 277.131 213.993 286.127 221.196 293.262L222.604 291.841ZM212.4 266.351C212.4 260.05 213.892 254.253 216.872 248.94L215.128 247.962C211.975 253.583 210.4 259.719 210.4 266.351L212.4 266.351ZM216.872 248.94C219.856 243.622 223.866 239.486 228.908 236.513L227.892 234.79C222.534 237.95 218.277 242.347 215.128 247.962L216.872 248.94ZM227.533 236.149L237.533 253.549L239.267 252.553L229.267 235.153L227.533 236.149ZM237.953 252.157C235.491 253.388 233.548 255.305 232.126 257.866L233.874 258.837C235.118 256.598 236.776 254.981 238.847 253.946L237.953 252.157ZM232.126 257.866C230.704 260.424 230 263.26 230 266.351L232 266.351C232 263.576 232.629 261.078 233.874 258.837L232.126 257.866ZM230 266.351C230 271.523 231.688 275.796 235.108 279.073L236.492 277.629C233.512 274.773 232 271.046 232 266.351L230 266.351ZM235.108 279.073C238.516 282.339 242.841 283.951 248 283.951L248 281.951C243.293 281.951 239.484 280.497 236.492 277.629L235.108 279.073ZM248 283.951C253.159 283.951 257.484 282.339 260.892 279.073L259.508 277.629C256.516 280.497 252.707 281.951 248 281.951L248 283.951ZM260.892 279.073C264.312 275.796 266 271.523 266 266.351L264 266.351C264 271.046 262.488 274.773 259.508 277.629L260.892 279.073ZM266 266.351C266 263.198 265.298 260.356 263.868 257.855L262.132 258.847C263.369 261.013 264 263.505 264 266.351L266 266.351ZM263.874 257.866C262.447 255.297 260.466 253.38 257.937 252.152L257.063 253.951C259.201 254.989 260.886 256.605 262.126 258.837L263.874 257.866ZM258.367 253.549L268.367 236.149L266.633 235.153L256.633 252.553L258.367 253.549ZM266.997 236.515C272.105 239.49 276.146 243.625 279.128 248.94L280.872 247.962C277.721 242.344 273.429 237.946 268.003 234.787L266.997 236.515ZM279.128 248.94C282.108 254.253 283.6 260.05 283.6 266.351L285.6 266.351C285.6 259.719 284.025 253.583 280.872 247.962L279.128 248.94ZM213 193.627L212 193.627L212 194.627L213 194.627L213 193.627ZM213 173.627L213 172.627L212 172.627L212 173.627L213 173.627ZM283 173.627L284 173.627L284 172.627L283 172.627L283 173.627ZM283 193.627L283 194.627L284 194.627L284 193.627L283 193.627ZM257.2 193.627L257.2 192.627L256.2 192.627L256.2 193.627L257.2 193.627ZM257.2 210.627L256.2 210.627L256.2 211.627L257.2 211.627L257.2 210.627ZM283 210.627L284 210.627L284 209.627L283 209.627L283 210.627ZM283 230.627L283 231.627L284 231.627L284 230.627L283 230.627ZM213 230.627L212 230.627L212 231.627L213 231.627L213 230.627ZM213 210.627L213 209.627L212 209.627L212 210.627L213 210.627ZM237.8 210.627L237.8 211.627L238.8 211.627L238.8 210.627L237.8 210.627ZM237.8 193.627L238.8 193.627L238.8 192.627L237.8 192.627L237.8 193.627ZM214 193.627L214 173.627L212 173.627L212 193.627L214 193.627ZM213 174.627L283 174.627L283 172.627L213 172.627L213 174.627ZM282 173.627L282 193.627L284 193.627L284 173.627L282 173.627ZM283 192.627L257.2 192.627L257.2 194.627L283 194.627L283 192.627ZM256.2 193.627L256.2 210.627L258.2 210.627L258.2 193.627L256.2 193.627ZM257.2 211.627L283 211.627L283 209.627L257.2 209.627L257.2 211.627ZM282 210.627L282 230.627L284 230.627L284 210.627L282 210.627ZM283 229.627L213 229.627L213 231.627L283 231.627L283 229.627ZM214 230.627L214 210.627L212 210.627L212 230.627L214 230.627ZM213 211.627L237.8 211.627L237.8 209.627L213 209.627L213 211.627ZM238.8 210.627L238.8 193.627L236.8 193.627L236.8 210.627L238.8 210.627ZM237.8 192.627L213 192.627L213 194.627L237.8 194.627L237.8 192.627ZM264.6 143.635L264.6 144.635L265.6 144.635L265.6 143.635L264.6 143.635ZM264.6 117.635L264.6 116.635L263.6 116.635L263.6 117.635L264.6 117.635ZM283 117.635L284 117.635L284 116.635L283 116.635L283 117.635ZM283 163.635L283 164.635L284 164.635L284 163.635L283 163.635ZM213 163.635L212 163.635L212 164.635L213 164.635L213 163.635ZM213 118.135L213 117.135L212 117.135L212 118.135L213 118.135ZM231.2 118.135L232.2 118.135L232.2 117.135L231.2 117.135L231.2 118.135ZM231.2 143.635L230.2 143.635L230.2 144.635L231.2 144.635L231.2 143.635ZM238.8 143.635L238.8 144.635L239.8 144.635L239.8 143.635L238.8 143.635ZM238.8 120.635L238.8 119.635L237.8 119.635L237.8 120.635L238.8 120.635ZM256.8 120.635L257.8 120.635L257.8 119.635L256.8 119.635L256.8 120.635ZM256.8 143.635L255.8 143.635L255.8 144.635L256.8 144.635L256.8 143.635ZM265.6 143.635L265.6 117.635L263.6 117.635L263.6 143.635L265.6 143.635ZM264.6 118.635L283 118.635L283 116.635L264.6 116.635L264.6 118.635ZM282 117.635L282 163.635L284 163.635L284 117.635L282 117.635ZM283 162.635L213 162.635L213 164.635L283 164.635L283 162.635ZM214 163.635L214 118.135L212 118.135L212 163.635L214 163.635ZM213 119.135L231.2 119.135L231.2 117.135L213 117.135L213 119.135ZM230.2 118.135L230.2 143.635L232.2 143.635L232.2 118.135L230.2 118.135ZM231.2 144.635L238.8 144.635L238.8 142.635L231.2 142.635L231.2 144.635ZM239.8 143.635L239.8 120.635L237.8 120.635L237.8 143.635L239.8 143.635ZM238.8 121.635L256.8 121.635L256.8 119.635L238.8 119.635L238.8 121.635ZM255.8 120.635L255.8 143.635L257.8 143.635L257.8 120.635L255.8 120.635ZM256.8 144.635L264.6 144.635L264.6 142.635L256.8 142.635L256.8 144.635ZM282.9 73.5308L283.35 74.4236L283.9 74.1464L283.9 73.5308L282.9 73.5308ZM260.9 84.6309L260.45 83.7381L259.9 84.0153L259.9 84.6309L260.9 84.6309ZM260.9 89.6309L259.9 89.6309L259.9 90.6309L260.9 90.6309L260.9 89.6309ZM282.9 89.6309L283.9 89.6309L283.9 88.6309L282.9 88.6309L282.9 89.6309ZM282.9 109.631L282.9 110.631L283.9 110.631L283.9 109.631L282.9 109.631ZM212.9 109.631L211.9 109.631L211.9 110.631L212.9 110.631L212.9 109.631ZM219.7 62.6309L220.441 63.3025L220.446 63.2971L219.7 62.6309ZM248.7 58.0308L248.198 58.8959L248.205 58.8997L248.211 58.9033L248.7 58.0308ZM256.8 65.9308L255.945 66.4503L256.435 67.2552L257.267 66.8149L256.8 65.9308ZM282.9 52.1309L283.9 52.1309L283.9 50.4709L282.433 51.2468L282.9 52.1309ZM231.3 89.6309L230.3 89.6309L230.3 90.6309L231.3 90.6309L231.3 89.6309ZM244.3 89.6309L244.3 90.6309L245.3 90.6309L245.3 89.6309L244.3 89.6309ZM244.3 82.0308L243.3 81.9996L243.3 82.0152L243.3 82.0308L244.3 82.0308ZM242.7 77.0308L241.955 77.6977L241.964 77.7077L241.973 77.7175L242.7 77.0308ZM233.1 77.0308L233.807 77.738L233.827 77.7183L233.845 77.6977L233.1 77.0308ZM282.45 72.6381L260.45 83.7381L261.35 85.5236L283.35 74.4236L282.45 72.6381ZM259.9 84.6309L259.9 89.6309L261.9 89.6309L261.9 84.6309L259.9 84.6309ZM260.9 90.6309L282.9 90.6309L282.9 88.6309L260.9 88.6309L260.9 90.6309ZM281.9 89.6309L281.9 109.631L283.9 109.631L283.9 89.6309L281.9 89.6309ZM282.9 108.631L212.9 108.631L212.9 110.631L282.9 110.631L282.9 108.631ZM213.9 109.631L213.9 81.6309L211.9 81.6309L211.9 109.631L213.9 109.631ZM213.9 81.6309C213.9 74.1763 216.097 68.0934 220.441 63.3025L218.959 61.9592C214.236 67.1683 211.9 73.7521 211.9 81.6309L213.9 81.6309ZM220.446 63.2971C224.702 58.5329 230.352 56.1309 237.5 56.1309L237.5 54.1309C229.848 54.1309 223.632 56.7288 218.954 61.9646L220.446 63.2971ZM237.5 56.1309C241.47 56.1309 245.028 57.0574 248.198 58.8959L249.202 57.1658C245.705 55.1377 241.796 54.1309 237.5 54.1309L237.5 56.1309ZM248.211 58.9033C251.388 60.6822 253.964 63.1912 255.945 66.4503L257.655 65.4114C255.502 61.8705 252.679 59.1128 249.189 57.1583L248.211 58.9033ZM257.267 66.8149L283.367 53.0149L282.433 51.2468L256.333 65.0468L257.267 66.8149ZM281.9 52.1309L281.9 73.5308L283.9 73.5308L283.9 52.1309L281.9 52.1309ZM231.3 90.6309L244.3 90.6309L244.3 88.6309L231.3 88.6309L231.3 90.6309ZM245.3 89.6309L245.3 82.0308L243.3 82.0308L243.3 89.6309L245.3 89.6309ZM245.299 82.0621C245.372 79.7442 244.792 77.7899 243.427 76.3442L241.973 77.7175C242.874 78.6718 243.361 80.0508 243.3 81.9996L245.299 82.0621ZM243.445 76.3641C242.082 74.8403 240.184 74.1309 237.9 74.1309L237.9 76.1309C239.749 76.1309 241.051 76.6881 241.955 77.6977L243.445 76.3641ZM237.9 74.1309C235.615 74.1309 233.718 74.8403 232.355 76.3641L233.845 77.6977C234.749 76.6881 236.051 76.1309 237.9 76.1309L237.9 74.1309ZM232.393 76.3238C230.96 77.7566 230.3 79.7042 230.3 82.0308L232.3 82.0308C232.3 80.0908 232.84 78.7051 233.807 77.738L232.393 76.3238ZM230.3 82.0308L230.3 89.6309L232.3 89.6309L232.3 82.0308L230.3 82.0308ZM313 430.797L313 429.797L312 429.797L312 430.797L313 430.797ZM332.4 430.797L333.4 430.797L333.4 429.797L332.4 429.797L332.4 430.797ZM332.4 447.297L331.4 447.297L331.4 448.297L332.4 448.297L332.4 447.297ZM383 447.297L384 447.297L384 446.297L383 446.297L383 447.297ZM383 467.297L383 468.297L384 468.297L384 467.297L383 467.297ZM332.4 467.297L332.4 466.297L331.4 466.297L331.4 467.297L332.4 467.297ZM332.4 483.797L332.4 484.797L333.4 484.797L333.4 483.797L332.4 483.797ZM313 483.797L312 483.797L312 484.797L313 484.797L313 483.797ZM313 431.797L332.4 431.797L332.4 429.797L313 429.797L313 431.797ZM331.4 430.797L331.4 447.297L333.4 447.297L333.4 430.797L331.4 430.797ZM332.4 448.297L383 448.297L383 446.297L332.4 446.297L332.4 448.297ZM382 447.297L382 467.297L384 467.297L384 447.297L382 447.297ZM383 466.297L332.4 466.297L332.4 468.297L383 468.297L383 466.297ZM331.4 467.297L331.4 483.797L333.4 483.797L333.4 467.297L331.4 467.297ZM332.4 482.797L313 482.797L313 484.797L332.4 484.797L332.4 482.797ZM314 483.797L314 430.797L312 430.797L312 483.797L314 483.797ZM382.9 388.716L383.35 389.609L383.9 389.332L383.9 388.716L382.9 388.716ZM360.9 399.816L360.45 398.924L359.9 399.201L359.9 399.816L360.9 399.816ZM360.9 404.816L359.9 404.816L359.9 405.816L360.9 405.816L360.9 404.816ZM382.9 404.816L383.9 404.816L383.9 403.816L382.9 403.816L382.9 404.816ZM382.9 424.816L382.9 425.816L383.9 425.816L383.9 424.816L382.9 424.816ZM312.9 424.816L311.9 424.816L311.9 425.816L312.9 425.816L312.9 424.816ZM319.7 377.816L320.441 378.488L320.446 378.483L319.7 377.816ZM348.7 373.216L348.198 374.081L348.205 374.085L348.211 374.089L348.7 373.216ZM356.8 381.116L355.945 381.636L356.435 382.441L357.267 382L356.8 381.116ZM382.9 367.316L383.9 367.316L383.9 365.656L382.433 366.432L382.9 367.316ZM331.3 404.816L330.3 404.816L330.3 405.816L331.3 405.816L331.3 404.816ZM344.3 404.816L344.3 405.816L345.3 405.816L345.3 404.816L344.3 404.816ZM344.3 397.216L343.3 397.185L343.3 397.201L343.3 397.216L344.3 397.216ZM342.7 392.216L341.955 392.883L341.964 392.893L341.973 392.903L342.7 392.216ZM333.1 392.216L333.807 392.923L333.827 392.904L333.845 392.883L333.1 392.216ZM382.45 387.824L360.45 398.924L361.35 400.709L383.35 389.609L382.45 387.824ZM359.9 399.816L359.9 404.816L361.9 404.816L361.9 399.816L359.9 399.816ZM360.9 405.816L382.9 405.816L382.9 403.816L360.9 403.816L360.9 405.816ZM381.9 404.816L381.9 424.816L383.9 424.816L383.9 404.816L381.9 404.816ZM382.9 423.816L312.9 423.816L312.9 425.816L382.9 425.816L382.9 423.816ZM313.9 424.816L313.9 396.816L311.9 396.816L311.9 424.816L313.9 424.816ZM313.9 396.816C313.9 389.362 316.097 383.279 320.441 378.488L318.959 377.145C314.236 382.354 311.9 388.938 311.9 396.816L313.9 396.816ZM320.446 378.483C324.702 373.718 330.352 371.316 337.5 371.316L337.5 369.316C329.848 369.316 323.632 371.914 318.954 377.15L320.446 378.483ZM337.5 371.316C341.47 371.316 345.028 372.243 348.198 374.081L349.202 372.351C345.705 370.323 341.796 369.316 337.5 369.316L337.5 371.316ZM348.211 374.089C351.388 375.868 353.964 378.377 355.945 381.636L357.655 380.597C355.502 377.056 352.679 374.298 349.189 372.344L348.211 374.089ZM357.267 382L383.367 368.2L382.433 366.432L356.333 380.232L357.267 382ZM381.9 367.316L381.9 388.716L383.9 388.716L383.9 367.316L381.9 367.316ZM331.3 405.816L344.3 405.816L344.3 403.816L331.3 403.816L331.3 405.816ZM345.3 404.816L345.3 397.216L343.3 397.216L343.3 404.816L345.3 404.816ZM345.3 397.248C345.372 394.93 344.792 392.975 343.427 391.53L341.973 392.903C342.874 393.857 343.361 395.236 343.3 397.185L345.3 397.248ZM343.445 391.55C342.082 390.026 340.184 389.316 337.9 389.316L337.9 391.316C339.749 391.316 341.051 391.874 341.955 392.883L343.445 391.55ZM337.9 389.316C335.615 389.316 333.718 390.026 332.355 391.55L333.845 392.883C334.749 391.874 336.051 391.316 337.9 391.316L337.9 389.316ZM332.393 391.509C330.96 392.942 330.3 394.89 330.3 397.216L332.3 397.216C332.3 395.276 332.84 393.891 333.807 392.923L332.393 391.509ZM330.3 397.216L330.3 404.816L332.3 404.816L332.3 397.216L330.3 397.216ZM383 319.863L383.258 320.83L384 320.632L384 319.863L383 319.863ZM374 322.263L373.742 321.297L373 321.495L373 322.263L374 322.263ZM374 342.463L373 342.463L373 343.232L373.742 343.43L374 342.463ZM383 344.863L384 344.863L384 344.095L383.258 343.897L383 344.863ZM383 366.363L382.696 367.316L384 367.731L384 366.363L383 366.363ZM313 344.063L312 344.063L312 344.794L312.696 345.016L313 344.063ZM313 320.663L312.696 319.71L312 319.932L312 320.663L313 320.663ZM383 298.363L384 298.363L384 296.995L382.696 297.41L383 298.363ZM358 338.163L357.74 339.129L359 339.469L359 338.163L358 338.163ZM358 326.563L359 326.563L359 325.258L357.74 325.598L358 326.563ZM336.5 332.363L336.24 331.398L332.661 332.363L336.24 333.329L336.5 332.363ZM382.742 318.897L373.742 321.297L374.258 323.229L383.258 320.83L382.742 318.897ZM373 322.263L373 342.463L375 342.463L375 322.263L373 322.263ZM373.742 343.43L382.742 345.83L383.258 343.897L374.258 341.497L373.742 343.43ZM382 344.863L382 366.363L384 366.363L384 344.863L382 344.863ZM383.304 365.41L313.304 343.11L312.696 345.016L382.696 367.316L383.304 365.41ZM314 344.063L314 320.663L312 320.663L312 344.063L314 344.063ZM313.304 321.616L383.304 299.316L382.696 297.41L312.696 319.71L313.304 321.616ZM382 298.363L382 319.863L384 319.863L384 298.363L382 298.363ZM359 338.163L359 326.563L357 326.563L357 338.163L359 338.163ZM357.74 325.598L336.24 331.398L336.76 333.329L358.26 327.529L357.74 325.598ZM336.24 333.329L357.74 339.129L358.26 337.198L336.76 331.398L336.24 333.329ZM313 294.348L312 294.348L312 295.348L313 295.348L313 294.348ZM313 274.348L313 273.348L312 273.348L312 274.348L313 274.348ZM383 274.348L384 274.348L384 273.348L383 273.348L383 274.348ZM383 294.348L383 295.348L384 295.348L384 294.348L383 294.348ZM314 294.348L314 274.348L312 274.348L312 294.348L314 294.348ZM313 275.348L383 275.348L383 273.348L313 273.348L313 275.348ZM382 274.348L382 294.348L384 294.348L384 274.348L382 274.348ZM383 293.348L313 293.348L313 295.348L383 295.348L383 293.348ZM313 226.367L312 226.367L312 227.367L313 227.367L313 226.367ZM313 206.367L313 205.367L312 205.367L312 206.367L313 206.367ZM383 206.367L384 206.367L384 205.367L383 205.367L383 206.367ZM383 222.367L383.567 223.191L384 222.893L384 222.367L383 222.367ZM351 244.367L350.433 243.543L347.78 245.367L351 245.367L351 244.367ZM383 244.367L384 244.367L384 243.367L383 243.367L383 244.367ZM383 264.367L383 265.367L384 265.367L384 264.367L383 264.367ZM313 264.367L312 264.367L312 265.367L313 265.367L313 264.367ZM313 248.367L312.433 247.543L312 247.841L312 248.367L313 248.367ZM345 226.367L345.567 227.191L348.22 225.367L345 225.367L345 226.367ZM314 226.367L314 206.367L312 206.367L312 226.367L314 226.367ZM313 207.367L383 207.367L383 205.367L313 205.367L313 207.367ZM382 206.367L382 222.367L384 222.367L384 206.367L382 206.367ZM382.433 221.543L350.433 243.543L351.567 245.191L383.567 223.191L382.433 221.543ZM351 245.367L383 245.367L383 243.367L351 243.367L351 245.367ZM382 244.367L382 264.367L384 264.367L384 244.367L382 244.367ZM383 263.367L313 263.367L313 265.367L383 265.367L383 263.367ZM314 264.367L314 248.367L312 248.367L312 264.367L314 264.367ZM313.567 249.191L345.567 227.191L344.433 225.543L312.433 247.543L313.567 249.191ZM345 225.367L313 225.367L313 227.367L345 227.367L345 225.367ZM313 196.398L312 196.398L312 197.398L313 197.398L313 196.398ZM313 176.398L313 175.398L312 175.398L312 176.398L313 176.398ZM383 176.398L384 176.398L384 175.398L383 175.398L383 176.398ZM383 196.398L383 197.398L384 197.398L384 196.398L383 196.398ZM314 196.398L314 176.398L312 176.398L312 196.398L314 196.398ZM313 177.398L383 177.398L383 175.398L313 175.398L313 177.398ZM382 176.398L382 196.398L384 196.398L384 176.398L382 176.398ZM383 195.398L313 195.398L313 197.398L383 197.398L383 195.398ZM313 128.418L312 128.418L312 129.418L313 129.418L313 128.418ZM313 108.418L313 107.418L312 107.418L312 108.418L313 108.418ZM383 108.418L384 108.418L384 107.418L383 107.418L383 108.418ZM383 124.418L383.567 125.242L384 124.944L384 124.418L383 124.418ZM351 146.418L350.433 145.594L347.78 147.418L351 147.418L351 146.418ZM383 146.418L384 146.418L384 145.418L383 145.418L383 146.418ZM383 166.418L383 167.418L384 167.418L384 166.418L383 166.418ZM313 166.418L312 166.418L312 167.418L313 167.418L313 166.418ZM313 150.418L312.433 149.594L312 149.892L312 150.418L313 150.418ZM345 128.418L345.567 129.242L348.22 127.418L345 127.418L345 128.418ZM314 128.418L314 108.418L312 108.418L312 128.418L314 128.418ZM313 109.418L383 109.418L383 107.418L313 107.418L313 109.418ZM382 108.418L382 124.418L384 124.418L384 108.418L382 108.418ZM382.433 123.594L350.433 145.594L351.567 147.242L383.567 125.242L382.433 123.594ZM351 147.418L383 147.418L383 145.418L351 145.418L351 147.418ZM382 146.418L382 166.418L384 166.418L384 146.418L382 146.418ZM383 165.418L313 165.418L313 167.418L383 167.418L383 165.418ZM314 166.418L314 150.418L312 150.418L312 166.418L314 166.418ZM313.567 151.242L345.567 129.242L344.433 127.594L312.433 149.594L313.567 151.242ZM345 127.418L313 127.418L313 129.418L345 129.418L345 127.418ZM341.7 28.7492L341.7 27.7492L340.7 27.7492L340.7 28.7492L341.7 28.7492ZM374.8 38.4492L374.097 39.1599L374.1 39.1636L374.8 38.4492ZM374.2 90.5492L374.904 91.2597L374.907 91.2563L374.2 90.5492ZM322 90.5492L322.704 89.8387L322.7 89.8354L322 90.5492ZM315.8 46.6492L316.679 47.1265L316.681 47.122L315.8 46.6492ZM327.7 33.7492L328.569 33.2536L328.052 32.3484L327.169 32.9018L327.7 33.7492ZM337.4 50.7492L337.949 51.5853L338.734 51.0697L338.269 50.2536L337.4 50.7492ZM335.8 76.3492L335.1 77.0638L335.108 77.0712L335.8 76.3492ZM360.8 76.6492L361.423 77.4315L361.43 77.4258L360.8 76.6492ZM358.7 49.4492L359.128 48.5452L357.7 47.87L357.7 49.4492L358.7 49.4492ZM358.7 64.3492L358.7 65.3492L359.7 65.3492L359.7 64.3492L358.7 64.3492ZM341.7 64.3492L340.7 64.3492L340.7 65.3492L341.7 65.3492L341.7 64.3492ZM341.7 29.7492L350 29.7492L350 27.7492L341.7 27.7492L341.7 29.7492ZM350 29.7492C359.762 29.7492 367.768 32.8958 374.097 39.1599L375.503 37.7385C368.766 31.0693 360.238 27.7492 350 27.7492L350 29.7492ZM374.1 39.1636C380.413 45.3478 383.6 53.509 383.6 63.7492L385.6 63.7492C385.6 53.056 382.253 44.3506 375.5 37.7349L374.1 39.1636ZM383.6 63.7492C383.6 74.4507 380.216 83.1187 373.493 89.8421L374.907 91.2563C382.05 84.1131 385.6 74.9144 385.6 63.7492L383.6 63.7492ZM373.496 89.8387C366.695 96.5755 358.253 99.9492 348.1 99.9492L348.1 101.949C358.747 101.949 367.705 98.3896 374.904 91.2597L373.496 89.8387ZM348.1 99.9492C337.947 99.9492 329.505 96.5755 322.704 89.8387L321.296 91.2597C328.495 98.3896 337.453 101.949 348.1 101.949L348.1 99.9492ZM322.7 89.8354C315.836 83.1005 312.4 74.6958 312.4 64.5492L310.4 64.5492C310.4 75.2026 314.031 84.1313 321.3 91.263L322.7 89.8354ZM312.4 64.5492C312.4 58.1717 313.83 52.3708 316.679 47.1265L314.921 46.1719C311.903 51.7277 310.4 57.86 310.4 64.5492L312.4 64.5492ZM316.681 47.122C319.537 41.8003 323.386 37.6328 328.231 34.5966L327.169 32.9018C322.014 36.1323 317.93 40.5647 314.919 46.1764L316.681 47.122ZM326.831 34.2448L336.531 51.2448L338.269 50.2536L328.569 33.2536L326.831 34.2448ZM336.851 49.9132C332.243 52.9372 330 57.7573 330 64.1492L332 64.1492C332 58.2745 334.023 54.1612 337.949 51.5853L336.851 49.9132ZM330 64.1492C330 69.3837 331.685 73.7195 335.1 77.0637L336.5 75.6347C333.515 72.7122 332 68.9147 332 64.1492L330 64.1492ZM335.108 77.0712C338.521 80.3421 342.915 81.9492 348.2 81.9492L348.2 79.9492C343.351 79.9492 339.479 78.4897 336.492 75.6272L335.108 77.0712ZM348.2 81.9492C353.216 81.9492 357.638 80.4455 361.423 77.4315L360.177 75.8669C356.762 78.5862 352.784 79.9492 348.2 79.9492L348.2 81.9492ZM361.43 77.4258C365.267 74.3126 367.1 69.5474 367.1 63.3492L365.1 63.3492C365.1 69.151 363.399 73.2525 360.17 75.8726L361.43 77.4258ZM367.1 63.3492C367.1 59.7693 366.464 56.7045 365.133 54.2043C363.794 51.6898 361.78 49.7999 359.128 48.5452L358.272 50.3532C360.553 51.4318 362.239 53.0253 363.367 55.1441C364.503 57.2772 365.1 59.9957 365.1 63.3492L367.1 63.3492ZM357.7 49.4492L357.7 64.3492L359.7 64.3492L359.7 49.4492L357.7 49.4492ZM358.7 63.3492L341.7 63.3492L341.7 65.3492L358.7 65.3492L358.7 63.3492ZM342.7 64.3492L342.7 28.7492L340.7 28.7492L340.7 64.3492L342.7 64.3492Z" fill="#F4EFE2" mask="url(#path-4-outside-1_1629_655)"/>
</svg>
