<svg width="1372" height="820" viewBox="0 0 1372 820" fill="none" xmlns="http://www.w3.org/2000/svg">
<mask id="path-1-outside-1_1629_3144" maskUnits="userSpaceOnUse" x="-2" y="-1" width="1375" height="822" fill="black">
<rect fill="white" x="-2" y="-1" width="1375" height="822"/>
<path d="M139.5 215L132.3 188H71.7L64.5 215H-2.12342e-07L66.9 4.99999H137.1L204 215H139.5ZM84.6 140H119.4L102 75.5L84.6 140ZM351.047 106.7C369.047 116.9 378.047 132.4 378.047 153.2C378.047 172.4 371.747 187.5 359.147 198.5C346.747 209.5 328.647 215 304.847 215H216.047V4.99999H299.447C323.047 4.99999 341.047 10.1 353.447 20.3C365.847 30.5 372.047 45.1 372.047 64.1C372.047 82.3 365.047 96.5 351.047 106.7ZM295.847 56.6H276.047V84.8L299.147 84.5C307.747 83.3 312.047 78.7 312.047 70.7C312.047 66.1 310.447 62.6 307.247 60.2C304.047 57.8 300.247 56.6 295.847 56.6ZM301.247 163.4C306.047 163.4 310.047 162 313.247 159.2C316.447 156.4 318.047 152.8 318.047 148.4C318.047 140 313.547 135.1 304.547 133.7L276.047 133.4V163.4H301.247ZM519.188 215L511.988 188H451.388L444.188 215H379.687L446.588 4.99999H516.788L583.688 215H519.188ZM464.288 140H499.088L481.688 75.5L464.288 140ZM690.417 219.8C658.817 219.8 632.617 209.3 611.817 188.3C591.017 167.3 580.617 141.2 580.617 110C580.617 78.8 591.017 52.7 611.817 31.7C632.617 10.7 658.817 0.199994 690.417 0.199994C709.817 0.199994 727.717 4.79999 744.117 14C760.517 23.2 773.317 35.6 782.517 51.2L730.317 81.2C726.917 74.4 721.617 69 714.417 65C707.217 61 699.217 59 690.417 59C675.617 59 663.617 63.8 654.417 73.4C645.217 83 640.617 95.2 640.617 110C640.617 124.8 645.217 137 654.417 146.6C663.617 156.2 675.617 161 690.417 161C699.417 161 707.417 159 714.417 155C721.617 151 726.917 145.5 730.317 138.5L782.517 168.5C773.317 184.3 760.517 196.8 744.117 206C727.717 215.2 709.817 219.8 690.417 219.8ZM943.355 199.1C927.555 212.9 906.955 219.8 881.555 219.8C856.155 219.8 835.555 212.9 819.755 199.1C803.955 185.3 796.055 167.2 796.055 144.8V4.99999H856.055V138.2C856.055 153.8 864.555 161.6 881.555 161.6C898.555 161.6 907.055 153.8 907.055 138.2V4.99999H967.055V144.8C967.055 167.2 959.155 185.3 943.355 199.1ZM1069.77 219.8C1046.97 219.8 1027.97 215.1 1012.77 205.7C997.572 196.1 987.372 183.2 982.172 167L1033.47 137.3C1040.47 155.1 1053.07 164 1071.27 164C1084.87 164 1091.67 160.4 1091.67 153.2C1091.67 151.2 1091.17 149.4 1090.17 147.8C1089.17 146.2 1087.27 144.8 1084.47 143.6C1081.67 142.4 1079.17 141.5 1076.97 140.9C1074.97 140.1 1071.37 139 1066.17 137.6C1060.97 136.2 1057.07 135.1 1054.47 134.3C1012.67 121.7 991.772 99.2 991.772 66.8C991.772 47.6 998.672 31.7 1012.47 19.1C1026.47 6.49999 1044.77 0.199994 1067.37 0.199994C1085.17 0.199994 1101.07 4.39999 1115.07 12.8C1129.27 21.2 1139.67 33.3 1146.27 49.1L1096.47 78.2C1090.67 63.4 1081.07 56 1067.67 56C1062.47 56 1058.47 57.1 1055.67 59.3C1053.07 61.3 1051.77 63.9 1051.77 67.1C1051.77 71.5 1054.07 74.9 1058.67 77.3C1063.47 79.7 1072.57 82.8 1085.97 86.6C1095.97 89.6 1104.17 92.5 1110.57 95.3C1116.97 97.9 1123.67 101.7 1130.67 106.7C1137.67 111.5 1142.87 117.8 1146.27 125.6C1149.87 133.2 1151.67 142.2 1151.67 152.6C1151.67 174 1144.27 190.6 1129.47 202.4C1114.87 214 1094.97 219.8 1069.77 219.8ZM165 305V363.2H115.5V515H55.5V363.2H6V305H165ZM242.941 459.8H320.941V515H182.941V305H319.441V359.6H242.941V382.4H311.941V436.4H242.941V459.8ZM469.383 515L462.183 488H401.583L394.383 515H329.883L396.783 305H466.983L533.883 515H469.383ZM414.483 440H449.283L431.883 375.5L414.483 440ZM640.613 519.8C609.013 519.8 582.813 509.3 562.013 488.3C541.213 467.3 530.813 441.2 530.813 410C530.813 378.8 541.213 352.7 562.013 331.7C582.813 310.7 609.013 300.2 640.613 300.2C660.013 300.2 677.913 304.8 694.313 314C710.713 323.2 723.513 335.6 732.713 351.2L680.513 381.2C677.113 374.4 671.813 369 664.613 365C657.413 361 649.413 359 640.613 359C625.813 359 613.813 363.8 604.613 373.4C595.413 383 590.813 395.2 590.813 410C590.813 424.8 595.413 437 604.613 446.6C613.813 456.2 625.813 461 640.613 461C649.613 461 657.613 459 664.613 455C671.813 451 677.113 445.5 680.513 438.5L732.713 468.5C723.513 484.3 710.713 496.8 694.313 506C677.913 515.2 660.013 519.8 640.613 519.8ZM858.785 305H918.785V515H858.785V437.6H807.785V515H747.785V305H807.785V379.4H858.785V305ZM1008.76 459.8H1086.76V515H948.762V305H1085.26V359.6H1008.76V382.4H1077.76V436.4H1008.76V459.8ZM1219.07 514.7L1185.77 448.7H1170.77V514.7H1110.77V304.7H1194.77C1217.77 304.7 1236.77 311.5 1251.77 325.1C1266.77 338.5 1274.27 356.3 1274.27 378.5C1274.27 390.9 1271.37 402.1 1265.57 412.1C1259.97 422.1 1252.07 430.2 1241.87 436.4L1283.27 514.7H1219.07ZM1170.77 359.9V398.9H1193.57C1199.97 399.1 1204.97 397.5 1208.57 394.1C1212.37 390.7 1214.27 385.9 1214.27 379.7C1214.27 373.5 1212.37 368.7 1208.57 365.3C1204.97 361.7 1199.97 359.9 1193.57 359.9H1170.77ZM165 605V663.2H115.5V815H55.5V663.2H6V605H165ZM291.241 814.7L257.941 748.7H242.941V814.7H182.941V604.7H266.941C289.941 604.7 308.941 611.5 323.941 625.1C338.941 638.5 346.441 656.3 346.441 678.5C346.441 690.9 343.541 702.1 337.741 712.1C332.141 722.1 324.241 730.2 314.041 736.4L355.441 814.7H291.241ZM242.941 659.9V698.9H265.741C272.141 699.1 277.141 697.5 280.741 694.1C284.541 690.7 286.441 685.9 286.441 679.7C286.441 673.5 284.541 668.7 280.741 665.3C277.141 661.7 272.141 659.9 265.741 659.9H242.941ZM497.801 815L490.601 788H430.001L422.801 815H358.301L425.201 605H495.401L562.301 815H497.801ZM442.901 740H477.701L460.301 675.5L442.901 740ZM574.348 605H634.348V815H574.348V605ZM778.289 605H838.289V815H790.289L724.289 719V815H664.289V605H712.289L778.289 701V605ZM868.195 605H928.195V815H868.195V605ZM1072.14 605H1132.14V815H1084.14L1018.14 719V815H958.137V605H1006.14L1072.14 701V605ZM1371.14 691.1V716C1371.14 746 1361.44 770.8 1342.04 790.4C1322.84 810 1297.54 819.8 1266.14 819.8C1233.34 819.8 1206.54 809.4 1185.74 788.6C1164.94 767.6 1154.54 741.5 1154.54 710.3C1154.54 679.1 1164.94 653 1185.74 632C1206.54 610.8 1232.54 600.2 1263.74 600.2C1283.34 600.2 1301.24 604.6 1317.44 613.4C1333.84 622.2 1346.74 634.1 1356.14 649.1L1305.14 678.2C1296.74 665.4 1283.34 659 1264.94 659C1249.94 659 1237.74 663.8 1228.34 673.4C1219.14 683 1214.54 695.4 1214.54 710.6C1214.54 725 1218.84 737.6 1227.44 748.4C1236.04 759 1249.34 764.3 1267.34 764.3C1288.14 764.3 1302.04 756.9 1309.04 742.1H1264.34V691.1H1371.14Z"/>
</mask>
<path d="M139.5 215L138.534 215.258L138.732 216H139.5V215ZM132.3 188L133.266 187.742L133.068 187H132.3V188ZM71.7 188V187H70.9317L70.7338 187.742L71.7 188ZM64.5 215V216H65.2683L65.4662 215.258L64.5 215ZM-2.38419e-07 215L-0.952819 214.696L-1.36809 216H-2.38419e-07V215ZM66.9 4.99998V3.99998H66.1691L65.9472 4.69645L66.9 4.99998ZM137.1 4.99998L138.053 4.69645L137.831 3.99998H137.1V4.99998ZM204 215V216H205.368L204.953 214.696L204 215ZM84.6 140L83.6345 139.74L83.2945 141H84.6V140ZM119.4 140V141H120.706L120.365 139.74L119.4 140ZM102 75.5L102.965 75.2395L102 71.6606L101.035 75.2395L102 75.5ZM140.466 214.742L133.266 187.742L131.334 188.258L138.534 215.258L140.466 214.742ZM132.3 187H71.7V189H132.3V187ZM70.7338 187.742L63.5338 214.742L65.4662 215.258L72.6662 188.258L70.7338 187.742ZM64.5 214H-2.38419e-07V216H64.5V214ZM0.952818 215.304L67.8528 5.30353L65.9472 4.69645L-0.952819 214.696L0.952818 215.304ZM66.9 5.99998H137.1V3.99998H66.9V5.99998ZM136.147 5.30353L203.047 215.304L204.953 214.696L138.053 4.69645L136.147 5.30353ZM204 214H139.5V216H204V214ZM84.6 141H119.4V139H84.6V141ZM120.365 139.74L102.965 75.2395L101.035 75.7604L118.435 140.26L120.365 139.74ZM101.035 75.2395L83.6345 139.74L85.5655 140.26L102.965 75.7604L101.035 75.2395ZM351.047 106.7L350.458 105.892L349.204 106.805L350.554 107.57L351.047 106.7ZM359.147 198.5L358.489 197.747L358.483 197.752L359.147 198.5ZM216.047 215H215.047V216H216.047V215ZM216.047 4.99998V3.99998H215.047V4.99998H216.047ZM353.447 20.3L352.812 21.0723V21.0723L353.447 20.3ZM276.047 56.6V55.6H275.047V56.6H276.047ZM276.047 84.8H275.047V85.8131L276.06 85.7999L276.047 84.8ZM299.147 84.5L299.16 85.4999L299.223 85.4991L299.285 85.4904L299.147 84.5ZM307.247 60.2L307.847 59.4V59.4L307.247 60.2ZM304.547 133.7L304.701 132.712L304.629 132.701L304.557 132.7L304.547 133.7ZM276.047 133.4L276.057 132.4L275.047 132.389V133.4H276.047ZM276.047 163.4H275.047V164.4H276.047V163.4ZM350.554 107.57C368.238 117.591 377.047 132.758 377.047 153.2H379.047C379.047 132.042 369.855 116.209 351.54 105.83L350.554 107.57ZM377.047 153.2C377.047 172.159 370.838 186.966 358.489 197.747L359.805 199.253C372.655 188.034 379.047 172.641 379.047 153.2H377.047ZM358.483 197.752C346.332 208.531 328.508 214 304.847 214V216C328.786 216 347.162 210.469 359.81 199.248L358.483 197.752ZM304.847 214H216.047V216H304.847V214ZM217.047 215V4.99998H215.047V215H217.047ZM216.047 5.99998H299.447V3.99998H216.047V5.99998ZM299.447 5.99998C322.921 5.99998 340.658 11.0749 352.812 21.0723L354.082 19.5277C341.436 9.12508 323.173 3.99998 299.447 3.99998V5.99998ZM352.812 21.0723C364.937 31.0468 371.047 45.3381 371.047 64.1H373.047C373.047 44.8619 366.756 29.9532 354.082 19.5277L352.812 21.0723ZM371.047 64.1C371.047 81.9994 364.185 95.8909 350.458 105.892L351.636 107.508C365.909 97.1091 373.047 82.6006 373.047 64.1H371.047ZM295.847 55.6H276.047V57.6H295.847V55.6ZM275.047 56.6V84.8H277.047V56.6H275.047ZM276.06 85.7999L299.16 85.4999L299.134 83.5001L276.034 83.8001L276.06 85.7999ZM299.285 85.4904C303.727 84.8706 307.196 83.3537 309.552 80.8329C311.919 78.3014 313.047 74.8822 313.047 70.7H311.047C311.047 74.5177 310.025 77.3986 308.091 79.4671C306.148 81.5462 303.167 82.9294 299.009 83.5096L299.285 85.4904ZM313.047 70.7C313.047 65.839 311.339 62.0189 307.847 59.4L306.647 61C309.555 63.181 311.047 66.361 311.047 70.7H313.047ZM307.847 59.4C304.456 56.8571 300.44 55.6 295.847 55.6V57.6C300.053 57.6 303.637 58.7429 306.647 61L307.847 59.4ZM301.247 164.4C306.256 164.4 310.499 162.933 313.905 159.953L312.588 158.447C309.594 161.067 305.838 162.4 301.247 162.4V164.4ZM313.905 159.953C317.331 156.955 319.047 153.077 319.047 148.4H317.047C317.047 152.523 315.563 155.845 312.588 158.447L313.905 159.953ZM319.047 148.4C319.047 144.018 317.869 140.428 315.408 137.749C312.957 135.079 309.343 133.434 304.701 132.712L304.393 134.688C308.751 135.366 311.887 136.871 313.935 139.101C315.975 141.322 317.047 144.382 317.047 148.4H319.047ZM304.557 132.7L276.057 132.4L276.036 134.4L304.536 134.7L304.557 132.7ZM275.047 133.4V163.4H277.047V133.4H275.047ZM276.047 164.4H301.247V162.4H276.047V164.4ZM519.188 215L518.221 215.258L518.419 216H519.188V215ZM511.988 188L512.954 187.742L512.756 187H511.988V188ZM451.388 188V187H450.619L450.421 187.742L451.388 188ZM444.188 215V216H444.956L445.154 215.258L444.188 215ZM379.688 215L378.735 214.696L378.319 216H379.688V215ZM446.587 4.99998V3.99998H445.857L445.635 4.69645L446.587 4.99998ZM516.788 4.99998L517.74 4.69645L517.518 3.99998H516.788V4.99998ZM583.688 215V216H585.056L584.64 214.696L583.688 215ZM464.288 140L463.322 139.74L462.982 141H464.288V140ZM499.087 140V141H500.393L500.053 139.74L499.087 140ZM481.688 75.5L482.653 75.2395L481.688 71.6606L480.722 75.2395L481.688 75.5ZM520.154 214.742L512.954 187.742L511.021 188.258L518.221 215.258L520.154 214.742ZM511.988 187H451.388V189H511.988V187ZM450.421 187.742L443.221 214.742L445.154 215.258L452.354 188.258L450.421 187.742ZM444.188 214H379.688V216H444.188V214ZM380.64 215.304L447.54 5.30353L445.635 4.69645L378.735 214.696L380.64 215.304ZM446.587 5.99998H516.788V3.99998H446.587V5.99998ZM515.835 5.30353L582.735 215.304L584.64 214.696L517.74 4.69645L515.835 5.30353ZM583.688 214H519.188V216H583.688V214ZM464.288 141H499.087V139H464.288V141ZM500.053 139.74L482.653 75.2395L480.722 75.7604L498.122 140.26L500.053 139.74ZM480.722 75.2395L463.322 139.74L465.253 140.26L482.653 75.7604L480.722 75.2395ZM611.817 188.3L612.528 187.596L611.817 188.3ZM611.817 31.7L612.528 32.4037V32.4037L611.817 31.7ZM744.117 14L744.606 13.1279L744.117 14ZM782.517 51.2L783.016 52.067L783.892 51.5631L783.379 50.692L782.517 51.2ZM730.317 81.2L729.423 81.6472L729.897 82.5951L730.815 82.067L730.317 81.2ZM714.417 65L713.932 65.8742L713.932 65.8742L714.417 65ZM654.417 73.4L655.139 74.0919L654.417 73.4ZM654.417 146.6L655.139 145.908L654.417 146.6ZM714.417 155L713.932 154.126L713.921 154.132L714.417 155ZM730.317 138.5L730.815 137.633L729.886 137.099L729.418 138.063L730.317 138.5ZM782.517 168.5L783.381 169.003L783.887 168.134L783.016 167.633L782.517 168.5ZM744.117 206L744.606 206.872L744.117 206ZM690.417 218.8C659.064 218.8 633.126 208.393 612.528 187.596L611.107 189.004C632.108 210.207 658.571 220.8 690.417 220.8V218.8ZM612.528 187.596C591.924 166.795 581.617 140.953 581.617 110H579.617C579.617 141.447 590.11 167.805 611.107 189.004L612.528 187.596ZM581.617 110C581.617 79.0473 591.924 53.2052 612.528 32.4037L611.107 30.9963C590.11 52.1948 579.617 78.5527 579.617 110H581.617ZM612.528 32.4037C633.126 11.6074 659.064 1.19999 690.417 1.19999V-0.800007C658.571 -0.800007 632.108 9.79262 611.107 30.9963L612.528 32.4037ZM690.417 1.19999C709.651 1.19999 727.382 5.75869 743.628 14.8721L744.606 13.1279C728.052 3.8413 709.983 -0.800007 690.417 -0.800007V1.19999ZM743.628 14.8721C759.88 23.9892 772.549 36.2661 781.656 51.708L783.379 50.692C774.085 34.9339 761.154 22.4108 744.606 13.1279L743.628 14.8721ZM782.019 50.333L729.819 80.333L730.815 82.067L783.016 52.067L782.019 50.333ZM731.212 80.7528C727.714 73.7574 722.264 68.2151 714.903 64.1258L713.932 65.8742C720.971 69.7848 726.12 75.0426 729.423 81.6472L731.212 80.7528ZM714.903 64.1258C707.544 60.0377 699.375 58 690.417 58V60C699.059 60 706.89 61.9623 713.932 65.8742L714.903 64.1258ZM690.417 58C675.379 58 663.106 62.888 653.695 72.7081L655.139 74.0919C664.128 64.712 675.856 60 690.417 60V58ZM653.695 72.7081C644.296 82.516 639.617 94.9739 639.617 110H641.617C641.617 95.4261 646.138 83.484 655.139 74.0919L653.695 72.7081ZM639.617 110C639.617 125.026 644.296 137.484 653.695 147.292L655.139 145.908C646.138 136.516 641.617 124.574 641.617 110H639.617ZM653.695 147.292C663.106 157.112 675.379 162 690.417 162V160C675.856 160 664.128 155.288 655.139 145.908L653.695 147.292ZM690.417 162C699.571 162 707.745 159.964 714.913 155.868L713.921 154.132C707.089 158.036 699.264 160 690.417 160V162ZM714.903 155.874C722.271 151.781 727.722 146.133 731.217 138.937L729.418 138.063C726.113 144.867 720.963 150.219 713.932 154.126L714.903 155.874ZM729.819 139.367L782.019 169.367L783.016 167.633L730.815 137.633L729.819 139.367ZM781.653 167.997C772.545 183.638 759.877 196.013 743.628 205.128L744.606 206.872C761.157 197.587 774.089 184.962 783.381 169.003L781.653 167.997ZM743.628 205.128C727.382 214.241 709.651 218.8 690.417 218.8V220.8C709.983 220.8 728.052 216.159 744.606 206.872L743.628 205.128ZM943.355 199.1L944.013 199.853L943.355 199.1ZM819.755 199.1L819.097 199.853L819.755 199.1ZM796.055 4.99998V3.99998H795.055V4.99998H796.055ZM856.055 4.99998H857.055V3.99998H856.055V4.99998ZM907.055 4.99998V3.99998H906.055V4.99998H907.055ZM967.055 4.99998H968.055V3.99998H967.055V4.99998ZM942.697 198.347C927.116 211.956 906.766 218.8 881.555 218.8V220.8C907.143 220.8 927.994 213.844 944.013 199.853L942.697 198.347ZM881.555 218.8C856.343 218.8 835.994 211.956 820.413 198.347L819.097 199.853C835.116 213.844 855.966 220.8 881.555 220.8V218.8ZM820.413 198.347C804.846 184.751 797.055 166.933 797.055 144.8H795.055C795.055 167.467 803.063 185.849 819.097 199.853L820.413 198.347ZM797.055 144.8V4.99998H795.055V144.8H797.055ZM796.055 5.99998H856.055V3.99998H796.055V5.99998ZM855.055 4.99998V138.2H857.055V4.99998H855.055ZM855.055 138.2C855.055 146.177 857.232 152.338 861.754 156.487C866.259 160.621 872.921 162.6 881.555 162.6V160.6C873.189 160.6 867.1 158.679 863.106 155.013C859.127 151.362 857.055 145.823 857.055 138.2H855.055ZM881.555 162.6C890.189 162.6 896.85 160.621 901.356 156.487C905.877 152.338 908.055 146.177 908.055 138.2H906.055C906.055 145.823 903.982 151.362 900.004 155.013C896.009 158.679 889.921 160.6 881.555 160.6V162.6ZM908.055 138.2V4.99998H906.055V138.2H908.055ZM907.055 5.99998H967.055V3.99998H907.055V5.99998ZM966.055 4.99998V144.8H968.055V4.99998H966.055ZM966.055 144.8C966.055 166.933 958.263 184.751 942.697 198.347L944.013 199.853C960.046 185.849 968.055 167.467 968.055 144.8H966.055ZM1012.77 205.7L1012.24 206.546L1012.25 206.551L1012.77 205.7ZM982.172 167L981.671 166.135L980.973 166.538L981.22 167.306L982.172 167ZM1033.47 137.3L1034.4 136.934L1033.98 135.852L1032.97 136.435L1033.47 137.3ZM1090.17 147.8L1089.32 148.33L1090.17 147.8ZM1084.47 143.6L1084.08 144.519L1084.47 143.6ZM1076.97 140.9L1076.6 141.828L1076.65 141.85L1076.71 141.865L1076.97 140.9ZM1066.17 137.6L1066.43 136.634L1066.17 137.6ZM1054.47 134.3L1054.77 133.344L1054.76 133.343L1054.47 134.3ZM1012.47 19.1L1011.8 18.3567L1011.8 18.3615L1012.47 19.1ZM1115.07 12.8L1114.56 13.6575L1114.56 13.6607L1115.07 12.8ZM1146.27 49.1L1146.78 49.9634L1147.53 49.5219L1147.19 48.7145L1146.27 49.1ZM1096.47 78.2L1095.54 78.5649L1095.97 79.6531L1096.98 79.0634L1096.47 78.2ZM1055.67 59.3L1056.28 60.0927L1056.29 60.0863L1055.67 59.3ZM1058.67 77.3L1058.21 78.1866L1058.22 78.1906L1058.22 78.1944L1058.67 77.3ZM1085.97 86.6L1086.26 85.6422L1086.25 85.64L1086.24 85.6379L1085.97 86.6ZM1110.57 95.3L1110.17 96.2161L1110.18 96.2215L1110.2 96.2265L1110.57 95.3ZM1130.67 106.7L1130.09 107.514L1130.1 107.519L1130.11 107.525L1130.67 106.7ZM1146.27 125.6L1145.36 126L1145.36 126.014L1145.37 126.028L1146.27 125.6ZM1129.47 202.4L1130.09 203.183L1130.1 203.182L1129.47 202.4ZM1069.77 218.8C1047.11 218.8 1028.3 214.128 1013.3 204.85L1012.25 206.551C1027.64 216.072 1046.84 220.8 1069.77 220.8V218.8ZM1013.31 204.855C998.292 195.372 988.248 182.658 983.124 166.694L981.22 167.306C986.496 183.742 996.852 196.828 1012.24 206.545L1013.31 204.855ZM982.673 167.865L1033.97 138.165L1032.97 136.435L981.671 166.135L982.673 167.865ZM1032.54 137.666C1036.1 146.704 1041.1 153.555 1047.59 158.142C1054.09 162.731 1062 165 1071.27 165V163C1062.34 163 1054.85 160.819 1048.75 156.508C1042.64 152.195 1037.85 145.696 1034.4 136.934L1032.54 137.666ZM1071.27 165C1078.13 165 1083.42 164.098 1087.04 162.184C1088.86 161.219 1090.28 159.984 1091.24 158.458C1092.21 156.928 1092.67 155.164 1092.67 153.2H1090.67C1090.67 154.836 1090.29 156.222 1089.55 157.392C1088.81 158.566 1087.68 159.581 1086.1 160.416C1082.92 162.102 1078.02 163 1071.27 163V165ZM1092.67 153.2C1092.67 151.024 1092.13 149.039 1091.02 147.27L1089.32 148.33C1090.22 149.761 1090.67 151.376 1090.67 153.2H1092.67ZM1091.02 147.27C1089.86 145.42 1087.75 143.916 1084.87 142.681L1084.08 144.519C1086.8 145.684 1088.48 146.98 1089.32 148.33L1091.02 147.27ZM1084.87 142.681C1082.04 141.468 1079.49 140.551 1077.23 139.935L1076.71 141.865C1078.85 142.449 1081.31 143.332 1084.08 144.519L1084.87 142.681ZM1077.34 139.972C1075.28 139.147 1071.63 138.034 1066.43 136.634L1065.91 138.566C1071.11 139.966 1074.66 141.053 1076.6 141.828L1077.34 139.972ZM1066.43 136.634C1061.23 135.235 1057.35 134.139 1054.77 133.344L1054.18 135.256C1056.8 136.061 1060.71 137.165 1065.91 138.566L1066.43 136.634ZM1054.76 133.343C1033.96 127.073 1018.47 118.371 1008.18 107.294C997.911 96.2403 992.772 82.7628 992.772 66.8H990.772C990.772 83.2372 996.082 97.2097 1006.71 108.656C1017.33 120.079 1033.18 128.927 1054.18 135.257L1054.76 133.343ZM992.772 66.8C992.772 47.8722 999.56 32.2432 1013.15 19.8385L1011.8 18.3615C997.784 31.1568 990.772 47.3278 990.772 66.8H992.772ZM1013.14 19.8433C1026.92 7.44033 1044.97 1.19999 1067.37 1.19999V-0.800007C1044.58 -0.800007 1026.02 5.55965 1011.8 18.3567L1013.14 19.8433ZM1067.37 1.19999C1085.01 1.19999 1100.73 5.35906 1114.56 13.6575L1115.59 11.9425C1101.42 3.44092 1085.34 -0.800007 1067.37 -0.800007V1.19999ZM1114.56 13.6607C1128.57 21.9466 1138.83 33.8762 1145.35 49.4854L1147.19 48.7145C1140.51 32.7238 1129.97 20.4534 1115.58 11.9393L1114.56 13.6607ZM1145.77 48.2366L1095.97 77.3366L1096.98 79.0634L1146.78 49.9634L1145.77 48.2366ZM1097.4 77.8351C1094.46 70.3176 1090.51 64.5981 1085.53 60.758C1080.54 56.9088 1074.57 55 1067.67 55V57C1074.18 57 1079.7 58.7912 1084.31 62.342C1088.93 65.9019 1092.69 71.2824 1095.54 78.5649L1097.4 77.8351ZM1067.67 55C1062.35 55 1058.1 56.1242 1055.05 58.5137L1056.29 60.0863C1058.85 58.0758 1062.6 57 1067.67 57V55ZM1055.06 58.5074C1052.22 60.6911 1050.77 63.5805 1050.77 67.1H1052.77C1052.77 64.2195 1053.92 61.9089 1056.28 60.0926L1055.06 58.5074ZM1050.77 67.1C1050.77 71.947 1053.35 75.6516 1058.21 78.1866L1059.13 76.4134C1054.79 74.1484 1052.77 71.053 1052.77 67.1H1050.77ZM1058.22 78.1944C1063.12 80.6418 1072.3 83.7636 1085.7 87.5621L1086.24 85.6379C1072.84 81.8364 1063.82 78.7582 1059.12 76.4056L1058.22 78.1944ZM1085.68 87.5578C1095.66 90.5513 1103.82 93.4381 1110.17 96.2161L1110.97 94.3838C1104.52 91.5619 1096.28 88.6487 1086.26 85.6422L1085.68 87.5578ZM1110.2 96.2265C1116.51 98.7909 1123.14 102.549 1130.09 107.514L1131.25 105.886C1124.2 100.851 1117.44 97.0091 1110.95 94.3735L1110.2 96.2265ZM1130.11 107.525C1136.95 112.218 1142.03 118.371 1145.36 126L1147.19 125.2C1143.71 117.229 1138.39 110.782 1131.24 105.875L1130.11 107.525ZM1145.37 126.028C1148.89 133.466 1150.67 142.314 1150.67 152.6H1152.67C1152.67 142.086 1150.85 132.934 1147.18 125.172L1145.37 126.028ZM1150.67 152.6C1150.67 173.741 1143.38 190.034 1128.85 201.618L1130.1 203.182C1145.17 191.166 1152.67 174.259 1152.67 152.6H1150.67ZM1128.85 201.617C1114.48 213.034 1094.82 218.8 1069.77 218.8V220.8C1095.12 220.8 1115.26 214.966 1130.09 203.183L1128.85 201.617ZM165 305H166V304H165V305ZM165 363.2V364.2H166V363.2H165ZM115.5 363.2V362.2H114.5V363.2H115.5ZM115.5 515V516H116.5V515H115.5ZM55.5 515H54.5V516H55.5V515ZM55.5 363.2H56.5V362.2H55.5V363.2ZM6 363.2H5V364.2H6V363.2ZM6 305V304H5V305H6ZM164 305V363.2H166V305H164ZM165 362.2H115.5V364.2H165V362.2ZM114.5 363.2V515H116.5V363.2H114.5ZM115.5 514H55.5V516H115.5V514ZM56.5 515V363.2H54.5V515H56.5ZM55.5 362.2H6V364.2H55.5V362.2ZM7 363.2V305H5V363.2H7ZM6 306H165V304H6V306ZM242.941 459.8H241.941V460.8H242.941V459.8ZM320.941 459.8H321.941V458.8H320.941V459.8ZM320.941 515V516H321.941V515H320.941ZM182.941 515H181.941V516H182.941V515ZM182.941 305V304H181.941V305H182.941ZM319.441 305H320.441V304H319.441V305ZM319.441 359.6V360.6H320.441V359.6H319.441ZM242.941 359.6V358.6H241.941V359.6H242.941ZM242.941 382.4H241.941V383.4H242.941V382.4ZM311.941 382.4H312.941V381.4H311.941V382.4ZM311.941 436.4V437.4H312.941V436.4H311.941ZM242.941 436.4V435.4H241.941V436.4H242.941ZM242.941 460.8H320.941V458.8H242.941V460.8ZM319.941 459.8V515H321.941V459.8H319.941ZM320.941 514H182.941V516H320.941V514ZM183.941 515V305H181.941V515H183.941ZM182.941 306H319.441V304H182.941V306ZM318.441 305V359.6H320.441V305H318.441ZM319.441 358.6H242.941V360.6H319.441V358.6ZM241.941 359.6V382.4H243.941V359.6H241.941ZM242.941 383.4H311.941V381.4H242.941V383.4ZM310.941 382.4V436.4H312.941V382.4H310.941ZM311.941 435.4H242.941V437.4H311.941V435.4ZM241.941 436.4V459.8H243.941V436.4H241.941ZM469.383 515L468.417 515.258L468.615 516H469.383V515ZM462.183 488L463.149 487.742L462.951 487H462.183V488ZM401.583 488V487H400.815L400.617 487.742L401.583 488ZM394.383 515V516H395.151L395.349 515.258L394.383 515ZM329.883 515L328.93 514.696L328.515 516H329.883V515ZM396.783 305V304H396.052L395.83 304.696L396.783 305ZM466.983 305L467.936 304.696L467.714 304H466.983V305ZM533.883 515V516H535.251L534.836 514.696L533.883 515ZM414.483 440L413.517 439.74L413.177 441H414.483V440ZM449.283 440V441H450.588L450.248 439.74L449.283 440ZM431.883 375.5L432.848 375.24L431.883 371.661L430.917 375.24L431.883 375.5ZM470.349 514.742L463.149 487.742L461.217 488.258L468.417 515.258L470.349 514.742ZM462.183 487H401.583V489H462.183V487ZM400.617 487.742L393.417 514.742L395.349 515.258L402.549 488.258L400.617 487.742ZM394.383 514H329.883V516H394.383V514ZM330.836 515.304L397.736 305.304L395.83 304.696L328.93 514.696L330.836 515.304ZM396.783 306H466.983V304H396.783V306ZM466.03 305.304L532.93 515.304L534.836 514.696L467.936 304.696L466.03 305.304ZM533.883 514H469.383V516H533.883V514ZM414.483 441H449.283V439H414.483V441ZM450.248 439.74L432.848 375.24L430.917 375.76L448.317 440.26L450.248 439.74ZM430.917 375.24L413.517 439.74L415.448 440.26L432.848 375.76L430.917 375.24ZM562.013 488.3L562.723 487.596L562.013 488.3ZM562.013 331.7L562.723 332.404L562.013 331.7ZM694.312 314L694.802 313.128L694.312 314ZM732.713 351.2L733.211 352.067L734.088 351.563L733.574 350.692L732.713 351.2ZM680.513 381.2L679.618 381.647L680.092 382.595L681.011 382.067L680.513 381.2ZM664.612 365L664.127 365.874H664.127L664.612 365ZM604.612 373.4L605.334 374.092L604.612 373.4ZM604.612 446.6L605.334 445.908L604.612 446.6ZM664.612 455L664.127 454.126L664.116 454.132L664.612 455ZM680.513 438.5L681.011 437.633L680.081 437.099L679.613 438.063L680.513 438.5ZM732.713 468.5L733.577 469.003L734.083 468.134L733.211 467.633L732.713 468.5ZM694.312 506L694.802 506.872L694.312 506ZM640.612 518.8C609.259 518.8 583.321 508.393 562.723 487.596L561.302 489.004C582.304 510.207 608.766 520.8 640.612 520.8V518.8ZM562.723 487.596C542.12 466.795 531.812 440.953 531.812 410H529.812C529.812 441.447 540.305 467.805 561.302 489.004L562.723 487.596ZM531.812 410C531.812 379.047 542.12 353.205 562.723 332.404L561.302 330.996C540.305 352.195 529.812 378.553 529.812 410H531.812ZM562.723 332.404C583.321 311.607 609.259 301.2 640.612 301.2V299.2C608.766 299.2 582.304 309.793 561.302 330.996L562.723 332.404ZM640.612 301.2C659.847 301.2 677.578 305.759 693.823 314.872L694.802 313.128C678.247 303.841 660.178 299.2 640.612 299.2V301.2ZM693.823 314.872C710.075 323.989 722.744 336.266 731.851 351.708L733.574 350.692C724.281 334.934 711.35 322.411 694.802 313.128L693.823 314.872ZM732.214 350.333L680.014 380.333L681.011 382.067L733.211 352.067L732.214 350.333ZM681.407 380.753C677.909 373.757 672.459 368.215 665.098 364.126L664.127 365.874C671.166 369.785 676.316 375.043 679.618 381.647L681.407 380.753ZM665.098 364.126C657.739 360.038 649.57 358 640.612 358V360C649.255 360 657.086 361.962 664.127 365.874L665.098 364.126ZM640.612 358C625.574 358 613.301 362.888 603.891 372.708L605.334 374.092C614.324 364.712 626.051 360 640.612 360V358ZM603.891 372.708C594.491 382.516 589.812 394.974 589.812 410H591.812C591.812 395.426 596.334 383.484 605.334 374.092L603.891 372.708ZM589.812 410C589.812 425.026 594.491 437.484 603.891 447.292L605.334 445.908C596.334 436.516 591.812 424.574 591.812 410H589.812ZM603.891 447.292C613.301 457.112 625.574 462 640.612 462V460C626.051 460 614.324 455.288 605.334 445.908L603.891 447.292ZM640.612 462C649.766 462 657.941 459.964 665.109 455.868L664.116 454.132C657.284 458.036 649.459 460 640.612 460V462ZM665.098 455.874C672.467 451.781 677.917 446.133 681.412 438.937L679.613 438.063C676.308 444.867 671.158 450.219 664.127 454.126L665.098 455.874ZM680.014 439.367L732.214 469.367L733.211 467.633L681.011 437.633L680.014 439.367ZM731.848 467.997C722.741 483.638 710.072 496.013 693.823 505.128L694.802 506.872C711.353 497.587 724.284 484.962 733.577 469.003L731.848 467.997ZM693.823 505.128C677.578 514.241 659.847 518.8 640.612 518.8V520.8C660.178 520.8 678.247 516.159 694.802 506.872L693.823 505.128ZM858.785 305V304H857.785V305H858.785ZM918.785 305H919.785V304H918.785V305ZM918.785 515V516H919.785V515H918.785ZM858.785 515H857.785V516H858.785V515ZM858.785 437.6H859.785V436.6H858.785V437.6ZM807.785 437.6V436.6H806.785V437.6H807.785ZM807.785 515V516H808.785V515H807.785ZM747.785 515H746.785V516H747.785V515ZM747.785 305V304H746.785V305H747.785ZM807.785 305H808.785V304H807.785V305ZM807.785 379.4H806.785V380.4H807.785V379.4ZM858.785 379.4V380.4H859.785V379.4H858.785ZM858.785 306H918.785V304H858.785V306ZM917.785 305V515H919.785V305H917.785ZM918.785 514H858.785V516H918.785V514ZM859.785 515V437.6H857.785V515H859.785ZM858.785 436.6H807.785V438.6H858.785V436.6ZM806.785 437.6V515H808.785V437.6H806.785ZM807.785 514H747.785V516H807.785V514ZM748.785 515V305H746.785V515H748.785ZM747.785 306H807.785V304H747.785V306ZM806.785 305V379.4H808.785V305H806.785ZM807.785 380.4H858.785V378.4H807.785V380.4ZM859.785 379.4V305H857.785V379.4H859.785ZM1008.76 459.8H1007.76V460.8H1008.76V459.8ZM1086.76 459.8H1087.76V458.8H1086.76V459.8ZM1086.76 515V516H1087.76V515H1086.76ZM948.762 515H947.762V516H948.762V515ZM948.762 305V304H947.762V305H948.762ZM1085.26 305H1086.26V304H1085.26V305ZM1085.26 359.6V360.6H1086.26V359.6H1085.26ZM1008.76 359.6V358.6H1007.76V359.6H1008.76ZM1008.76 382.4H1007.76V383.4H1008.76V382.4ZM1077.76 382.4H1078.76V381.4H1077.76V382.4ZM1077.76 436.4V437.4H1078.76V436.4H1077.76ZM1008.76 436.4V435.4H1007.76V436.4H1008.76ZM1008.76 460.8H1086.76V458.8H1008.76V460.8ZM1085.76 459.8V515H1087.76V459.8H1085.76ZM1086.76 514H948.762V516H1086.76V514ZM949.762 515V305H947.762V515H949.762ZM948.762 306H1085.26V304H948.762V306ZM1084.26 305V359.6H1086.26V305H1084.26ZM1085.26 358.6H1008.76V360.6H1085.26V358.6ZM1007.76 359.6V382.4H1009.76V359.6H1007.76ZM1008.76 383.4H1077.76V381.4H1008.76V383.4ZM1076.76 382.4V436.4H1078.76V382.4H1076.76ZM1077.76 435.4H1008.76V437.4H1077.76V435.4ZM1007.76 436.4V459.8H1009.76V436.4H1007.76ZM1219.07 514.7L1218.18 515.15L1218.46 515.7H1219.07V514.7ZM1185.77 448.7L1186.67 448.25L1186.39 447.7H1185.77V448.7ZM1170.77 448.7V447.7H1169.77V448.7H1170.77ZM1170.77 514.7V515.7H1171.77V514.7H1170.77ZM1110.77 514.7H1109.77V515.7H1110.77V514.7ZM1110.77 304.7V303.7H1109.77V304.7H1110.77ZM1251.77 325.1L1251.1 325.841L1251.11 325.846L1251.77 325.1ZM1265.57 412.1L1264.71 411.598L1264.7 411.605L1264.7 411.611L1265.57 412.1ZM1241.87 436.4L1241.35 435.545L1240.55 436.035L1240.99 436.867L1241.87 436.4ZM1283.27 514.7V515.7H1284.93L1284.16 514.233L1283.27 514.7ZM1170.77 359.9V358.9H1169.77V359.9H1170.77ZM1170.77 398.9H1169.77V399.9H1170.77V398.9ZM1193.57 398.9L1193.6 397.9L1193.59 397.9H1193.57V398.9ZM1208.57 394.1L1207.91 393.355L1207.9 393.364L1207.89 393.373L1208.57 394.1ZM1208.57 365.3L1207.87 366.007L1207.89 366.027L1207.91 366.045L1208.57 365.3ZM1219.97 514.25L1186.67 448.25L1184.88 449.15L1218.18 515.15L1219.97 514.25ZM1185.77 447.7H1170.77V449.7H1185.77V447.7ZM1169.77 448.7V514.7H1171.77V448.7H1169.77ZM1170.77 513.7H1110.77V515.7H1170.77V513.7ZM1111.77 514.7V304.7H1109.77V514.7H1111.77ZM1110.77 305.7H1194.77V303.7H1110.77V305.7ZM1194.77 305.7C1217.56 305.7 1236.31 312.43 1251.1 325.841L1252.45 324.359C1237.24 310.57 1217.99 303.7 1194.77 303.7V305.7ZM1251.11 325.846C1265.87 339.035 1273.27 356.552 1273.27 378.5H1275.27C1275.27 356.048 1267.68 337.965 1252.44 324.354L1251.11 325.846ZM1273.27 378.5C1273.27 390.737 1270.41 401.762 1264.71 411.598L1266.44 412.602C1272.33 402.438 1275.27 391.063 1275.27 378.5H1273.27ZM1264.7 411.611C1259.19 421.455 1251.41 429.431 1241.35 435.545L1242.39 437.255C1252.73 430.969 1260.76 422.745 1266.45 412.589L1264.7 411.611ZM1240.99 436.867L1282.39 515.167L1284.16 514.233L1242.76 435.933L1240.99 436.867ZM1283.27 513.7H1219.07V515.7H1283.27V513.7ZM1169.77 359.9V398.9H1171.77V359.9H1169.77ZM1170.77 399.9H1193.57V397.9H1170.77V399.9ZM1193.54 399.9C1200.13 400.105 1205.41 398.459 1209.26 394.827L1207.89 393.373C1204.53 396.541 1199.82 398.095 1193.6 397.9L1193.54 399.9ZM1209.24 394.845C1213.3 391.215 1215.27 386.118 1215.27 379.7H1213.27C1213.27 385.682 1211.45 390.185 1207.91 393.355L1209.24 394.845ZM1215.27 379.7C1215.27 373.282 1213.3 368.185 1209.24 364.555L1207.91 366.045C1211.45 369.215 1213.27 373.718 1213.27 379.7H1215.27ZM1209.28 364.593C1205.45 360.76 1200.17 358.9 1193.57 358.9V360.9C1199.78 360.9 1204.5 362.64 1207.87 366.007L1209.28 364.593ZM1193.57 358.9H1170.77V360.9H1193.57V358.9ZM165 605H166V604H165V605ZM165 663.2V664.2H166V663.2H165ZM115.5 663.2V662.2H114.5V663.2H115.5ZM115.5 815V816H116.5V815H115.5ZM55.5 815H54.5V816H55.5V815ZM55.5 663.2H56.5V662.2H55.5V663.2ZM6 663.2H5V664.2H6V663.2ZM6 605V604H5V605H6ZM164 605V663.2H166V605H164ZM165 662.2H115.5V664.2H165V662.2ZM114.5 663.2V815H116.5V663.2H114.5ZM115.5 814H55.5V816H115.5V814ZM56.5 815V663.2H54.5V815H56.5ZM55.5 662.2H6V664.2H55.5V662.2ZM7 663.2V605H5V663.2H7ZM6 606H165V604H6V606ZM291.241 814.7L290.349 815.15L290.626 815.7H291.241V814.7ZM257.941 748.7L258.834 748.25L258.557 747.7H257.941V748.7ZM242.941 748.7V747.7H241.941V748.7H242.941ZM242.941 814.7V815.7H243.941V814.7H242.941ZM182.941 814.7H181.941V815.7H182.941V814.7ZM182.941 604.7V603.7H181.941V604.7H182.941ZM323.941 625.1L323.27 625.841L323.275 625.846L323.941 625.1ZM337.741 712.1L336.876 711.598L336.873 711.605L336.869 711.611L337.741 712.1ZM314.041 736.4L313.522 735.545L312.717 736.035L313.157 736.867L314.041 736.4ZM355.441 814.7V815.7H357.101L356.325 814.233L355.441 814.7ZM242.941 659.9V658.9H241.941V659.9H242.941ZM242.941 698.9H241.941V699.9H242.941V698.9ZM265.741 698.9L265.773 697.9L265.757 697.9H265.741V698.9ZM280.741 694.1L280.075 693.355L280.065 693.364L280.055 693.373L280.741 694.1ZM280.741 665.3L280.034 666.007L280.054 666.027L280.075 666.045L280.741 665.3ZM292.134 814.25L258.834 748.25L257.049 749.15L290.349 815.15L292.134 814.25ZM257.941 747.7H242.941V749.7H257.941V747.7ZM241.941 748.7V814.7H243.941V748.7H241.941ZM242.941 813.7H182.941V815.7H242.941V813.7ZM183.941 814.7V604.7H181.941V814.7H183.941ZM182.941 605.7H266.941V603.7H182.941V605.7ZM266.941 605.7C289.729 605.7 308.479 612.43 323.27 625.841L324.613 624.359C309.404 610.57 290.154 603.7 266.941 603.7V605.7ZM323.275 625.846C338.039 639.035 345.441 656.552 345.441 678.5H347.441C347.441 656.048 339.843 637.965 324.608 624.354L323.275 625.846ZM345.441 678.5C345.441 690.737 342.582 701.762 336.876 711.598L338.606 712.602C344.501 702.438 347.441 691.063 347.441 678.5H345.441ZM336.869 711.611C331.357 721.455 323.581 729.431 313.522 735.545L314.561 737.255C324.902 730.969 332.926 722.745 338.614 712.589L336.869 711.611ZM313.157 736.867L354.557 815.167L356.325 814.233L314.925 735.933L313.157 736.867ZM355.441 813.7H291.241V815.7H355.441V813.7ZM241.941 659.9V698.9H243.941V659.9H241.941ZM242.941 699.9H265.741V697.9H242.941V699.9ZM265.71 699.899C272.295 700.105 277.582 698.459 281.428 694.827L280.055 693.373C276.7 696.541 271.988 698.095 265.773 697.9L265.71 699.899ZM281.408 694.845C285.465 691.215 287.441 686.118 287.441 679.7H285.441C285.441 685.682 283.618 690.185 280.075 693.355L281.408 694.845ZM287.441 679.7C287.441 673.282 285.465 668.185 281.408 664.555L280.075 666.045C283.618 669.215 285.441 673.718 285.441 679.7H287.441ZM281.449 664.593C277.616 660.76 272.335 658.9 265.741 658.9V660.9C271.948 660.9 276.667 662.64 280.034 666.007L281.449 664.593ZM265.741 658.9H242.941V660.9H265.741V658.9ZM497.801 815L496.835 815.258L497.033 816H497.801V815ZM490.601 788L491.567 787.742L491.369 787H490.601V788ZM430.001 788V787H429.233L429.035 787.742L430.001 788ZM422.801 815V816H423.569L423.767 815.258L422.801 815ZM358.301 815L357.348 814.696L356.933 816H358.301V815ZM425.201 605V604H424.47L424.248 604.696L425.201 605ZM495.401 605L496.354 604.696L496.132 604H495.401V605ZM562.301 815V816H563.669L563.254 814.696L562.301 815ZM442.901 740L441.935 739.74L441.595 741H442.901V740ZM477.701 740V741H479.006L478.666 739.74L477.701 740ZM460.301 675.5L461.266 675.24L460.301 671.661L459.335 675.24L460.301 675.5ZM498.767 814.742L491.567 787.742L489.635 788.258L496.835 815.258L498.767 814.742ZM490.601 787H430.001V789H490.601V787ZM429.035 787.742L421.835 814.742L423.767 815.258L430.967 788.258L429.035 787.742ZM422.801 814H358.301V816H422.801V814ZM359.254 815.304L426.154 605.304L424.248 604.696L357.348 814.696L359.254 815.304ZM425.201 606H495.401V604H425.201V606ZM494.448 605.304L561.348 815.304L563.254 814.696L496.354 604.696L494.448 605.304ZM562.301 814H497.801V816H562.301V814ZM442.901 741H477.701V739H442.901V741ZM478.666 739.74L461.266 675.24L459.335 675.76L476.735 740.26L478.666 739.74ZM459.335 675.24L441.935 739.74L443.866 740.26L461.266 675.76L459.335 675.24ZM574.348 605V604H573.348V605H574.348ZM634.348 605H635.348V604H634.348V605ZM634.348 815V816H635.348V815H634.348ZM574.348 815H573.348V816H574.348V815ZM574.348 606H634.348V604H574.348V606ZM633.348 605V815H635.348V605H633.348ZM634.348 814H574.348V816H634.348V814ZM575.348 815V605H573.348V815H575.348ZM778.289 605V604H777.289V605H778.289ZM838.289 605H839.289V604H838.289V605ZM838.289 815V816H839.289V815H838.289ZM790.289 815L789.465 815.567L789.763 816H790.289V815ZM724.289 719L725.113 718.433L723.289 715.78V719H724.289ZM724.289 815V816H725.289V815H724.289ZM664.289 815H663.289V816H664.289V815ZM664.289 605V604H663.289V605H664.289ZM712.289 605L713.113 604.433L712.815 604H712.289V605ZM778.289 701L777.465 701.567L779.289 704.22V701H778.289ZM778.289 606H838.289V604H778.289V606ZM837.289 605V815H839.289V605H837.289ZM838.289 814H790.289V816H838.289V814ZM791.113 814.433L725.113 718.433L723.465 719.567L789.465 815.567L791.113 814.433ZM723.289 719V815H725.289V719H723.289ZM724.289 814H664.289V816H724.289V814ZM665.289 815V605H663.289V815H665.289ZM664.289 606H712.289V604H664.289V606ZM711.465 605.567L777.465 701.567L779.113 700.433L713.113 604.433L711.465 605.567ZM779.289 701V605H777.289V701H779.289ZM868.195 605V604H867.195V605H868.195ZM928.195 605H929.195V604H928.195V605ZM928.195 815V816H929.195V815H928.195ZM868.195 815H867.195V816H868.195V815ZM868.195 606H928.195V604H868.195V606ZM927.195 605V815H929.195V605H927.195ZM928.195 814H868.195V816H928.195V814ZM869.195 815V605H867.195V815H869.195ZM1072.14 605V604H1071.14V605H1072.14ZM1132.14 605H1133.14V604H1132.14V605ZM1132.14 815V816H1133.14V815H1132.14ZM1084.14 815L1083.31 815.567L1083.61 816H1084.14V815ZM1018.14 719L1018.96 718.433L1017.14 715.78V719H1018.14ZM1018.14 815V816H1019.14V815H1018.14ZM958.137 815H957.137V816H958.137V815ZM958.137 605V604H957.137V605H958.137ZM1006.14 605L1006.96 604.433L1006.66 604H1006.14V605ZM1072.14 701L1071.31 701.567L1073.14 704.22V701H1072.14ZM1072.14 606H1132.14V604H1072.14V606ZM1131.14 605V815H1133.14V605H1131.14ZM1132.14 814H1084.14V816H1132.14V814ZM1084.96 814.433L1018.96 718.433L1017.31 719.567L1083.31 815.567L1084.96 814.433ZM1017.14 719V815H1019.14V719H1017.14ZM1018.14 814H958.137V816H1018.14V814ZM959.137 815V605H957.137V815H959.137ZM958.137 606H1006.14V604H958.137V606ZM1005.31 605.567L1071.31 701.567L1072.96 700.433L1006.96 604.433L1005.31 605.567ZM1073.14 701V605H1071.14V701H1073.14ZM1371.14 691.1H1372.14V690.1H1371.14V691.1ZM1342.04 790.4L1341.33 789.697L1341.33 789.7L1342.04 790.4ZM1185.74 788.6L1185.03 789.304L1185.04 789.307L1185.74 788.6ZM1185.74 632L1186.45 632.704L1186.46 632.7L1185.74 632ZM1317.44 613.4L1316.97 614.279L1316.97 614.281L1317.44 613.4ZM1356.14 649.1L1356.64 649.969L1357.54 649.452L1356.99 648.569L1356.14 649.1ZM1305.14 678.2L1304.31 678.749L1304.82 679.534L1305.64 679.069L1305.14 678.2ZM1228.34 673.4L1227.63 672.7L1227.62 672.708L1228.34 673.4ZM1227.44 748.4L1226.66 749.023L1226.67 749.03L1227.44 748.4ZM1309.04 742.1L1309.95 742.528L1310.62 741.1H1309.04V742.1ZM1264.34 742.1H1263.34V743.1H1264.34V742.1ZM1264.34 691.1V690.1H1263.34V691.1H1264.34ZM1370.14 691.1V716H1372.14V691.1H1370.14ZM1370.14 716C1370.14 745.762 1360.53 770.301 1341.33 789.697L1342.75 791.103C1362.36 771.299 1372.14 746.238 1372.14 716H1370.14ZM1341.33 789.7C1322.34 809.08 1297.32 818.8 1266.14 818.8V820.8C1297.77 820.8 1323.34 810.92 1342.76 791.1L1341.33 789.7ZM1266.14 818.8C1233.57 818.8 1207.04 808.483 1186.45 787.893L1185.04 789.307C1206.05 810.317 1233.11 820.8 1266.14 820.8V818.8ZM1186.45 787.896C1165.85 767.095 1155.54 741.253 1155.54 710.3H1153.54C1153.54 741.747 1164.04 768.105 1185.03 789.304L1186.45 787.896ZM1155.54 710.3C1155.54 679.347 1165.85 653.505 1186.45 632.704L1185.03 631.296C1164.04 652.495 1153.54 678.853 1153.54 710.3H1155.54ZM1186.46 632.7C1207.06 611.703 1232.8 601.2 1263.74 601.2V599.2C1232.29 599.2 1206.03 609.897 1185.03 631.3L1186.46 632.7ZM1263.74 601.2C1283.19 601.2 1300.92 605.563 1316.97 614.279L1317.92 612.521C1301.56 603.637 1283.5 599.2 1263.74 599.2V601.2ZM1316.97 614.281C1333.23 623.003 1345.99 634.786 1355.3 649.631L1356.99 648.569C1347.49 633.414 1334.46 621.397 1317.92 612.519L1316.97 614.281ZM1355.65 648.231L1304.65 677.331L1305.64 679.069L1356.64 649.969L1355.65 648.231ZM1305.98 677.651C1297.35 664.51 1283.6 658 1264.94 658V660C1283.08 660 1296.13 666.29 1304.31 678.749L1305.98 677.651ZM1264.94 658C1249.71 658 1237.24 662.885 1227.63 672.7L1229.06 674.1C1238.25 664.715 1250.18 660 1264.94 660V658ZM1227.62 672.708C1218.22 682.521 1213.54 695.182 1213.54 710.6H1215.54C1215.54 695.618 1220.07 683.479 1229.06 674.092L1227.62 672.708ZM1213.54 710.6C1213.54 725.216 1217.91 738.038 1226.66 749.023L1228.23 747.777C1219.77 737.162 1215.54 724.784 1215.54 710.6H1213.54ZM1226.67 749.03C1235.51 759.934 1249.14 765.3 1267.34 765.3V763.3C1249.54 763.3 1236.57 758.066 1228.22 747.77L1226.67 749.03ZM1267.34 765.3C1277.86 765.3 1286.7 763.43 1293.84 759.633C1300.99 755.827 1306.36 750.114 1309.95 742.528L1308.14 741.672C1304.73 748.886 1299.65 754.273 1292.9 757.867C1286.13 761.47 1277.63 763.3 1267.34 763.3V765.3ZM1309.04 741.1H1264.34V743.1H1309.04V741.1ZM1265.34 742.1V691.1H1263.34V742.1H1265.34ZM1264.34 692.1H1371.14V690.1H1264.34V692.1Z" fill="#E2EBF4" mask="url(#path-1-outside-1_1629_3144)"/>
</svg>
