<svg width="376" height="342" viewBox="0 0 376 342" fill="none" xmlns="http://www.w3.org/2000/svg">
<g filter="url(#filter0_d_2133_2)">
<rect x="38" y="24" width="300" height="266" rx="30" fill="#6173FD"/>
<rect x="34" y="20" width="308" height="274" rx="34" stroke="white" stroke-width="8"/>
</g>
<path d="M92.862 78.348C95.5607 79.9427 96.91 82.35 96.91 85.57C96.91 88.422 95.9287 90.7067 93.966 92.424C92.0033 94.1413 89.3813 95 86.1 95H72.53V62.8H85.226C88.446 62.8 91.022 63.628 92.954 65.284C94.886 66.9093 95.852 69.1327 95.852 71.954C95.852 74.6527 94.8553 76.784 92.862 78.348ZM84.996 70.16H80.764V75.22H84.996C85.732 75.22 86.3453 75.0053 86.836 74.576C87.3573 74.116 87.618 73.4873 87.618 72.69C87.618 71.9233 87.3727 71.31 86.882 70.85C86.3913 70.39 85.7627 70.16 84.996 70.16ZM85.87 87.64C86.698 87.64 87.3727 87.3947 87.894 86.904C88.4153 86.3827 88.676 85.7233 88.676 84.926C88.676 84.098 88.4153 83.4387 87.894 82.948C87.3727 82.4573 86.698 82.212 85.87 82.212H80.764V87.64H85.87ZM111.507 95.644C108.103 95.644 105.205 94.4787 102.813 92.148C100.421 89.7867 99.2251 86.904 99.2251 83.5C99.2251 80.096 100.421 77.2287 102.813 74.898C105.205 72.5367 108.103 71.356 111.507 71.356C114.942 71.356 117.84 72.5367 120.201 74.898C122.593 77.2287 123.789 80.096 123.789 83.5C123.789 86.904 122.593 89.7867 120.201 92.148C117.84 94.4787 114.942 95.644 111.507 95.644ZM111.507 88.284C112.856 88.284 113.96 87.8393 114.819 86.95C115.708 86.0607 116.153 84.9107 116.153 83.5C116.153 82.0893 115.708 80.9393 114.819 80.05C113.96 79.1607 112.856 78.716 111.507 78.716C110.188 78.716 109.084 79.1607 108.195 80.05C107.336 80.9393 106.907 82.0893 106.907 83.5C106.907 84.9107 107.336 86.0607 108.195 86.95C109.084 87.8393 110.188 88.284 111.507 88.284ZM138.325 95.644C134.921 95.644 132.023 94.4787 129.631 92.148C127.239 89.7867 126.043 86.904 126.043 83.5C126.043 80.096 127.239 77.2287 129.631 74.898C132.023 72.5367 134.921 71.356 138.325 71.356C141.76 71.356 144.658 72.5367 147.019 74.898C149.411 77.2287 150.607 80.096 150.607 83.5C150.607 86.904 149.411 89.7867 147.019 92.148C144.658 94.4787 141.76 95.644 138.325 95.644ZM138.325 88.284C139.675 88.284 140.779 87.8393 141.637 86.95C142.527 86.0607 142.971 84.9107 142.971 83.5C142.971 82.0893 142.527 80.9393 141.637 80.05C140.779 79.1607 139.675 78.716 138.325 78.716C137.007 78.716 135.903 79.1607 135.013 80.05C134.155 80.9393 133.725 82.0893 133.725 83.5C133.725 84.9107 134.155 86.0607 135.013 86.95C135.903 87.8393 137.007 88.284 138.325 88.284ZM176.69 95H168.134L161.602 85.202V95H153.966V62.8H161.602V81.614L167.536 72H176.368L168.64 83.5L176.69 95ZM209.283 95L207.903 90.354H197.185L195.805 95H186.881L197.507 62.8H207.535L218.161 95H209.283ZM199.301 83.27H205.787L202.521 72.322L199.301 83.27ZM92.31 114.758H80.764V120.002H92.08V127.96H80.764V139H72.53V106.8H92.31V114.758ZM103.653 120.278C104.082 118.775 104.941 117.61 106.229 116.782C107.517 115.954 108.958 115.54 110.553 115.54V124.004C108.805 123.728 107.21 124.05 105.769 124.97C104.358 125.89 103.653 127.393 103.653 129.478V139H96.0166V116H103.653V120.278ZM119.67 130.306C120.437 132.177 122.154 133.112 124.822 133.112C126.478 133.112 127.874 132.575 129.008 131.502L134.528 135.366C132.259 138.218 128.962 139.644 124.638 139.644C120.744 139.644 117.616 138.509 115.254 136.24C112.924 133.94 111.758 131.042 111.758 127.546C111.758 124.081 112.908 121.183 115.208 118.852C117.508 116.521 120.437 115.356 123.994 115.356C127.429 115.356 130.266 116.506 132.504 118.806C134.743 121.106 135.862 123.989 135.862 127.454C135.862 128.466 135.755 129.417 135.54 130.306H119.67ZM119.578 125.016H128.41C127.797 122.869 126.356 121.796 124.086 121.796C121.725 121.796 120.222 122.869 119.578 125.016ZM145.86 130.306C146.626 132.177 148.344 133.112 151.012 133.112C152.668 133.112 154.063 132.575 155.198 131.502L160.718 135.366C158.448 138.218 155.152 139.644 150.828 139.644C146.933 139.644 143.805 138.509 141.444 136.24C139.113 133.94 137.948 131.042 137.948 127.546C137.948 124.081 139.098 121.183 141.398 118.852C143.698 116.521 146.626 115.356 150.184 115.356C153.618 115.356 156.455 116.506 158.694 118.806C160.932 121.106 162.052 123.989 162.052 127.454C162.052 128.466 161.944 129.417 161.73 130.306H145.86ZM145.768 125.016H154.6C153.986 122.869 152.545 121.796 150.276 121.796C147.914 121.796 146.412 122.869 145.768 125.016ZM189.185 106.8C193.632 106.8 197.342 108.349 200.317 111.446C203.322 114.513 204.825 118.331 204.825 122.9C204.825 127.469 203.322 131.303 200.317 134.4C197.342 137.467 193.632 139 189.185 139H176.075V106.8H189.185ZM189.185 131.042C191.424 131.042 193.248 130.306 194.659 128.834C196.07 127.331 196.775 125.353 196.775 122.9C196.775 120.447 196.07 118.484 194.659 117.012C193.248 115.509 191.424 114.758 189.185 114.758H184.539V131.042H189.185ZM215.129 130.306C215.896 132.177 217.613 133.112 220.281 133.112C221.937 133.112 223.333 132.575 224.467 131.502L229.987 135.366C227.718 138.218 224.421 139.644 220.097 139.644C216.203 139.644 213.075 138.509 210.713 136.24C208.383 133.94 207.217 131.042 207.217 127.546C207.217 124.081 208.367 121.183 210.667 118.852C212.967 116.521 215.896 115.356 219.453 115.356C222.888 115.356 225.725 116.506 227.963 118.806C230.202 121.106 231.321 123.989 231.321 127.454C231.321 128.466 231.214 129.417 230.999 130.306H215.129ZM215.037 125.016H223.869C223.256 122.869 221.815 121.796 219.545 121.796C217.184 121.796 215.681 122.869 215.037 125.016ZM261.005 115.356C263.673 115.356 265.773 116.215 267.307 117.932C268.871 119.619 269.653 121.949 269.653 124.924V139H261.971V125.798C261.971 123.651 261.02 122.578 259.119 122.578C258.076 122.578 257.279 122.931 256.727 123.636C256.205 124.311 255.945 125.246 255.945 126.442V139H248.309V125.798C248.309 123.651 247.343 122.578 245.411 122.578C244.368 122.578 243.571 122.931 243.019 123.636C242.497 124.311 242.237 125.246 242.237 126.442V139H234.601V116H242.237V118.162C243.647 116.291 245.717 115.356 248.447 115.356C251.084 115.356 253.047 116.337 254.335 118.3C255.929 116.337 258.153 115.356 261.005 115.356ZM284.906 139.644C281.502 139.644 278.604 138.479 276.212 136.148C273.82 133.787 272.624 130.904 272.624 127.5C272.624 124.096 273.82 121.229 276.212 118.898C278.604 116.537 281.502 115.356 284.906 115.356C288.34 115.356 291.238 116.537 293.6 118.898C295.992 121.229 297.188 124.096 297.188 127.5C297.188 130.904 295.992 133.787 293.6 136.148C291.238 138.479 288.34 139.644 284.906 139.644ZM284.906 132.284C286.255 132.284 287.359 131.839 288.218 130.95C289.107 130.061 289.552 128.911 289.552 127.5C289.552 126.089 289.107 124.939 288.218 124.05C287.359 123.161 286.255 122.716 284.906 122.716C283.587 122.716 282.483 123.161 281.594 124.05C280.735 124.939 280.306 126.089 280.306 127.5C280.306 128.911 280.735 130.061 281.594 130.95C282.483 131.839 283.587 132.284 284.906 132.284ZM88.078 183.69C83.2327 183.69 79.2153 182.095 76.026 178.906C72.8673 175.686 71.288 171.684 71.288 166.9C71.288 162.116 72.8673 158.129 76.026 154.94C79.2153 151.72 83.2327 150.11 88.078 150.11C90.9913 150.11 93.69 150.8 96.174 152.18C98.658 153.56 100.605 155.415 102.016 157.746L94.886 161.84C94.2727 160.705 93.3527 159.816 92.126 159.172C90.93 158.497 89.5807 158.16 88.078 158.16C85.502 158.16 83.4167 158.973 81.822 160.598C80.258 162.193 79.476 164.293 79.476 166.9C79.476 169.507 80.258 171.623 81.822 173.248C83.4167 174.843 85.502 175.64 88.078 175.64C89.5807 175.64 90.93 175.318 92.126 174.674C93.3527 173.999 94.2727 173.079 94.886 171.914L102.016 176.054C100.605 178.415 98.658 180.286 96.174 181.666C93.7207 183.015 91.022 183.69 88.078 183.69ZM105.046 183V149.42H112.682V183H105.046ZM133.278 160H140.914V183H133.278V180.884C131.714 182.724 129.537 183.644 126.746 183.644C123.679 183.644 121.103 182.494 119.018 180.194C116.963 177.863 115.936 174.965 115.936 171.5C115.936 168.035 116.963 165.152 119.018 162.852C121.103 160.521 123.679 159.356 126.746 159.356C129.537 159.356 131.714 160.276 133.278 162.116V160ZM124.952 175.134C125.841 176.054 127.007 176.514 128.448 176.514C129.889 176.514 131.055 176.054 131.944 175.134C132.833 174.214 133.278 173.003 133.278 171.5C133.278 169.997 132.833 168.786 131.944 167.866C131.055 166.946 129.889 166.486 128.448 166.486C127.007 166.486 125.841 166.946 124.952 167.866C124.063 168.786 123.618 169.997 123.618 171.5C123.618 173.003 124.063 174.214 124.952 175.134ZM152.52 166.716C152.52 167.145 152.903 167.498 153.67 167.774C154.467 168.05 155.418 168.311 156.522 168.556C157.657 168.801 158.776 169.154 159.88 169.614C161.015 170.043 161.965 170.795 162.732 171.868C163.529 172.941 163.928 174.291 163.928 175.916C163.928 178.553 162.947 180.501 160.984 181.758C159.021 183.015 156.691 183.644 153.992 183.644C148.84 183.644 145.405 181.819 143.688 178.17L150.358 174.812C150.941 176.499 152.137 177.342 153.946 177.342C155.326 177.342 156.016 176.928 156.016 176.1C156.016 175.671 155.633 175.318 154.866 175.042C154.099 174.766 153.164 174.49 152.06 174.214C150.956 173.938 149.852 173.57 148.748 173.11C147.644 172.65 146.709 171.914 145.942 170.902C145.175 169.859 144.792 168.587 144.792 167.084C144.792 164.631 145.697 162.729 147.506 161.38C149.315 160.031 151.493 159.356 154.038 159.356C158.577 159.356 161.735 161.135 163.514 164.692L157.074 167.59C156.399 166.271 155.449 165.612 154.222 165.612C153.087 165.612 152.52 165.98 152.52 166.716ZM172.96 166.716C172.96 167.145 173.343 167.498 174.11 167.774C174.907 168.05 175.858 168.311 176.961 168.556C178.096 168.801 179.216 169.154 180.32 169.614C181.454 170.043 182.405 170.795 183.172 171.868C183.969 172.941 184.368 174.291 184.368 175.916C184.368 178.553 183.386 180.501 181.424 181.758C179.461 183.015 177.13 183.644 174.432 183.644C169.28 183.644 165.845 181.819 164.128 178.17L170.798 174.812C171.38 176.499 172.576 177.342 174.386 177.342C175.766 177.342 176.456 176.928 176.456 176.1C176.456 175.671 176.072 175.318 175.306 175.042C174.539 174.766 173.604 174.49 172.5 174.214C171.396 173.938 170.292 173.57 169.188 173.11C168.084 172.65 167.148 171.914 166.382 170.902C165.615 169.859 165.232 168.587 165.232 167.084C165.232 164.631 166.136 162.729 167.946 161.38C169.755 160.031 171.932 159.356 174.478 159.356C179.016 159.356 182.175 161.135 183.954 164.692L177.514 167.59C176.839 166.271 175.888 165.612 174.662 165.612C173.527 165.612 172.96 165.98 172.96 166.716Z" fill="white"/>
<circle cx="288" cy="242" r="21" fill="white"/>
<path fill-rule="evenodd" clip-rule="evenodd" d="M278.522 248.864C277.772 249.614 277.772 250.614 278.522 251.365C279.272 252.115 280.273 252.115 281.023 251.365L294.591 237.797L294.591 246.05C294.591 246.551 294.716 246.926 295.091 247.301C295.466 247.676 295.841 247.801 296.342 247.801C297.342 247.801 298.092 247.051 298.092 246.05L298.092 233.98C298.259 233.406 298.092 232.795 297.592 232.294C297.092 231.794 296.481 231.628 295.907 231.794L283.836 231.794C282.836 231.794 282.085 232.544 282.085 233.545C282.085 234.045 282.21 234.42 282.586 234.795C282.961 235.171 283.336 235.296 283.836 235.296L292.09 235.296L278.522 248.864Z" fill="#6173FD"/>
<defs>
<filter id="filter0_d_2133_2" x="0" y="0" width="376" height="342" filterUnits="userSpaceOnUse" color-interpolation-filters="sRGB">
<feFlood flood-opacity="0" result="BackgroundImageFix"/>
<feColorMatrix in="SourceAlpha" type="matrix" values="0 0 0 0 0 0 0 0 0 0 0 0 0 0 0 0 0 0 127 0" result="hardAlpha"/>
<feOffset dy="14"/>
<feGaussianBlur stdDeviation="15"/>
<feComposite in2="hardAlpha" operator="out"/>
<feColorMatrix type="matrix" values="0 0 0 0 0.461068 0 0 0 0 0.461068 0 0 0 0 0.461068 0 0 0 0.25 0"/>
<feBlend mode="normal" in2="BackgroundImageFix" result="effect1_dropShadow_2133_2"/>
<feBlend mode="normal" in="SourceGraphic" in2="effect1_dropShadow_2133_2" result="shape"/>
</filter>
</defs>
</svg>
