<svg width="228" height="226" viewBox="0 0 228 226" fill="none" xmlns="http://www.w3.org/2000/svg">
<g clip-path="url(#clip0_1629_3419)">
<path d="M211.858 166C218.988 150.678 223 133.441 223 115.212C223 51.5823 174.199 0 114 0C53.8009 0 5 51.5823 5 115.212C5 133.441 9.01164 150.678 16.1425 166H211.858Z" fill="#64C0F4"/>
<path d="M80.664 110.38H89.918V117.109H80.664V110.38Z" fill="#0F3E4C"/>
<path d="M138.091 110.38H147.345V117.109H138.091V110.38Z" fill="#0F3E4C"/>
<path d="M82.141 116.428C77.2666 123.721 79.1579 132.639 81.636 138.881C90.2947 160.686 113.624 168.87 113.859 168.95L114.004 169L114.149 168.95C114.384 168.87 137.714 160.686 146.372 138.881C148.85 132.641 150.741 123.725 145.87 116.433L145.797 116.401C142.605 115.017 139.158 114.302 135.674 114.302C121.243 114.302 106.79 114.302 92.3266 114.302C88.8425 114.302 85.3958 115.017 82.2038 116.401L82.141 116.428Z" fill="#EBF0F2"/>
<path d="M82.2036 116.401L82.1413 116.428C77.2665 123.721 79.1582 132.639 81.6359 138.881C90.2945 160.686 113.624 168.87 113.859 168.95L114.004 168.999L114.149 168.95C114.161 168.946 114.228 168.923 114.344 168.88C114.231 168.764 114.122 168.649 114.004 168.532C98.1035 152.771 108.839 138.281 108.839 138.281L97.8924 114.302C96.0368 114.302 94.1825 114.302 92.3265 114.302C88.8419 114.302 85.3956 115.017 82.2036 116.401Z" fill="#C2D4E6"/>
<path d="M201.331 143.083C198.955 138.875 195.183 135.614 190.653 133.855L178.081 128.971C179.436 134.275 176.665 140.801 169.836 148.375C159.908 159.385 145.265 164.938 134.73 167.659C123.288 170.613 114.081 170.957 114.02 170.96C113.928 170.957 104.739 170.615 93.2997 167.664C82.7578 164.944 68.1066 159.389 58.1743 148.375C51.3432 140.8 48.572 134.272 49.9289 128.967L37.3493 133.854C32.8191 135.614 29.0473 138.874 26.6707 143.083C23.1665 149.287 19.4121 157.09 15.8304 165.086C26.7361 187.317 45.1017 205.286 67.6982 215.8V204.761C67.6982 202.111 69.8851 199.944 72.5584 199.944H155.743C158.416 199.944 160.603 202.111 160.603 204.761V215.66C183.062 205.126 201.312 187.217 212.17 165.085C208.589 157.09 204.834 149.287 201.331 143.083Z" fill="#2C2C42"/>
<path d="M58.1783 151.063C58.7443 150.785 59.2257 150.368 59.5775 149.858C59.1015 149.374 58.6308 148.882 58.1739 148.376C51.3428 140.8 48.5716 134.272 49.9285 128.968L37.3488 133.855C32.8187 135.614 29.0469 138.875 26.6702 143.083C23.1665 149.287 19.4121 157.09 15.8304 165.086C21.4178 176.475 28.9676 186.742 38.0368 195.465C39.876 187.5 42.7046 175.349 44.6586 167.417C47.1221 157.417 54.9872 152.631 58.1783 151.063Z" fill="#212135"/>
<path d="M114 226C130.848 226 146.803 222.214 161.048 215.454V203.879C161.048 201.229 158.861 199.061 156.188 199.061H72.1126C69.4394 199.061 67.2524 201.229 67.2524 203.879V215.593C81.4214 222.265 97.2701 226 114 226Z" fill="#FBCC68"/>
<path d="M106.303 209.875C106.303 204.76 109.792 200.417 114.527 199.061H72.1127C69.4395 199.061 67.2526 201.229 67.2526 203.879V215.593C79.2293 221.232 92.4087 224.763 106.303 225.724L106.303 209.875Z" fill="#EFAA42"/>
<path d="M151.621 118.693L146.444 116.682L145.796 116.401C142.604 115.016 139.158 114.302 135.674 114.302C121.242 114.302 106.789 114.302 92.3259 114.302C88.8418 114.302 85.3951 115.016 82.2031 116.401L81.5551 116.682L76.3784 118.693C80.5902 135.405 95.8354 147.785 114 147.785C132.164 147.785 147.409 135.405 151.621 118.693Z" fill="#C2D4E6"/>
<path d="M84.9115 115.808C85.2 115.739 85.4886 115.668 85.7794 115.601C85.9633 115.418 86.1459 115.226 86.3262 115.026C84.9186 115.367 83.5377 115.822 82.2031 116.4L81.5551 116.682L76.3784 118.693C79.9168 132.733 91.2447 143.713 105.547 146.865C106.356 141.633 108.838 138.28 108.838 138.28L108.397 137.314C97.028 135.194 87.9142 126.752 84.9115 115.808Z" fill="#99B8DA"/>
<path d="M143.39 115.5C140.901 114.708 138.298 114.302 135.674 114.302C121.242 114.302 106.789 114.302 92.3262 114.302C89.702 114.302 87.0991 114.708 84.6103 115.5C87.6687 128.794 99.6609 138.719 114 138.719C128.339 138.719 140.331 128.794 143.39 115.5Z" fill="#E0D3CD"/>
<path d="M135.392 103.209C131.642 108.471 126.613 113.388 119.905 116.604C118.08 117.479 116.076 117.962 114.049 117.966C114.034 117.966 114.019 117.966 114.004 117.966C113.993 117.966 113.982 117.966 113.971 117.966C111.935 117.963 109.924 117.474 108.092 116.594C101.387 113.375 96.3607 108.454 92.6125 103.19C91.2646 108.138 88.7637 113.526 85.7792 116.484C85.4884 116.551 85.2003 116.622 84.9113 116.692C88.3941 129.383 100.093 138.719 114 138.719C127.906 138.719 139.605 129.383 143.087 116.692C142.799 116.622 142.51 116.551 142.219 116.484C139.24 113.53 136.741 108.151 135.392 103.209Z" fill="#FFAA7B"/>
<path d="M114.963 117.928C114.659 117.95 114.355 117.965 114.049 117.966C114.034 117.966 114.02 117.966 114.004 117.966C113.993 117.966 113.982 117.966 113.971 117.966C111.935 117.962 109.924 117.473 108.092 116.594C101.387 113.374 96.3607 108.454 92.6125 103.19C91.265 108.137 88.7637 113.526 85.7792 116.484C85.4884 116.55 85.1998 116.621 84.9113 116.691C87.9532 127.776 97.2634 136.3 108.838 138.28C112.597 131.752 114.256 124.134 114.963 117.928Z" fill="#F7996B"/>
<path d="M153.697 60.7328C152.056 59.2422 148.788 59.9979 147.375 60.9107C147.684 62.8216 147.702 64.777 147.434 66.7073L145.323 78.7466C145.323 79.7173 145.207 80.6694 145.15 81.6047C149.217 82.8204 151.766 79.2017 152.106 76.7184C152.252 75.6493 152.492 74.5956 152.824 73.5676C153.906 70.2191 157.808 64.4676 153.697 60.7328Z" fill="#FFAA7B"/>
<path d="M74.3106 60.7333C75.9516 59.2427 79.2202 59.9984 80.6332 60.9112C80.3237 62.8221 80.3059 64.7775 80.5735 66.7078L82.6852 78.7471C82.6852 79.7178 82.9101 80.6699 82.9666 81.6052C78.9 82.8208 76.2424 79.2022 75.9017 76.7188C75.7552 75.6498 75.5156 74.5961 75.1834 73.5681C74.1018 70.2196 70.1995 64.4681 74.3106 60.7333Z" fill="#F7996B"/>
<path d="M146.371 57.1914C145.996 56.2207 145.523 55.2377 144.927 54.3103C143.917 52.7398 143.473 50.8824 143.608 49.0302C143.997 43.7033 143.788 33.2848 136.734 30.138C130.74 27.4644 123.387 29.0125 118.699 30.5583C115.654 31.562 112.354 31.562 109.31 30.5583C104.621 29.0129 97.2684 27.4649 91.2745 30.138C84.1994 33.2937 84.0097 43.7629 84.4034 49.0757C84.5396 50.9137 84.0832 52.7522 83.0812 54.3108C82.529 55.1698 82.0824 56.0764 81.7212 56.9769C80.4726 60.0906 80.1275 63.4889 80.587 66.8088L82.2409 78.7475C82.2409 78.7475 86.3592 107.041 108.092 117.477C109.924 118.357 111.935 118.846 113.971 118.849H114.004H114.05C116.077 118.845 118.08 118.362 119.905 117.487C141.07 107.34 145.541 80.2655 145.767 78.8137C145.767 78.7916 145.768 78.77 145.768 78.7479L147.436 66.7086C147.88 63.4982 147.542 60.2199 146.371 57.1914Z" fill="#FFBB99"/>
<path d="M105.953 78.7472L104.899 66.8084C104.606 63.4886 104.826 60.0907 105.622 56.9766C105.852 56.0761 106.137 55.1694 106.488 54.3105C107.127 52.7519 107.418 50.9134 107.331 49.0754C107.099 44.1533 107.188 34.8105 110.787 30.9526C110.29 30.8435 109.795 30.7182 109.309 30.5579C104.62 29.0126 97.2683 27.4646 91.2744 30.1377C84.1992 33.2933 84.0095 43.7626 84.4032 49.0754C84.5395 50.9134 84.083 52.7519 83.0811 54.3105C82.5289 55.1694 82.0822 56.0761 81.7211 56.9766C80.472 60.0902 80.1273 63.4886 80.5869 66.8084L82.2408 78.7472C82.2408 78.7472 86.359 107.04 108.092 117.477C109.924 118.357 111.935 118.846 113.971 118.849H114.004H114.049C116.076 118.845 118.08 118.362 119.904 117.487C120.433 117.234 120.947 116.968 121.455 116.694C108.456 105.698 105.953 78.7472 105.953 78.7472Z" fill="#FFAA7B"/>
<path d="M159.021 37.1015C161.086 36.7898 163.359 35.1787 164.61 34.1727C165.06 33.8108 164.966 33.1169 164.446 32.8644C154.675 28.125 148.804 12.7615 140.861 7.8848C134.062 3.71086 128.2 6.11476 126.354 7.08497C126.011 7.26551 125.583 7.16663 125.356 6.85367C122.732 3.22752 118.375 1.07567 115.816 0.0586669C115.133 -0.212798 114.481 0.501839 114.822 1.1485C115.953 3.29197 116.429 5.03773 116.628 6.18936C116.736 6.81439 116.077 7.29729 115.504 7.01611C106.935 2.8179 91.6969 5.80666 82.3948 17.0806C74.6553 26.4609 68.6916 27.8673 66.5417 28.046C66.055 28.0866 65.7223 28.5528 65.8474 29.0207C66.6806 32.1396 69.8944 34.1599 71.2549 34.8922C71.6329 35.0957 71.7906 35.5711 71.5746 35.9397C70.9289 37.0419 69.5489 37.7102 68.7389 38.0231C68.3777 38.1626 68.1769 38.5418 68.2619 38.9165C69.0434 42.3652 72.7306 58.0016 76.6342 64.0635C79.3555 68.2895 80.8433 73.9982 81.583 77.7387C81.6881 78.2701 82.4687 78.2224 82.507 77.6822C82.7974 73.6014 83.2186 66.9489 83.383 60.7158C83.5847 53.0689 90.324 48.5749 93.3949 46.9201C93.9876 46.6005 94.6841 47.1254 94.5385 47.7782L94.119 49.6617C93.9988 50.202 94.4686 50.6941 95.0185 50.6032C118.038 46.7855 126.491 38.902 129.577 33.9882C129.793 33.6448 130.213 33.4921 130.602 33.6157C130.957 33.7287 131.198 34.0518 131.217 34.4213C131.936 49.1029 143.388 50.8919 145.04 57.4048C146.396 62.7485 146.05 72.8872 145.789 77.6711C145.754 78.3253 146.659 78.5592 146.941 77.9669C150.532 70.4382 150.016 60.029 155.722 53.1492C160.358 47.5593 162.515 43.8921 163.336 42.3339C163.562 41.904 163.331 41.3897 162.866 41.2401C160.782 40.5718 159.372 39.3315 158.54 38.378C158.136 37.9159 158.41 37.1937 159.021 37.1015Z" fill="#404051"/>
<path d="M166.714 118.415C165.428 117.982 164.32 117.134 163.584 116.002C161.034 112.081 153.438 103.653 138.091 110.38C138.091 110.38 154.642 116.85 145.958 138.719C137.274 160.587 114.004 168.532 114.004 168.532V171.402C114.004 171.402 150.796 170.151 170.167 148.669C188.69 128.128 172.784 120.457 166.714 118.415Z" fill="#404051"/>
<path d="M61.2941 118.415C62.5802 117.982 63.6877 117.134 64.4233 116.002C66.9741 112.081 74.5698 103.653 89.9175 110.38C89.9175 110.38 73.3666 116.85 82.0502 138.719C90.7338 160.587 114.004 168.532 114.004 168.532V171.402C114.004 171.402 77.2123 170.151 57.8412 148.669C39.318 128.128 55.2236 120.457 61.2941 118.415Z" fill="#404051"/>
<path d="M59.3005 150.211C59.5864 149.891 59.8161 149.523 59.9693 149.117C62.6893 141.894 69.0448 145.597 72.4158 139.63C75.9783 133.325 80.9257 135.525 80.9257 135.525C74.9982 116.215 89.9175 110.38 89.9175 110.38C74.5698 103.653 66.9741 112.081 64.4233 116.002C63.6877 117.134 62.5802 117.982 61.2941 118.415C55.2236 120.457 39.318 128.128 57.8412 148.669C58.3163 149.197 58.8048 149.708 59.3005 150.211Z" fill="#2C2C42"/>
<path d="M167.728 183.907V211.997C170.007 210.716 172.234 209.355 174.408 207.92V183.907C174.408 182.078 172.912 180.597 171.068 180.597C169.223 180.597 167.728 182.079 167.728 183.907Z" fill="#212135"/>
<path d="M60.5727 183.907C60.5727 182.078 59.0774 180.597 57.2329 180.597C55.3884 180.597 53.8931 182.078 53.8931 183.907V208.119C56.0662 209.544 58.2945 210.892 60.5727 212.163V183.907Z" fill="#212135"/>
<path d="M147.074 163.292C150.458 163.292 153.201 160.573 153.201 157.218C153.201 153.864 150.458 151.145 147.074 151.145C143.69 151.145 140.947 153.864 140.947 157.218C140.947 160.573 143.69 163.292 147.074 163.292Z" fill="#2C2C42"/>
<path d="M80.926 163.292C84.3099 163.292 87.0531 160.573 87.0531 157.218C87.0531 153.864 84.3099 151.145 80.926 151.145C77.5422 151.145 74.799 153.864 74.799 157.218C74.799 160.573 77.5422 163.292 80.926 163.292Z" fill="#2C2C42"/>
<path d="M147.074 155.279C145.229 155.279 143.734 156.761 143.734 158.59V207.009C143.734 208.837 145.229 210.319 147.074 210.319C148.918 210.319 150.414 208.837 150.414 207.009V158.59C150.414 156.762 148.918 155.279 147.074 155.279Z" fill="#545460"/>
<path d="M147.074 197.059C144.541 197.059 142.488 199.094 142.488 201.606V208.771C142.488 211.283 144.541 213.318 147.074 213.318C149.607 213.318 151.661 211.283 151.661 208.771V201.606C151.661 199.094 149.607 197.059 147.074 197.059Z" fill="#EBF0F2"/>
<path d="M80.9262 155.279C79.0817 155.279 77.5863 156.761 77.5863 158.59V207.009C77.5863 208.837 79.0817 210.319 80.9262 210.319C82.7707 210.319 84.266 208.837 84.266 207.009V158.59C84.266 156.762 82.7707 155.279 80.9262 155.279Z" fill="#545460"/>
<path d="M80.9257 197.059C78.3928 197.059 76.339 199.094 76.339 201.606V208.771C76.339 211.283 78.3924 213.318 80.9257 213.318C83.4591 213.318 85.5125 211.283 85.5125 208.771V201.606C85.5125 199.094 83.4591 197.059 80.9257 197.059Z" fill="#EBF0F2"/>
<path d="M147.074 206.255C144.541 206.255 142.488 204.22 142.488 201.708V208.771C142.488 211.282 144.541 213.317 147.074 213.317C149.608 213.317 151.661 211.282 151.661 208.771V201.708C151.661 204.22 149.607 206.255 147.074 206.255Z" fill="#C2D4E6"/>
<path d="M80.9257 206.255C78.3928 206.255 76.339 204.22 76.339 201.708V208.771C76.339 211.282 78.3924 213.317 80.9257 213.317C83.4591 213.317 85.5125 211.282 85.5125 208.771V201.708C85.5125 204.22 83.4591 206.255 80.9257 206.255Z" fill="#C2D4E6"/>
<path d="M107.372 21.6053C96.0463 12.6527 115.504 7.01639 115.504 7.01639C106.935 2.81818 91.6969 5.80694 82.3948 17.0809C74.6552 26.4612 68.6916 27.8675 66.5416 28.0463C66.0549 28.0869 65.7223 28.553 65.8474 29.0209C66.6806 32.1399 69.8944 34.1602 71.2548 34.8925C71.6329 35.096 71.7905 35.5714 71.5746 35.94C70.9289 37.0422 69.5488 37.7105 68.7388 38.0234C68.3777 38.1629 68.1768 38.5421 68.2619 38.9168C69.0434 42.3655 72.7306 58.0019 76.6342 64.0637C79.3555 68.2898 80.8433 73.9985 81.583 77.7389C81.6881 78.2704 82.4687 78.2227 82.507 77.6824C82.7973 73.6016 83.2186 66.9492 83.3825 60.7161C83.5842 53.0692 90.3236 48.5752 93.3944 46.9204C93.9872 46.6008 94.6836 47.1257 94.538 47.7785L94.1185 49.662C93.9983 50.2023 94.4681 50.6944 95.0185 50.6035C99.6818 49.8301 103.738 48.8877 107.282 47.8394C102.376 35.6054 118.697 30.557 107.372 21.6053Z" fill="#2C2C42"/>
</g>
<defs>
<clipPath id="clip0_1629_3419">
<rect width="228" height="226" fill="white"/>
</clipPath>
</defs>
</svg>
