<svg width="112" height="112" viewBox="0 0 112 112" fill="none" xmlns="http://www.w3.org/2000/svg">
<g filter="url(#filter0_d_1629_3454)">
<circle cx="56" cy="42" r="21" fill="#FD7A72"/>
<circle cx="56" cy="42" r="23.5" stroke="white" stroke-width="5"/>
</g>
<path d="M77 42C77 52.482 69.3202 61.1699 59.2812 62.7449V48.0703H64.1744L65.1055 42H59.2812V38.0609C59.2812 36.3997 60.095 34.7812 62.7036 34.7812H65.3516V29.6133C65.3516 29.6133 62.948 29.2031 60.6504 29.2031C55.854 29.2031 52.7188 32.1103 52.7188 37.3734V42H47.3867V48.0703H52.7188V62.7449C42.6798 61.1699 35 52.482 35 42C35 30.4024 44.4024 21 56 21C67.5976 21 77 30.4024 77 42Z" fill="#1877F2"/>
<path d="M64.1744 48.0703L65.1055 42H59.2812V38.0608C59.2812 36.4001 60.0948 34.7812 62.7035 34.7812H65.3516V29.6133C65.3516 29.6133 62.9484 29.2031 60.6508 29.2031C55.8539 29.2031 52.7188 32.1103 52.7188 37.3734V42H47.3867V48.0703H52.7188V62.7448C53.7879 62.9126 54.8837 63 56 63C57.1163 63 58.2121 62.9126 59.2812 62.7448V48.0703H64.1744Z" fill="white"/>
<defs>
<filter id="filter0_d_1629_3454" x="0" y="0" width="112" height="112" filterUnits="userSpaceOnUse" color-interpolation-filters="sRGB">
<feFlood flood-opacity="0" result="BackgroundImageFix"/>
<feColorMatrix in="SourceAlpha" type="matrix" values="0 0 0 0 0 0 0 0 0 0 0 0 0 0 0 0 0 0 127 0" result="hardAlpha"/>
<feOffset dy="14"/>
<feGaussianBlur stdDeviation="15"/>
<feComposite in2="hardAlpha" operator="out"/>
<feColorMatrix type="matrix" values="0 0 0 0 0.461068 0 0 0 0 0.461068 0 0 0 0 0.461068 0 0 0 0.25 0"/>
<feBlend mode="normal" in2="BackgroundImageFix" result="effect1_dropShadow_1629_3454"/>
<feBlend mode="normal" in="SourceGraphic" in2="effect1_dropShadow_1629_3454" result="shape"/>
</filter>
</defs>
</svg>
