<svg width="212" height="212" viewBox="0 0 212 212" fill="none" xmlns="http://www.w3.org/2000/svg">
<g filter="url(#filter0_d_170_654)">
<circle cx="106" cy="92" r="64" fill="#17C7EE"/>
<circle cx="106" cy="92" r="70" stroke="white" stroke-width="12"/>
</g>
<path d="M109.52 77.5064C109.23 77.5064 108.937 77.4203 108.681 77.2413L102.024 72.58C100.477 71.4043 102.066 69.1265 103.705 70.1789L110.362 74.8402C111.534 75.6647 110.934 77.5101 109.52 77.5064Z" fill="white"/>
<path d="M131.953 107.056C131.605 106.326 130.731 106.015 130 106.363L127.189 107.7C119.383 111.718 110.019 110.808 102.571 106.375C102.367 106.276 102.143 106.221 101.915 106.221H87.6935C81.5618 105.971 81.5443 97.2191 87.6935 96.9617H100.232C104.329 96.9617 108.181 95.3662 111.078 92.4691C111.651 91.8967 111.651 90.9687 111.078 90.3964C110.506 89.8242 109.578 89.824 109.005 90.3964C106.135 93.2554 102.686 94.2193 98.714 94.0305L107.856 80.9749L122.735 88.255C122.909 88.3403 123.099 88.39 123.292 88.4016L130.543 88.8325C131.342 88.8827 132.047 88.2658 132.093 87.4564C132.141 86.6485 131.524 85.9544 130.717 85.9065L123.759 85.493L109.558 78.5445L115.383 70.2244C115.848 69.5614 115.686 68.6475 115.023 68.1832L108.366 63.5219C108.048 63.299 107.654 63.2116 107.271 63.2791C106.888 63.3465 106.548 63.5635 106.325 63.8819L98.8228 74.5964C97.4126 73.6844 95.5958 73.4374 93.9505 74.0436L86.2197 77.4025C85.2031 77.8442 84.3516 78.5721 83.7572 79.5071C83.6831 79.638 72.6446 96.9585 72.5898 97.0864C70.7493 100.665 73.4473 105.107 77.486 105.078L76.0288 107.15C75.8973 107.337 75.8112 107.552 75.7778 107.778L74.445 116.766C74.2514 117.936 75.5594 118.852 76.5925 118.269C76.6463 118.236 84.5902 113.947 84.636 113.91C86.1391 117.559 91.1273 118.453 93.7886 115.495C97.1572 119.163 103.368 116.786 103.381 111.75V110.058C111.039 114.157 120.754 114.242 128.461 110.341C128.461 110.341 131.259 109.01 131.259 109.01C131.99 108.662 132.301 107.787 131.953 107.056ZM107.886 66.7635L112.142 69.7435L95.1357 94.0306H88.7931C93.3833 87.4753 103.38 73.199 107.886 66.7635ZM75.1821 98.4579L86.2309 81.0796C86.5101 80.6403 86.9102 80.2984 87.3879 80.0908L95.0525 76.7607C95.7665 76.5403 96.5213 76.6396 97.1384 77.0019L84.8152 94.6011C82.3996 95.5995 80.6103 97.814 80.2155 100.478C80.0218 101.069 79.5272 101.576 78.8457 101.877C76.5151 102.933 74.1595 100.81 75.1821 98.4579ZM77.7744 114.296L78.6262 108.552L81.0225 105.145C81.864 106.718 83.2461 107.959 84.9187 108.622L82.8824 111.53L77.7744 114.296ZM89.7254 114.347C88.293 114.347 87.1275 113.182 87.1275 111.75V110.578L88.1262 109.152H92.3231V111.75C92.3231 113.182 91.1578 114.347 89.7254 114.347ZM97.852 114.347C96.4196 114.347 95.2543 113.182 95.2543 111.75V109.152H100.45V111.75C100.45 113.182 99.2845 114.347 97.852 114.347Z" fill="white"/>
<path d="M130.629 117.279C129.846 117.293 129.147 116.602 129.164 115.813V87.3695C129.164 86.5601 129.82 85.9039 130.629 85.9039H138.756C139.566 85.9039 140.222 86.5601 140.222 87.3695V111.75C140.222 112.305 139.908 112.812 139.412 113.061L131.285 117.124C131.078 117.227 130.854 117.279 130.629 117.279ZM132.095 88.835V113.441L137.291 110.844V88.835H132.095Z" fill="white"/>
<defs>
<filter id="filter0_d_170_654" x="0" y="0" width="212" height="212" filterUnits="userSpaceOnUse" color-interpolation-filters="sRGB">
<feFlood flood-opacity="0" result="BackgroundImageFix"/>
<feColorMatrix in="SourceAlpha" type="matrix" values="0 0 0 0 0 0 0 0 0 0 0 0 0 0 0 0 0 0 127 0" result="hardAlpha"/>
<feOffset dy="14"/>
<feGaussianBlur stdDeviation="15"/>
<feComposite in2="hardAlpha" operator="out"/>
<feColorMatrix type="matrix" values="0 0 0 0 0.461068 0 0 0 0 0.461068 0 0 0 0 0.461068 0 0 0 0.25 0"/>
<feBlend mode="normal" in2="BackgroundImageFix" result="effect1_dropShadow_170_654"/>
<feBlend mode="normal" in="SourceGraphic" in2="effect1_dropShadow_170_654" result="shape"/>
</filter>
</defs>
</svg>
