<svg width="666" height="176" viewBox="0 0 666 176" fill="none" xmlns="http://www.w3.org/2000/svg">
<path d="M111.741 48L98.4233 1.45454H109.173L116.878 33.7955H117.264L125.764 1.45454H134.969L143.446 33.8636H143.855L151.56 1.45454H162.31L148.991 48H139.401L130.537 17.5682H130.173L121.332 48H111.741ZM179.554 48.6818C175.963 48.6818 172.872 47.9545 170.281 46.5C167.705 45.0303 165.721 42.9545 164.327 40.2727C162.933 37.5758 162.236 34.3864 162.236 30.7045C162.236 27.1136 162.933 23.9621 164.327 21.25C165.721 18.5379 167.683 16.4242 170.213 14.9091C172.759 13.3939 175.743 12.6364 179.168 12.6364C181.471 12.6364 183.615 13.0076 185.599 13.75C187.599 14.4773 189.342 15.5758 190.827 17.0455C192.327 18.5152 193.493 20.3636 194.327 22.5909C195.16 24.803 195.577 27.3939 195.577 30.3636V33.0227H166.099V27.0227H186.463C186.463 25.6288 186.16 24.3939 185.554 23.3182C184.948 22.2424 184.107 21.4015 183.031 20.7955C181.971 20.1742 180.736 19.8636 179.327 19.8636C177.857 19.8636 176.554 20.2045 175.418 20.8864C174.296 21.553 173.418 22.4545 172.781 23.5909C172.145 24.7121 171.819 25.9621 171.804 27.3409V33.0455C171.804 34.7727 172.122 36.2652 172.759 37.5227C173.41 38.7803 174.327 39.75 175.509 40.4318C176.69 41.1136 178.092 41.4545 179.713 41.4545C180.789 41.4545 181.774 41.303 182.668 41C183.562 40.697 184.327 40.2424 184.963 39.6364C185.599 39.0303 186.084 38.2879 186.418 37.4091L195.372 38C194.918 40.1515 193.986 42.0303 192.577 43.6364C191.183 45.2273 189.38 46.4697 187.168 47.3636C184.971 48.2424 182.433 48.6818 179.554 48.6818ZM242.139 14.8409C241.957 13.0076 241.177 11.5833 239.798 10.5682C238.42 9.55303 236.548 9.04545 234.185 9.04545C232.579 9.04545 231.223 9.27273 230.116 9.72727C229.01 10.1667 228.162 10.7803 227.571 11.5682C226.995 12.3561 226.707 13.25 226.707 14.25C226.677 15.0833 226.851 15.8106 227.23 16.4318C227.624 17.053 228.162 17.5909 228.844 18.0455C229.526 18.4848 230.313 18.8712 231.207 19.2045C232.101 19.5227 233.056 19.7955 234.071 20.0227L238.253 21.0227C240.283 21.4773 242.147 22.0833 243.844 22.8409C245.541 23.5985 247.01 24.5303 248.253 25.6364C249.495 26.7424 250.457 28.0455 251.139 29.5455C251.836 31.0455 252.192 32.7652 252.207 34.7045C252.192 37.553 251.465 40.0227 250.026 42.1136C248.601 44.1894 246.541 45.803 243.844 46.9545C241.162 48.0909 237.927 48.6591 234.139 48.6591C230.382 48.6591 227.109 48.0833 224.321 46.9318C221.548 45.7803 219.382 44.0758 217.821 41.8182C216.276 39.5455 215.465 36.7348 215.389 33.3864H224.912C225.018 34.947 225.465 36.25 226.253 37.2955C227.056 38.3258 228.124 39.1061 229.457 39.6364C230.806 40.1515 232.329 40.4091 234.026 40.4091C235.692 40.4091 237.139 40.1667 238.366 39.6818C239.609 39.197 240.571 38.5227 241.253 37.6591C241.935 36.7955 242.276 35.803 242.276 34.6818C242.276 33.6364 241.965 32.7576 241.344 32.0455C240.738 31.3333 239.844 30.7273 238.662 30.2273C237.495 29.7273 236.063 29.2727 234.366 28.8636L229.298 27.5909C225.374 26.6364 222.276 25.1439 220.003 23.1136C217.73 21.0833 216.601 18.3485 216.616 14.9091C216.601 12.0909 217.351 9.62879 218.866 7.52273C220.397 5.41667 222.495 3.77273 225.162 2.59091C227.829 1.40909 230.859 0.81818 234.253 0.81818C237.707 0.81818 240.723 1.40909 243.298 2.59091C245.889 3.77273 247.904 5.41667 249.344 7.52273C250.783 9.62879 251.526 12.0682 251.571 14.8409H242.139ZM258.645 61.0909V13.0909H268.19V18.9545H268.622C269.046 18.0152 269.66 17.0606 270.463 16.0909C271.281 15.1061 272.342 14.2879 273.645 13.6364C274.963 12.9697 276.599 12.6364 278.554 12.6364C281.099 12.6364 283.448 13.303 285.599 14.6364C287.751 15.9545 289.471 17.947 290.759 20.6136C292.046 23.2652 292.69 26.5909 292.69 30.5909C292.69 34.4848 292.062 37.7727 290.804 40.4545C289.562 43.1212 287.865 45.1439 285.713 46.5227C283.577 47.8864 281.183 48.5682 278.531 48.5682C276.652 48.5682 275.054 48.2576 273.736 47.6364C272.433 47.0152 271.365 46.2348 270.531 45.2955C269.698 44.3409 269.062 43.3788 268.622 42.4091H268.327V61.0909H258.645ZM268.122 30.5455C268.122 32.6212 268.41 34.4318 268.986 35.9773C269.562 37.5227 270.395 38.7273 271.486 39.5909C272.577 40.4394 273.902 40.8636 275.463 40.8636C277.039 40.8636 278.372 40.4318 279.463 39.5682C280.554 38.6894 281.38 37.4773 281.94 35.9318C282.516 34.3712 282.804 32.5758 282.804 30.5455C282.804 28.5303 282.524 26.7576 281.963 25.2273C281.402 23.697 280.577 22.5 279.486 21.6364C278.395 20.7727 277.054 20.3409 275.463 20.3409C273.887 20.3409 272.554 20.7576 271.463 21.5909C270.387 22.4242 269.562 23.6061 268.986 25.1364C268.41 26.6667 268.122 28.4697 268.122 30.5455ZM309.099 48.6591C306.872 48.6591 304.887 48.2727 303.145 47.5C301.402 46.7121 300.024 45.553 299.009 44.0227C298.009 42.4773 297.509 40.553 297.509 38.25C297.509 36.3106 297.865 34.6818 298.577 33.3636C299.289 32.0455 300.259 30.9848 301.486 30.1818C302.713 29.3788 304.107 28.7727 305.668 28.3636C307.243 27.9545 308.895 27.6667 310.622 27.5C312.652 27.2879 314.289 27.0909 315.531 26.9091C316.774 26.7121 317.675 26.4242 318.236 26.0455C318.796 25.6667 319.077 25.1061 319.077 24.3636V24.2273C319.077 22.7879 318.622 21.6742 317.713 20.8864C316.819 20.0985 315.546 19.7045 313.895 19.7045C312.152 19.7045 310.766 20.0909 309.736 20.8636C308.705 21.6212 308.024 22.5758 307.69 23.7273L298.736 23C299.19 20.8788 300.084 19.0455 301.418 17.5C302.751 15.9394 304.471 14.7424 306.577 13.9091C308.698 13.0606 311.152 12.6364 313.94 12.6364C315.88 12.6364 317.736 12.8636 319.509 13.3182C321.296 13.7727 322.88 14.4773 324.259 15.4318C325.652 16.3864 326.751 17.6136 327.554 19.1136C328.357 20.5985 328.759 22.3788 328.759 24.4545V48H319.577V43.1591H319.304C318.743 44.25 317.993 45.2121 317.054 46.0455C316.115 46.8636 314.986 47.5076 313.668 47.9773C312.349 48.4318 310.827 48.6591 309.099 48.6591ZM311.872 41.9773C313.296 41.9773 314.554 41.697 315.645 41.1364C316.736 40.5606 317.592 39.7879 318.213 38.8182C318.834 37.8485 319.145 36.75 319.145 35.5227V31.8182C318.842 32.0152 318.425 32.197 317.895 32.3636C317.38 32.5152 316.796 32.6591 316.145 32.7955C315.493 32.9167 314.842 33.0303 314.19 33.1364C313.539 33.2273 312.948 33.3106 312.418 33.3864C311.281 33.553 310.289 33.8182 309.44 34.1818C308.592 34.5455 307.933 35.0379 307.463 35.6591C306.993 36.2652 306.759 37.0227 306.759 37.9318C306.759 39.25 307.236 40.2576 308.19 40.9545C309.16 41.6364 310.387 41.9773 311.872 41.9773ZM336.27 48V13.0909H345.656V19.1818H346.02C346.656 17.0152 347.724 15.3788 349.224 14.2727C350.724 13.1515 352.452 12.5909 354.406 12.5909C354.891 12.5909 355.414 12.6212 355.974 12.6818C356.535 12.7424 357.027 12.8258 357.452 12.9318V21.5227C356.997 21.3864 356.368 21.2652 355.565 21.1591C354.762 21.053 354.027 21 353.361 21C351.937 21 350.664 21.3106 349.543 21.9318C348.437 22.5379 347.558 23.3864 346.906 24.4773C346.27 25.5682 345.952 26.8258 345.952 28.25V48H336.27ZM371.23 37.9545L371.253 26.3409H372.662L383.844 13.0909H394.957L379.935 30.6364H377.639L371.23 37.9545ZM362.457 48V1.45454H372.139V48H362.457ZM384.276 48L374.003 32.7955L380.457 25.9545L395.616 48H384.276ZM411.974 1.45454H422.997L433.611 21.5H434.065L444.679 1.45454H455.702L438.724 31.5455V48H428.952V31.5455L411.974 1.45454ZM469.355 48.6818C465.825 48.6818 462.772 47.9318 460.196 46.4318C457.635 44.9167 455.658 42.8106 454.264 40.1136C452.87 37.4015 452.173 34.2576 452.173 30.6818C452.173 27.0758 452.87 23.9242 454.264 21.2273C455.658 18.5152 457.635 16.4091 460.196 14.9091C462.772 13.3939 465.825 12.6364 469.355 12.6364C472.885 12.6364 475.931 13.3939 478.491 14.9091C481.067 16.4091 483.052 18.5152 484.446 21.2273C485.84 23.9242 486.537 27.0758 486.537 30.6818C486.537 34.2576 485.84 37.4015 484.446 40.1136C483.052 42.8106 481.067 44.9167 478.491 46.4318C475.931 47.9318 472.885 48.6818 469.355 48.6818ZM469.401 41.1818C471.007 41.1818 472.348 40.7273 473.423 39.8182C474.499 38.8939 475.31 37.6364 475.855 36.0455C476.416 34.4545 476.696 32.6439 476.696 30.6136C476.696 28.5833 476.416 26.7727 475.855 25.1818C475.31 23.5909 474.499 22.3333 473.423 21.4091C472.348 20.4848 471.007 20.0227 469.401 20.0227C467.779 20.0227 466.416 20.4848 465.31 21.4091C464.219 22.3333 463.393 23.5909 462.832 25.1818C462.287 26.7727 462.014 28.5833 462.014 30.6136C462.014 32.6439 462.287 34.4545 462.832 36.0455C463.393 37.6364 464.219 38.8939 465.31 39.8182C466.416 40.7273 467.779 41.1818 469.401 41.1818ZM515.219 33.1364V13.0909H524.901V48H515.605V41.6591H515.241C514.454 43.7045 513.143 45.3485 511.31 46.5909C509.491 47.8333 507.272 48.4545 504.651 48.4545C502.317 48.4545 500.264 47.9242 498.491 46.8636C496.719 45.803 495.332 44.2955 494.332 42.3409C493.348 40.3864 492.848 38.0455 492.832 35.3182V13.0909H502.514V33.5909C502.529 35.6515 503.082 37.2803 504.173 38.4773C505.264 39.6742 506.726 40.2727 508.56 40.2727C509.726 40.2727 510.817 40.0076 511.832 39.4773C512.848 38.9318 513.666 38.1288 514.287 37.0682C514.923 36.0076 515.234 34.697 515.219 33.1364ZM532.645 48V13.0909H542.031V19.1818H542.395C543.031 17.0152 544.099 15.3788 545.599 14.2727C547.099 13.1515 548.827 12.5909 550.781 12.5909C551.266 12.5909 551.789 12.6212 552.349 12.6818C552.91 12.7424 553.402 12.8258 553.827 12.9318V21.5227C553.372 21.3864 552.743 21.2652 551.94 21.1591C551.137 21.053 550.402 21 549.736 21C548.312 21 547.039 21.3106 545.918 21.9318C544.812 22.5379 543.933 23.3864 543.281 24.4773C542.645 25.5682 542.327 26.8258 542.327 28.25V48H532.645ZM198.304 83.5682V75.4545H236.531V83.5682H222.281V122H212.554V83.5682H198.304ZM252.327 101.818V122H242.645V75.4545H252.054V93.25H252.463C253.251 91.1894 254.524 89.5758 256.281 88.4091C258.039 87.2273 260.243 86.6364 262.895 86.6364C265.319 86.6364 267.433 87.1667 269.236 88.2273C271.054 89.2727 272.463 90.7803 273.463 92.75C274.478 94.7045 274.978 97.0455 274.963 99.7727V122H265.281V101.5C265.296 99.3485 264.751 97.6742 263.645 96.4773C262.554 95.2803 261.024 94.6818 259.054 94.6818C257.736 94.6818 256.569 94.9621 255.554 95.5227C254.554 96.0833 253.766 96.9015 253.19 97.9773C252.63 99.0379 252.342 100.318 252.327 101.818ZM282.582 122V87.0909H292.264V122H282.582ZM287.446 82.5909C286.007 82.5909 284.772 82.1136 283.741 81.1591C282.726 80.1894 282.219 79.0303 282.219 77.6818C282.219 76.3485 282.726 75.2045 283.741 74.25C284.772 73.2803 286.007 72.7955 287.446 72.7955C288.885 72.7955 290.113 73.2803 291.128 74.25C292.158 75.2045 292.673 76.3485 292.673 77.6818C292.673 79.0303 292.158 80.1894 291.128 81.1591C290.113 82.1136 288.885 82.5909 287.446 82.5909ZM309.702 101.818V122H300.02V87.0909H309.247V93.25H309.656C310.429 91.2197 311.724 89.6136 313.543 88.4318C315.361 87.2348 317.565 86.6364 320.156 86.6364C322.58 86.6364 324.694 87.1667 326.497 88.2273C328.3 89.2879 329.702 90.803 330.702 92.7727C331.702 94.7273 332.202 97.0606 332.202 99.7727V122H322.52V101.5C322.535 99.3636 321.99 97.697 320.884 96.5C319.777 95.2879 318.255 94.6818 316.315 94.6818C315.012 94.6818 313.861 94.9621 312.861 95.5227C311.876 96.0833 311.103 96.9015 310.543 97.9773C309.997 99.0379 309.717 100.318 309.702 101.818ZM348.605 111.955L348.628 100.341H350.037L361.219 87.0909H372.332L357.31 104.636H355.014L348.605 111.955ZM339.832 122V75.4545H349.514V122H339.832ZM361.651 122L351.378 106.795L357.832 99.9545L372.991 122H361.651ZM377.082 122V87.0909H386.764V122H377.082ZM381.946 82.5909C380.507 82.5909 379.272 82.1136 378.241 81.1591C377.226 80.1894 376.719 79.0303 376.719 77.6818C376.719 76.3485 377.226 75.2045 378.241 74.25C379.272 73.2803 380.507 72.7955 381.946 72.7955C383.385 72.7955 384.613 73.2803 385.628 74.25C386.658 75.2045 387.173 76.3485 387.173 77.6818C387.173 79.0303 386.658 80.1894 385.628 81.1591C384.613 82.1136 383.385 82.5909 381.946 82.5909ZM404.202 101.818V122H394.52V87.0909H403.747V93.25H404.156C404.929 91.2197 406.224 89.6136 408.043 88.4318C409.861 87.2348 412.065 86.6364 414.656 86.6364C417.08 86.6364 419.194 87.1667 420.997 88.2273C422.8 89.2879 424.202 90.803 425.202 92.7727C426.202 94.7273 426.702 97.0606 426.702 99.7727V122H417.02V101.5C417.035 99.3636 416.49 97.697 415.384 96.5C414.277 95.2879 412.755 94.6818 410.815 94.6818C409.512 94.6818 408.361 94.9621 407.361 95.5227C406.376 96.0833 405.603 96.9015 405.043 97.9773C404.497 99.0379 404.217 100.318 404.202 101.818ZM450.06 135.818C446.923 135.818 444.234 135.386 441.991 134.523C439.764 133.674 437.991 132.515 436.673 131.045C435.355 129.576 434.499 127.924 434.105 126.091L443.06 124.886C443.332 125.583 443.764 126.235 444.355 126.841C444.946 127.447 445.726 127.932 446.696 128.295C447.681 128.674 448.878 128.864 450.287 128.864C452.393 128.864 454.128 128.348 455.491 127.318C456.87 126.303 457.56 124.598 457.56 122.205V115.818H457.151C456.726 116.788 456.09 117.705 455.241 118.568C454.393 119.432 453.302 120.136 451.969 120.682C450.635 121.227 449.045 121.5 447.196 121.5C444.575 121.5 442.188 120.894 440.037 119.682C437.901 118.455 436.196 116.583 434.923 114.068C433.666 111.538 433.037 108.341 433.037 104.477C433.037 100.523 433.681 97.2197 434.969 94.5682C436.257 91.9167 437.969 89.9318 440.105 88.6136C442.257 87.2955 444.613 86.6364 447.173 86.6364C449.128 86.6364 450.764 86.9697 452.082 87.6364C453.401 88.2879 454.461 89.1061 455.264 90.0909C456.082 91.0606 456.711 92.0152 457.151 92.9545H457.514V87.0909H467.128V122.341C467.128 125.311 466.401 127.795 464.946 129.795C463.491 131.795 461.476 133.295 458.901 134.295C456.34 135.311 453.393 135.818 450.06 135.818ZM450.264 114.227C451.825 114.227 453.143 113.841 454.219 113.068C455.31 112.28 456.143 111.159 456.719 109.705C457.31 108.235 457.605 106.477 457.605 104.432C457.605 102.386 457.317 100.614 456.741 99.1136C456.166 97.5985 455.332 96.4242 454.241 95.5909C453.151 94.7576 451.825 94.3409 450.264 94.3409C448.673 94.3409 447.332 94.7727 446.241 95.6364C445.151 96.4848 444.325 97.6667 443.764 99.1818C443.204 100.697 442.923 102.447 442.923 104.432C442.923 106.447 443.204 108.189 443.764 109.659C444.34 111.114 445.166 112.242 446.241 113.045C447.332 113.833 448.673 114.227 450.264 114.227Z" fill="#4F4D74"/>
<path d="M43.4 153H45.7V167H43.4V153ZM53.6177 156.74C54.7643 156.74 55.691 157.107 56.3977 157.84C57.1043 158.573 57.4577 159.58 57.4577 160.86V167H55.2977V161.08C55.2977 160.333 55.0977 159.76 54.6977 159.36C54.2977 158.96 53.751 158.76 53.0577 158.76C52.2977 158.76 51.6843 159 51.2177 159.48C50.751 159.947 50.5177 160.667 50.5177 161.64V167H48.3577V157H50.5177V158.28C51.171 157.253 52.2043 156.74 53.6177 156.74ZM67.7034 153H69.8634V167H67.7034V165.56C66.8901 166.693 65.7234 167.26 64.2034 167.26C62.8301 167.26 61.6568 166.753 60.6834 165.74C59.7101 164.713 59.2234 163.467 59.2234 162C59.2234 160.52 59.7101 159.273 60.6834 158.26C61.6568 157.247 62.8301 156.74 64.2034 156.74C65.7234 156.74 66.8901 157.3 67.7034 158.42V153ZM62.2834 164.3C62.8834 164.9 63.6368 165.2 64.5434 165.2C65.4501 165.2 66.2034 164.9 66.8034 164.3C67.4034 163.687 67.7034 162.92 67.7034 162C67.7034 161.08 67.4034 160.32 66.8034 159.72C66.2034 159.107 65.4501 158.8 64.5434 158.8C63.6368 158.8 62.8834 159.107 62.2834 159.72C61.6834 160.32 61.3834 161.08 61.3834 162C61.3834 162.92 61.6834 163.687 62.2834 164.3ZM74.4211 155.1C74.1544 155.367 73.8344 155.5 73.4611 155.5C73.0878 155.5 72.7611 155.367 72.4811 155.1C72.2144 154.82 72.0811 154.493 72.0811 154.12C72.0811 153.747 72.2144 153.427 72.4811 153.16C72.7478 152.88 73.0744 152.74 73.4611 152.74C73.8478 152.74 74.1744 152.88 74.4411 153.16C74.7078 153.427 74.8411 153.747 74.8411 154.12C74.8411 154.493 74.7011 154.82 74.4211 155.1ZM72.3811 167V157H74.5411V167H72.3811ZM84.9691 157H87.1291V167H84.9691V165.56C84.1557 166.693 82.9891 167.26 81.4691 167.26C80.0957 167.26 78.9224 166.753 77.9491 165.74C76.9757 164.713 76.4891 163.467 76.4891 162C76.4891 160.52 76.9757 159.273 77.9491 158.26C78.9224 157.247 80.0957 156.74 81.4691 156.74C82.9891 156.74 84.1557 157.3 84.9691 158.42V157ZM79.5491 164.3C80.1491 164.9 80.9024 165.2 81.8091 165.2C82.7157 165.2 83.4691 164.9 84.0691 164.3C84.6691 163.687 84.9691 162.92 84.9691 162C84.9691 161.08 84.6691 160.32 84.0691 159.72C83.4691 159.107 82.7157 158.8 81.8091 158.8C80.9024 158.8 80.1491 159.107 79.5491 159.72C78.9491 160.32 78.6491 161.08 78.6491 162C78.6491 162.92 78.9491 163.687 79.5491 164.3ZM103.027 159.74C103.64 160.06 104.12 160.5 104.467 161.06C104.813 161.62 104.987 162.267 104.987 163C104.987 164.147 104.58 165.1 103.767 165.86C102.953 166.62 101.96 167 100.787 167H94.7867V153H100.347C101.493 153 102.46 153.373 103.247 154.12C104.047 154.853 104.447 155.773 104.447 156.88C104.447 158.093 103.973 159.047 103.027 159.74ZM100.347 155.16H97.0867V158.84H100.347C100.853 158.84 101.28 158.667 101.627 158.32C101.973 157.96 102.147 157.52 102.147 157C102.147 156.48 101.973 156.047 101.627 155.7C101.28 155.34 100.853 155.16 100.347 155.16ZM100.787 164.84C101.32 164.84 101.767 164.653 102.127 164.28C102.5 163.893 102.687 163.427 102.687 162.88C102.687 162.333 102.5 161.873 102.127 161.5C101.767 161.113 101.32 160.92 100.787 160.92H97.0867V164.84H100.787ZM111.671 167.26C110.205 167.26 108.958 166.753 107.931 165.74C106.905 164.727 106.391 163.48 106.391 162C106.391 160.52 106.905 159.273 107.931 158.26C108.958 157.247 110.205 156.74 111.671 156.74C113.151 156.74 114.398 157.247 115.411 158.26C116.438 159.273 116.951 160.52 116.951 162C116.951 163.48 116.438 164.727 115.411 165.74C114.398 166.753 113.151 167.26 111.671 167.26ZM109.451 164.26C110.051 164.86 110.791 165.16 111.671 165.16C112.551 165.16 113.291 164.86 113.891 164.26C114.491 163.66 114.791 162.907 114.791 162C114.791 161.093 114.491 160.34 113.891 159.74C113.291 159.14 112.551 158.84 111.671 158.84C110.791 158.84 110.051 159.14 109.451 159.74C108.851 160.34 108.551 161.093 108.551 162C108.551 162.907 108.851 163.66 109.451 164.26ZM123.625 167.26C122.158 167.26 120.911 166.753 119.885 165.74C118.858 164.727 118.345 163.48 118.345 162C118.345 160.52 118.858 159.273 119.885 158.26C120.911 157.247 122.158 156.74 123.625 156.74C125.105 156.74 126.351 157.247 127.365 158.26C128.391 159.273 128.905 160.52 128.905 162C128.905 163.48 128.391 164.727 127.365 165.74C126.351 166.753 125.105 167.26 123.625 167.26ZM121.405 164.26C122.005 164.86 122.745 165.16 123.625 165.16C124.505 165.16 125.245 164.86 125.845 164.26C126.445 163.66 126.745 162.907 126.745 162C126.745 161.093 126.445 160.34 125.845 159.74C125.245 159.14 124.505 158.84 123.625 158.84C122.745 158.84 122.005 159.14 121.405 159.74C120.805 160.34 120.505 161.093 120.505 162C120.505 162.907 120.805 163.66 121.405 164.26ZM139.698 167H137.118L133.018 162.38V167H130.858V153H133.018V161.42L136.898 157H139.538L135.138 161.9L139.698 167ZM150.871 167.26C149.404 167.26 148.157 166.753 147.131 165.74C146.104 164.727 145.591 163.48 145.591 162C145.591 160.52 146.104 159.273 147.131 158.26C148.157 157.247 149.404 156.74 150.871 156.74C152.351 156.74 153.597 157.247 154.611 158.26C155.637 159.273 156.151 160.52 156.151 162C156.151 163.48 155.637 164.727 154.611 165.74C153.597 166.753 152.351 167.26 150.871 167.26ZM148.651 164.26C149.251 164.86 149.991 165.16 150.871 165.16C151.751 165.16 152.491 164.86 153.091 164.26C153.691 163.66 153.991 162.907 153.991 162C153.991 161.093 153.691 160.34 153.091 159.74C152.491 159.14 151.751 158.84 150.871 158.84C149.991 158.84 149.251 159.14 148.651 159.74C148.051 160.34 147.751 161.093 147.751 162C147.751 162.907 148.051 163.66 148.651 164.26ZM162.992 154.82C161.419 154.673 160.632 155.333 160.632 156.8V157H162.992V159.08H160.632V167H158.472V159.08H156.952V157H158.472V156.8C158.472 155.427 158.852 154.387 159.612 153.68C160.386 152.96 161.512 152.647 162.992 152.74V154.82ZM177.376 167L174.416 161.9H171.696V167H169.396V153H174.996C176.249 153 177.309 153.44 178.176 154.32C179.056 155.187 179.496 156.247 179.496 157.5C179.496 158.393 179.236 159.213 178.716 159.96C178.209 160.693 177.543 161.227 176.716 161.56L179.896 167H177.376ZM171.696 155.16V159.84H174.996C175.609 159.84 176.129 159.613 176.556 159.16C176.983 158.707 177.196 158.153 177.196 157.5C177.196 156.847 176.983 156.293 176.556 155.84C176.129 155.387 175.609 155.16 174.996 155.16H171.696ZM182.694 162.92C182.854 163.68 183.221 164.267 183.794 164.68C184.368 165.08 185.068 165.28 185.894 165.28C187.041 165.28 187.901 164.867 188.474 164.04L190.254 165.08C189.268 166.533 187.808 167.26 185.874 167.26C184.248 167.26 182.934 166.767 181.934 165.78C180.934 164.78 180.434 163.52 180.434 162C180.434 160.507 180.928 159.26 181.914 158.26C182.901 157.247 184.168 156.74 185.714 156.74C187.181 156.74 188.381 157.253 189.314 158.28C190.261 159.307 190.734 160.553 190.734 162.02C190.734 162.247 190.708 162.547 190.654 162.92H182.694ZM182.674 161.16H188.554C188.408 160.347 188.068 159.733 187.534 159.32C187.014 158.907 186.401 158.7 185.694 158.7C184.894 158.7 184.228 158.92 183.694 159.36C183.161 159.8 182.821 160.4 182.674 161.16ZM197.296 167.26C195.79 167.26 194.53 166.753 193.516 165.74C192.516 164.727 192.016 163.48 192.016 162C192.016 160.507 192.516 159.26 193.516 158.26C194.53 157.247 195.79 156.74 197.296 156.74C198.27 156.74 199.156 156.973 199.956 157.44C200.756 157.907 201.356 158.533 201.756 159.32L199.896 160.4C199.67 159.92 199.323 159.547 198.856 159.28C198.403 159 197.876 158.86 197.276 158.86C196.396 158.86 195.656 159.16 195.056 159.76C194.47 160.36 194.176 161.107 194.176 162C194.176 162.893 194.47 163.64 195.056 164.24C195.656 164.84 196.396 165.14 197.276 165.14C197.863 165.14 198.39 165 198.856 164.72C199.336 164.44 199.696 164.067 199.936 163.6L201.796 164.66C201.37 165.46 200.756 166.093 199.956 166.56C199.156 167.027 198.27 167.26 197.296 167.26ZM207.921 167.26C206.455 167.26 205.208 166.753 204.181 165.74C203.155 164.727 202.641 163.48 202.641 162C202.641 160.52 203.155 159.273 204.181 158.26C205.208 157.247 206.455 156.74 207.921 156.74C209.401 156.74 210.648 157.247 211.661 158.26C212.688 159.273 213.201 160.52 213.201 162C213.201 163.48 212.688 164.727 211.661 165.74C210.648 166.753 209.401 167.26 207.921 167.26ZM205.701 164.26C206.301 164.86 207.041 165.16 207.921 165.16C208.801 165.16 209.541 164.86 210.141 164.26C210.741 163.66 211.041 162.907 211.041 162C211.041 161.093 210.741 160.34 210.141 159.74C209.541 159.14 208.801 158.84 207.921 158.84C207.041 158.84 206.301 159.14 205.701 159.74C205.101 160.34 204.801 161.093 204.801 162C204.801 162.907 205.101 163.66 205.701 164.26ZM217.315 158.68C217.861 157.44 218.888 156.82 220.395 156.82V159.16C219.568 159.107 218.848 159.307 218.235 159.76C217.621 160.2 217.315 160.933 217.315 161.96V167H215.155V157H217.315V158.68ZM229.442 153H231.602V167H229.442V165.56C228.628 166.693 227.462 167.26 225.942 167.26C224.568 167.26 223.395 166.753 222.422 165.74C221.448 164.713 220.962 163.467 220.962 162C220.962 160.52 221.448 159.273 222.422 158.26C223.395 157.247 224.568 156.74 225.942 156.74C227.462 156.74 228.628 157.3 229.442 158.42V153ZM224.022 164.3C224.622 164.9 225.375 165.2 226.282 165.2C227.188 165.2 227.942 164.9 228.542 164.3C229.142 163.687 229.442 162.92 229.442 162C229.442 161.08 229.142 160.32 228.542 159.72C227.942 159.107 227.188 158.8 226.282 158.8C225.375 158.8 224.622 159.107 224.022 159.72C223.422 160.32 223.122 161.08 223.122 162C223.122 162.92 223.422 163.687 224.022 164.3ZM247.559 153H249.859V167H247.559V160.94H241.559V167H239.259V153H241.559V158.74H247.559V153ZM257.238 167.26C255.771 167.26 254.524 166.753 253.498 165.74C252.471 164.727 251.958 163.48 251.958 162C251.958 160.52 252.471 159.273 253.498 158.26C254.524 157.247 255.771 156.74 257.238 156.74C258.718 156.74 259.964 157.247 260.978 158.26C262.004 159.273 262.518 160.52 262.518 162C262.518 163.48 262.004 164.727 260.978 165.74C259.964 166.753 258.718 167.26 257.238 167.26ZM255.018 164.26C255.618 164.86 256.358 165.16 257.238 165.16C258.118 165.16 258.858 164.86 259.458 164.26C260.058 163.66 260.358 162.907 260.358 162C260.358 161.093 260.058 160.34 259.458 159.74C258.858 159.14 258.118 158.84 257.238 158.84C256.358 158.84 255.618 159.14 255.018 159.74C254.418 160.34 254.118 161.093 254.118 162C254.118 162.907 254.418 163.66 255.018 164.26ZM264.471 167V152.4H266.631V167H264.471ZM277.059 153H279.219V167H277.059V165.56C276.246 166.693 275.079 167.26 273.559 167.26C272.186 167.26 271.012 166.753 270.039 165.74C269.066 164.713 268.579 163.467 268.579 162C268.579 160.52 269.066 159.273 270.039 158.26C271.012 157.247 272.186 156.74 273.559 156.74C275.079 156.74 276.246 157.3 277.059 158.42V153ZM271.639 164.3C272.239 164.9 272.992 165.2 273.899 165.2C274.806 165.2 275.559 164.9 276.159 164.3C276.759 163.687 277.059 162.92 277.059 162C277.059 161.08 276.759 160.32 276.159 159.72C275.559 159.107 274.806 158.8 273.899 158.8C272.992 158.8 272.239 159.107 271.639 159.72C271.039 160.32 270.739 161.08 270.739 162C270.739 162.92 271.039 163.687 271.639 164.3ZM283.437 162.92C283.597 163.68 283.963 164.267 284.537 164.68C285.11 165.08 285.81 165.28 286.637 165.28C287.783 165.28 288.643 164.867 289.217 164.04L290.997 165.08C290.01 166.533 288.55 167.26 286.617 167.26C284.99 167.26 283.677 166.767 282.677 165.78C281.677 164.78 281.177 163.52 281.177 162C281.177 160.507 281.67 159.26 282.657 158.26C283.643 157.247 284.91 156.74 286.457 156.74C287.923 156.74 289.123 157.253 290.057 158.28C291.003 159.307 291.477 160.553 291.477 162.02C291.477 162.247 291.45 162.547 291.397 162.92H283.437ZM283.417 161.16H289.297C289.15 160.347 288.81 159.733 288.277 159.32C287.757 158.907 287.143 158.7 286.437 158.7C285.637 158.7 284.97 158.92 284.437 159.36C283.903 159.8 283.563 160.4 283.417 161.16ZM295.537 158.68C296.084 157.44 297.111 156.82 298.617 156.82V159.16C297.791 159.107 297.071 159.307 296.457 159.76C295.844 160.2 295.537 160.933 295.537 161.96V167H293.377V157H295.537V158.68ZM311.973 167.26C309.866 167.26 308.12 166.567 306.733 165.18C305.346 163.78 304.653 162.053 304.653 160C304.653 157.947 305.346 156.227 306.733 154.84C308.12 153.44 309.866 152.74 311.973 152.74C313.24 152.74 314.406 153.04 315.473 153.64C316.553 154.24 317.393 155.053 317.993 156.08L315.993 157.24C315.62 156.547 315.073 156 314.353 155.6C313.646 155.187 312.853 154.98 311.973 154.98C310.48 154.98 309.266 155.453 308.333 156.4C307.413 157.347 306.953 158.547 306.953 160C306.953 161.453 307.413 162.653 308.333 163.6C309.266 164.547 310.48 165.02 311.973 165.02C312.853 165.02 313.653 164.82 314.373 164.42C315.093 164.007 315.633 163.453 315.993 162.76L317.993 163.9C317.406 164.927 316.573 165.747 315.493 166.36C314.426 166.96 313.253 167.26 311.973 167.26ZM324.464 167.26C322.998 167.26 321.751 166.753 320.724 165.74C319.698 164.727 319.184 163.48 319.184 162C319.184 160.52 319.698 159.273 320.724 158.26C321.751 157.247 322.998 156.74 324.464 156.74C325.944 156.74 327.191 157.247 328.204 158.26C329.231 159.273 329.744 160.52 329.744 162C329.744 163.48 329.231 164.727 328.204 165.74C327.191 166.753 325.944 167.26 324.464 167.26ZM322.244 164.26C322.844 164.86 323.584 165.16 324.464 165.16C325.344 165.16 326.084 164.86 326.684 164.26C327.284 163.66 327.584 162.907 327.584 162C327.584 161.093 327.284 160.34 326.684 159.74C326.084 159.14 325.344 158.84 324.464 158.84C323.584 158.84 322.844 159.14 322.244 159.74C321.644 160.34 321.344 161.093 321.344 162C321.344 162.907 321.644 163.66 322.244 164.26ZM342.618 156.74C343.751 156.74 344.664 157.107 345.358 157.84C346.051 158.573 346.398 159.56 346.398 160.8V167H344.238V160.94C344.238 160.247 344.064 159.713 343.718 159.34C343.371 158.953 342.898 158.76 342.298 158.76C341.631 158.76 341.098 158.98 340.698 159.42C340.311 159.86 340.118 160.52 340.118 161.4V167H337.958V160.94C337.958 160.247 337.791 159.713 337.458 159.34C337.138 158.953 336.678 158.76 336.078 158.76C335.424 158.76 334.891 158.987 334.478 159.44C334.064 159.88 333.858 160.533 333.858 161.4V167H331.698V157H333.858V158.2C334.498 157.227 335.451 156.74 336.718 156.74C337.998 156.74 338.944 157.267 339.558 158.32C340.224 157.267 341.244 156.74 342.618 156.74ZM354.369 156.74C355.743 156.74 356.916 157.253 357.889 158.28C358.863 159.293 359.349 160.533 359.349 162C359.349 163.48 358.863 164.727 357.889 165.74C356.916 166.753 355.743 167.26 354.369 167.26C352.849 167.26 351.683 166.7 350.869 165.58V171H348.709V157H350.869V158.44C351.683 157.307 352.849 156.74 354.369 156.74ZM351.769 164.3C352.369 164.9 353.123 165.2 354.029 165.2C354.936 165.2 355.689 164.9 356.289 164.3C356.889 163.687 357.189 162.92 357.189 162C357.189 161.08 356.889 160.32 356.289 159.72C355.689 159.107 354.936 158.8 354.029 158.8C353.123 158.8 352.369 159.107 351.769 159.72C351.169 160.32 350.869 161.08 350.869 162C350.869 162.92 351.169 163.687 351.769 164.3ZM369.227 157H371.387V167H369.227V165.56C368.414 166.693 367.247 167.26 365.727 167.26C364.354 167.26 363.18 166.753 362.207 165.74C361.234 164.713 360.747 163.467 360.747 162C360.747 160.52 361.234 159.273 362.207 158.26C363.18 157.247 364.354 156.74 365.727 156.74C367.247 156.74 368.414 157.3 369.227 158.42V157ZM363.807 164.3C364.407 164.9 365.16 165.2 366.067 165.2C366.974 165.2 367.727 164.9 368.327 164.3C368.927 163.687 369.227 162.92 369.227 162C369.227 161.08 368.927 160.32 368.327 159.72C367.727 159.107 366.974 158.8 366.067 158.8C365.16 158.8 364.407 159.107 363.807 159.72C363.207 160.32 362.907 161.08 362.907 162C362.907 162.92 363.207 163.687 363.807 164.3ZM379.165 156.74C380.311 156.74 381.238 157.107 381.945 157.84C382.651 158.573 383.005 159.58 383.005 160.86V167H380.845V161.08C380.845 160.333 380.645 159.76 380.245 159.36C379.845 158.96 379.298 158.76 378.605 158.76C377.845 158.76 377.231 159 376.765 159.48C376.298 159.947 376.065 160.667 376.065 161.64V167H373.905V157H376.065V158.28C376.718 157.253 377.751 156.74 379.165 156.74ZM391.875 157H394.175L390.335 167.32C389.375 169.907 387.748 171.133 385.455 171V168.98C386.135 169.02 386.682 168.873 387.095 168.54C387.508 168.22 387.848 167.713 388.115 167.02L388.215 166.82L383.975 157H386.335L389.315 164.26L391.875 157Z" fill="#A7B0B8"/>
<path d="M503.22 160C503.22 161.867 502.607 163.48 501.38 164.84L502.86 166.36L501.24 167.82L499.7 166.24C498.527 166.92 497.28 167.26 495.96 167.26C493.947 167.26 492.233 166.56 490.82 165.16C489.407 163.747 488.7 162.027 488.7 160C488.7 157.973 489.407 156.26 490.82 154.86C492.233 153.447 493.947 152.74 495.96 152.74C497.973 152.74 499.687 153.447 501.1 154.86C502.513 156.26 503.22 157.973 503.22 160ZM495.96 165.02C496.707 165.02 497.407 164.867 498.06 164.56L495.5 161.94L497.12 160.48L499.8 163.22C500.547 162.3 500.92 161.227 500.92 160C500.92 158.573 500.44 157.38 499.48 156.42C498.52 155.46 497.347 154.98 495.96 154.98C494.573 154.98 493.4 155.46 492.44 156.42C491.48 157.38 491 158.573 491 160C491 161.427 491.48 162.62 492.44 163.58C493.4 164.54 494.573 165.02 495.96 165.02ZM512.133 157H514.293V167H512.133V165.72C511.479 166.747 510.446 167.26 509.033 167.26C507.886 167.26 506.959 166.893 506.253 166.16C505.546 165.427 505.193 164.42 505.193 163.14V157H507.353V162.92C507.353 163.667 507.553 164.24 507.953 164.64C508.353 165.04 508.899 165.24 509.593 165.24C510.353 165.24 510.966 165.007 511.433 164.54C511.899 164.06 512.133 163.333 512.133 162.36V157ZM524.739 157H526.899V167H524.739V165.56C523.925 166.693 522.759 167.26 521.239 167.26C519.865 167.26 518.692 166.753 517.719 165.74C516.745 164.713 516.259 163.467 516.259 162C516.259 160.52 516.745 159.273 517.719 158.26C518.692 157.247 519.865 156.74 521.239 156.74C522.759 156.74 523.925 157.3 524.739 158.42V157ZM519.319 164.3C519.919 164.9 520.672 165.2 521.579 165.2C522.485 165.2 523.239 164.9 523.839 164.3C524.439 163.687 524.739 162.92 524.739 162C524.739 161.08 524.439 160.32 523.839 159.72C523.239 159.107 522.485 158.8 521.579 158.8C520.672 158.8 519.919 159.107 519.319 159.72C518.719 160.32 518.419 161.08 518.419 162C518.419 162.92 518.719 163.687 519.319 164.3ZM529.416 167V152.4H531.576V167H529.416ZM536.124 155.1C535.858 155.367 535.538 155.5 535.164 155.5C534.791 155.5 534.464 155.367 534.184 155.1C533.918 154.82 533.784 154.493 533.784 154.12C533.784 153.747 533.918 153.427 534.184 153.16C534.451 152.88 534.778 152.74 535.164 152.74C535.551 152.74 535.878 152.88 536.144 153.16C536.411 153.427 536.544 153.747 536.544 154.12C536.544 154.493 536.404 154.82 536.124 155.1ZM534.084 167V157H536.244V167H534.084ZM547.112 157V167H544.952V159.08H541.632V167H539.472V159.08H537.952V157H539.472V156.8C539.472 154.093 540.979 152.74 543.992 152.74C544.699 152.74 545.439 152.827 546.212 153V154.98C545.506 154.873 544.766 154.82 543.992 154.82C543.192 154.82 542.599 154.967 542.212 155.26C541.826 155.553 541.632 156.067 541.632 156.8V157H547.112ZM551.312 162.92C551.472 163.68 551.838 164.267 552.412 164.68C552.985 165.08 553.685 165.28 554.512 165.28C555.658 165.28 556.518 164.867 557.092 164.04L558.872 165.08C557.885 166.533 556.425 167.26 554.492 167.26C552.865 167.26 551.552 166.767 550.552 165.78C549.552 164.78 549.052 163.52 549.052 162C549.052 160.507 549.545 159.26 550.532 158.26C551.518 157.247 552.785 156.74 554.332 156.74C555.798 156.74 556.998 157.253 557.932 158.28C558.878 159.307 559.352 160.553 559.352 162.02C559.352 162.247 559.325 162.547 559.272 162.92H551.312ZM551.292 161.16H557.172C557.025 160.347 556.685 159.733 556.152 159.32C555.632 158.907 555.018 158.7 554.312 158.7C553.512 158.7 552.845 158.92 552.312 159.36C551.778 159.8 551.438 160.4 551.292 161.16ZM569.114 153H571.274V167H569.114V165.56C568.3 166.693 567.134 167.26 565.614 167.26C564.24 167.26 563.067 166.753 562.094 165.74C561.12 164.713 560.634 163.467 560.634 162C560.634 160.52 561.12 159.273 562.094 158.26C563.067 157.247 564.24 156.74 565.614 156.74C567.134 156.74 568.3 157.3 569.114 158.42V153ZM563.694 164.3C564.294 164.9 565.047 165.2 565.954 165.2C566.86 165.2 567.614 164.9 568.214 164.3C568.814 163.687 569.114 162.92 569.114 162C569.114 161.08 568.814 160.32 568.214 159.72C567.614 159.107 566.86 158.8 565.954 158.8C565.047 158.8 564.294 159.107 563.694 159.72C563.094 160.32 562.794 161.08 562.794 162C562.794 162.92 563.094 163.687 563.694 164.3ZM578.931 153H581.231V167H578.931V153ZM589.149 156.74C590.296 156.74 591.222 157.107 591.929 157.84C592.636 158.573 592.989 159.58 592.989 160.86V167H590.829V161.08C590.829 160.333 590.629 159.76 590.229 159.36C589.829 158.96 589.282 158.76 588.589 158.76C587.829 158.76 587.216 159 586.749 159.48C586.282 159.947 586.049 160.667 586.049 161.64V167H583.889V157H586.049V158.28C586.702 157.253 587.736 156.74 589.149 156.74ZM597.255 159.76C597.255 160.093 597.435 160.36 597.795 160.56C598.168 160.747 598.615 160.913 599.135 161.06C599.668 161.193 600.201 161.353 600.735 161.54C601.268 161.727 601.715 162.047 602.075 162.5C602.448 162.94 602.635 163.5 602.635 164.18C602.635 165.14 602.261 165.893 601.515 166.44C600.781 166.987 599.855 167.26 598.735 167.26C597.748 167.26 596.901 167.053 596.195 166.64C595.488 166.227 594.975 165.653 594.655 164.92L596.515 163.84C596.861 164.8 597.601 165.28 598.735 165.28C599.868 165.28 600.435 164.907 600.435 164.16C600.435 163.84 600.248 163.58 599.875 163.38C599.515 163.18 599.068 163.013 598.535 162.88C598.015 162.733 597.488 162.567 596.955 162.38C596.421 162.193 595.968 161.887 595.595 161.46C595.235 161.02 595.055 160.467 595.055 159.8C595.055 158.88 595.401 158.14 596.095 157.58C596.801 157.02 597.675 156.74 598.715 156.74C599.541 156.74 600.275 156.927 600.915 157.3C601.568 157.66 602.068 158.167 602.415 158.82L600.595 159.84C600.248 159.08 599.621 158.7 598.715 158.7C598.301 158.7 597.955 158.793 597.675 158.98C597.395 159.153 597.255 159.413 597.255 159.76ZM609.723 159.08H607.243V163.88C607.243 164.293 607.336 164.593 607.523 164.78C607.709 164.953 607.983 165.053 608.343 165.08C608.716 165.093 609.176 165.087 609.723 165.06V167C608.069 167.2 606.883 167.06 606.163 166.58C605.443 166.087 605.083 165.187 605.083 163.88V159.08H603.243V157H605.083V154.84L607.243 154.2V157H609.723V159.08ZM613.94 158.68C614.486 157.44 615.513 156.82 617.02 156.82V159.16C616.193 159.107 615.473 159.307 614.86 159.76C614.246 160.2 613.94 160.933 613.94 161.96V167H611.78V157H613.94V158.68ZM625.355 157H627.515V167H625.355V165.72C624.702 166.747 623.669 167.26 622.255 167.26C621.109 167.26 620.182 166.893 619.475 166.16C618.769 165.427 618.415 164.42 618.415 163.14V157H620.575V162.92C620.575 163.667 620.775 164.24 621.175 164.64C621.575 165.04 622.122 165.24 622.815 165.24C623.575 165.24 624.189 165.007 624.655 164.54C625.122 164.06 625.355 163.333 625.355 162.36V157ZM634.761 167.26C633.255 167.26 631.995 166.753 630.981 165.74C629.981 164.727 629.481 163.48 629.481 162C629.481 160.507 629.981 159.26 630.981 158.26C631.995 157.247 633.255 156.74 634.761 156.74C635.735 156.74 636.621 156.973 637.421 157.44C638.221 157.907 638.821 158.533 639.221 159.32L637.361 160.4C637.135 159.92 636.788 159.547 636.321 159.28C635.868 159 635.341 158.86 634.741 158.86C633.861 158.86 633.121 159.16 632.521 159.76C631.935 160.36 631.641 161.107 631.641 162C631.641 162.893 631.935 163.64 632.521 164.24C633.121 164.84 633.861 165.14 634.741 165.14C635.328 165.14 635.855 165 636.321 164.72C636.801 164.44 637.161 164.067 637.401 163.6L639.261 164.66C638.835 165.46 638.221 166.093 637.421 166.56C636.621 167.027 635.735 167.26 634.761 167.26ZM646.403 159.08H643.923V163.88C643.923 164.293 644.016 164.593 644.203 164.78C644.389 164.953 644.663 165.053 645.023 165.08C645.396 165.093 645.856 165.087 646.403 165.06V167C644.749 167.2 643.563 167.06 642.843 166.58C642.123 166.087 641.763 165.187 641.763 163.88V159.08H639.923V157H641.763V154.84L643.923 154.2V157H646.403V159.08ZM652.671 167.26C651.205 167.26 649.958 166.753 648.931 165.74C647.905 164.727 647.391 163.48 647.391 162C647.391 160.52 647.905 159.273 648.931 158.26C649.958 157.247 651.205 156.74 652.671 156.74C654.151 156.74 655.398 157.247 656.411 158.26C657.438 159.273 657.951 160.52 657.951 162C657.951 163.48 657.438 164.727 656.411 165.74C655.398 166.753 654.151 167.26 652.671 167.26ZM650.451 164.26C651.051 164.86 651.791 165.16 652.671 165.16C653.551 165.16 654.291 164.86 654.891 164.26C655.491 163.66 655.791 162.907 655.791 162C655.791 161.093 655.491 160.34 654.891 159.74C654.291 159.14 653.551 158.84 652.671 158.84C651.791 158.84 651.051 159.14 650.451 159.74C649.851 160.34 649.551 161.093 649.551 162C649.551 162.907 649.851 163.66 650.451 164.26ZM662.065 158.68C662.611 157.44 663.638 156.82 665.145 156.82V159.16C664.318 159.107 663.598 159.307 662.985 159.76C662.371 160.2 662.065 160.933 662.065 161.96V167H659.905V157H662.065V158.68Z" fill="#A7B0B8"/>
<path d="M21.4375 149.75V160.622C21.4375 161.086 21.1881 161.519 20.79 161.755L15.4219 164.625H12.5781L7.2275 161.764C6.81188 161.519 6.5625 161.086 6.5625 160.622V149.75H21.4375Z" fill="#3867D6"/>
<path d="M21.4375 149.75V160.622C21.4375 161.086 21.1881 161.519 20.79 161.755L17.0625 163.75L15.4219 164.625H12.5781L11.1694 163.872L10.9375 163.75V149.75H21.4375Z" fill="#2D98DA"/>
<path d="M21.4375 149.75V160.622C21.4375 161.086 21.1881 161.519 20.79 161.755L17.0625 163.75V149.75H21.4375Z" fill="#3867D6"/>
<path d="M13.4531 164.625H12.5781L7.2275 161.764C6.81188 161.519 6.5625 161.086 6.5625 160.622V149.75H7.4375V160.622C7.4375 160.779 7.525 160.924 7.67375 161.011L12.9894 163.855C13.2869 164.013 13.4531 164.314 13.4531 164.625Z" fill="#4B7BEC"/>
<path d="M21.4375 149.75V160.622C21.4375 161.086 21.1881 161.519 20.79 161.755L17.0625 163.75L15.4219 164.625H14.5469C14.5469 164.314 14.7131 164.013 15.0106 163.855L20.3788 160.985C20.475 160.924 20.5625 160.775 20.5625 160.622V149.75H21.4375Z" fill="#206C9A"/>
<path d="M21.4375 149.75V160.622C21.4375 161.086 21.1881 161.519 20.79 161.755L17.0625 163.75V162.757L20.3788 160.985C20.475 160.924 20.5625 160.775 20.5625 160.622V149.75H21.4375Z" fill="#274896"/>
<path d="M13.4531 164.625H12.5781L11.1694 163.873L10.9375 163.75V162.757L12.9894 163.855C13.2869 164.013 13.4531 164.314 13.4531 164.625Z" fill="#45AAF2"/>
<path d="M22.75 150.188C22.75 150.909 22.1594 151.5 21.4375 151.5H6.5625C6.41375 151.5 6.26938 151.474 6.13375 151.426H6.12938C5.8975 151.343 5.69625 151.198 5.5475 151.01C5.45125 150.896 5.37688 150.761 5.32442 150.616C5.27625 150.481 5.25 150.336 5.25 150.188C5.25 149.466 5.84062 148.875 6.5625 148.875H21.4375C21.5863 148.875 21.7306 148.901 21.8662 148.949C22.0981 149.028 22.2994 149.177 22.4525 149.365C22.5487 149.479 22.6231 149.614 22.6756 149.759C22.7238 149.894 22.75 150.039 22.75 150.188Z" fill="#F7B731"/>
<path d="M21.4375 148.875C21.4375 149.356 21.0437 149.75 20.5625 149.75H6.5625C6.32625 149.75 6.125 149.951 6.125 150.188C6.125 150.564 5.88438 150.888 5.5475 151.01C5.45125 150.896 5.37688 150.761 5.32442 150.616C5.27625 150.481 5.25 150.336 5.25 150.188C5.25 149.466 5.84062 148.875 6.5625 148.875H21.4375Z" fill="#FED330"/>
<path d="M22.7495 150.188C22.7495 150.91 22.1589 151.5 21.437 151.5H6.56203C6.41328 151.5 6.26891 151.474 6.13328 151.426H6.12891C6.16828 150.98 6.54453 150.625 6.99953 150.625H21.437C21.6733 150.625 21.8745 150.424 21.8745 150.188C21.8745 149.811 22.1152 149.488 22.452 149.365C22.5483 149.479 22.6227 149.615 22.6752 149.759C22.7233 149.895 22.7495 150.039 22.7495 150.188Z" fill="#B78824"/>
<path d="M20.16 168.479L17.8588 170.155C17.7013 170.269 17.64 170.466 17.6969 170.645L18.5763 173.349C18.76 173.9 18.5719 174.477 18.095 174.814C17.8719 174.981 17.605 175.072 17.3294 175.072C17.0581 175.072 16.7913 174.985 16.555 174.814L14.2581 173.143C14.1838 173.091 14.0919 173.06 14 173.06C13.9081 173.06 13.8163 173.091 13.7375 173.143L13.4138 173.379L11.445 174.814C11.2263 174.972 10.9813 175.059 10.7319 175.068C10.7101 175.072 10.6926 175.072 10.6707 175.072C10.3951 175.072 10.1282 174.981 9.89631 174.81C9.42818 174.477 9.24006 173.9 9.42381 173.349L10.3032 170.645C10.3601 170.466 10.2988 170.269 10.1413 170.155L7.84006 168.484C7.37193 168.138 7.18818 167.565 7.36756 167.018C7.53818 166.467 8.02814 166.108 8.61443 166.108H11.4582C11.6507 166.108 11.8126 165.99 11.8738 165.806L12.4426 164.052L12.7532 163.102C12.8494 162.805 13.0376 162.56 13.2869 162.407C13.4926 162.271 13.7376 162.197 14.0001 162.197C14.2669 162.197 14.5119 162.271 14.7176 162.411C14.9626 162.564 15.1507 162.805 15.2469 163.107L15.5576 164.052L16.1263 165.806C16.1876 165.99 16.3494 166.108 16.5419 166.108H19.3857C19.9719 166.108 20.4619 166.467 20.6326 167.022C20.8119 167.565 20.6281 168.138 20.16 168.479Z" fill="#F7B731"/>
<path d="M7.84 168.479L10.1412 170.155C10.2987 170.269 10.36 170.466 10.3031 170.645L9.42375 173.349C9.24 173.9 9.42812 174.478 9.905 174.814C10.1281 174.981 10.395 175.073 10.6706 175.073C10.9419 175.073 11.2087 174.985 11.445 174.814L13.7419 173.143C13.8162 173.091 13.9081 173.06 14 173.06C14.0919 173.06 14.1837 173.091 14.2625 173.143L14.5863 173.379C14.6563 173.13 14.6125 172.854 14.4507 172.627C14.1663 172.238 13.615 172.15 13.2257 172.434L10.9288 174.106C10.7669 174.224 10.5744 174.224 10.4257 174.114C10.2507 173.988 10.1938 173.813 10.255 173.624L11.1344 170.916C11.3094 170.374 11.1213 169.783 10.6575 169.446L8.35187 167.775C8.19875 167.657 8.13745 167.477 8.19875 167.298C8.26 167.093 8.41312 166.983 8.61437 166.983H11.4581C12.0269 166.983 12.53 166.62 12.705 166.078L13.5844 163.378C13.7025 163.015 13.5712 162.63 13.2825 162.411C13.0375 162.564 12.8494 162.805 12.7531 163.107L12.4425 164.052L11.8737 165.806C11.8125 165.99 11.6506 166.108 11.4581 166.108H8.61437C8.02812 166.108 7.53812 166.467 7.3675 167.023C7.18812 167.565 7.37187 168.138 7.84 168.479Z" fill="#FED330"/>
<path d="M14.4156 163.374L15.295 166.078C15.47 166.62 15.9731 166.983 16.5419 166.983H19.3856C19.5869 166.983 19.74 167.093 19.7969 167.281C19.8625 167.478 19.8056 167.657 19.6394 167.779L17.3425 169.446C16.8787 169.783 16.6906 170.374 16.8656 170.916L17.745 173.62C17.8063 173.808 17.7494 173.988 17.5963 174.097C17.2813 174.32 17.1588 174.718 17.2681 175.068C17.29 175.073 17.3075 175.073 17.3294 175.073C17.605 175.073 17.8719 174.981 18.1038 174.81C18.5719 174.477 18.76 173.9 18.5762 173.349L17.6969 170.645C17.64 170.466 17.7012 170.269 17.8587 170.155L20.16 168.484C20.6281 168.138 20.8119 167.565 20.6325 167.018C20.4619 166.467 19.9719 166.108 19.3856 166.108H16.5419C16.3494 166.108 16.1875 165.99 16.1262 165.806L15.5575 164.052L15.2469 163.103C15.1506 162.805 14.9625 162.56 14.7131 162.407C14.4287 162.63 14.2975 163.011 14.4156 163.374Z" fill="#B78824"/>
<g clip-path="url(#clip0_1629_655)">
<path d="M463 175.732C470.581 175.732 476.727 169.586 476.727 162.005C476.727 154.424 470.581 148.279 463 148.279C455.419 148.279 449.273 154.424 449.273 162.005C449.273 169.586 455.419 175.732 463 175.732Z" fill="#E67368"/>
<path d="M472.707 152.298L453.293 171.712C458.652 177.072 467.342 177.072 472.707 171.712C478.066 166.348 478.066 157.658 472.707 152.298Z" fill="#DB3328"/>
<path d="M462.584 162.432C462.682 162.536 462.825 162.602 462.983 162.602H476.715C476.732 162.219 476.732 161.836 476.721 161.508H463.508L462.584 162.432Z" fill="#B5100B"/>
<path d="M463 173.545C469.373 173.545 474.539 168.378 474.539 162.005C474.539 155.633 469.373 150.466 463 150.466C456.627 150.466 451.461 155.633 451.461 162.005C451.461 168.378 456.627 173.545 463 173.545Z" fill="#FFFCFA"/>
<path d="M454.841 170.165C456.93 172.254 459.812 173.545 463 173.545C469.371 173.545 474.539 168.377 474.539 162.005C474.539 158.817 473.248 155.935 471.159 153.846L454.841 170.165Z" fill="#EBEADF"/>
<path d="M462.584 162.432C462.682 162.536 462.825 162.602 462.983 162.602H474.522C474.533 162.383 474.539 162.213 474.539 162.016C474.539 161.847 474.533 161.672 474.528 161.508H463.508L462.584 162.432Z" fill="#C4C1AB"/>
<path d="M463 171.193C468.074 171.193 472.188 167.08 472.188 162.005C472.188 156.931 468.074 152.818 463 152.818C457.926 152.818 453.812 156.931 453.812 162.005C453.812 167.08 457.926 171.193 463 171.193Z" fill="#E67368"/>
<path d="M456.503 168.502C458.166 170.165 460.462 171.193 463 171.193C468.075 171.193 472.187 167.08 472.187 162.005C472.187 159.468 471.159 157.171 469.497 155.509L456.503 168.502Z" fill="#DB3328"/>
<path d="M462.584 162.432C462.682 162.536 462.825 162.602 462.983 162.602H472.165C472.176 162.383 472.182 162.213 472.182 162.016C472.182 161.847 472.176 161.672 472.165 161.508H463.508L462.584 162.432Z" fill="#B5100B"/>
<path d="M463 169.005C466.866 169.005 470 165.871 470 162.005C470 158.139 466.866 155.005 463 155.005C459.134 155.005 456 158.139 456 162.005C456 165.871 459.134 169.005 463 169.005Z" fill="#FFFCFA"/>
<path d="M458.051 166.955C459.32 168.223 461.07 169.005 463 169.005C466.866 169.005 470 165.872 470 162.005C470 160.075 469.218 158.325 467.949 157.056L458.051 166.955Z" fill="#EBEADF"/>
<path d="M462.584 162.432C462.682 162.536 462.825 162.602 462.983 162.602H469.972C469.989 162.383 469.994 162.213 469.994 162.016C469.994 161.847 469.989 161.672 469.978 161.508H463.508L462.584 162.432Z" fill="#C4C1AB"/>
<path d="M463 166.052C465.235 166.052 467.047 164.24 467.047 162.005C467.047 159.77 465.235 157.959 463 157.959C460.765 157.959 458.953 159.77 458.953 162.005C458.953 164.24 460.765 166.052 463 166.052Z" fill="#E67368"/>
<path d="M460.14 164.866C460.873 165.598 461.884 166.052 463 166.052C465.237 166.052 467.047 164.242 467.047 162.005C467.047 160.89 466.593 159.878 465.86 159.145L460.14 164.866Z" fill="#DB3328"/>
<path d="M462.584 162.432C462.682 162.536 462.825 162.602 462.983 162.602H467.003C467.03 162.383 467.046 162.213 467.046 162.016C467.046 161.847 467.036 161.672 467.014 161.508H463.508L462.584 162.432Z" fill="#B5100B"/>
<path d="M463 159.834L463.705 161.262L465.28 161.491L464.138 162.602L464.411 164.171L463 163.433L461.589 164.171L461.863 162.602L460.72 161.491L462.295 161.262L463 159.834Z" fill="#FFFA5A"/>
<path d="M461.589 164.171L463 163.433L464.411 164.171L464.137 162.602L465.28 161.491L463.738 161.267L461.748 163.252L461.589 164.171Z" fill="#F8D707"/>
<path d="M462.984 161.508C462.683 161.508 462.437 161.754 462.437 162.055C462.437 162.355 462.683 162.602 462.984 162.602H464.154L465.275 161.508H462.984Z" fill="#EDA900"/>
<path d="M471.001 148.273L467.665 151.609L467.261 155.361L466.861 152.408L465.275 153.994L466.046 158.943L471.001 159.72L474.069 156.646L471.991 155.552L474.999 155.716L476.721 153.994L471.772 153.223L471.001 148.273Z" fill="#68A1D6"/>
<path d="M471.772 153.223L471.553 151.812L465.827 157.538L466.046 158.948L467.473 159.167L473.199 153.447L471.772 153.223Z" fill="#3179AF"/>
<path d="M473.221 151.008L462.612 161.617C462.399 161.831 462.399 162.175 462.612 162.388C462.825 162.602 463.17 162.602 463.383 162.388L473.993 151.784C474.206 151.571 474.206 151.227 473.993 151.013C473.779 150.795 473.435 150.795 473.221 151.008Z" fill="#1F3F77"/>
</g>
<defs>
<clipPath id="clip0_1629_655">
<rect width="28" height="28" fill="white" transform="translate(449 148)"/>
</clipPath>
</defs>
</svg>
