<svg width="112" height="112" viewBox="0 0 112 112" fill="none" xmlns="http://www.w3.org/2000/svg">
<g filter="url(#filter0_d_1629_3459)">
<circle cx="56" cy="42" r="21" fill="#FD7A72"/>
<circle cx="56" cy="42" r="23.5" stroke="white" stroke-width="5"/>
</g>
<path d="M56 63C67.598 63 77 53.598 77 42C77 30.402 67.598 21 56 21C44.402 21 35 30.402 35 42C35 53.598 44.402 63 56 63Z" fill="#0B69C7"/>
<path d="M51.3027 34.3654C51.3032 34.9329 51.1354 35.4878 50.8204 35.9599C50.5055 36.432 50.0576 36.8 49.5334 37.0175C49.0092 37.2349 48.4323 37.2919 47.8756 37.1813C47.319 37.0708 46.8077 36.7975 46.4064 36.3963C46.0051 35.995 45.7319 35.4837 45.6213 34.927C45.5107 34.3704 45.5678 33.7935 45.7852 33.2693C46.0026 32.7451 46.3707 32.2972 46.8428 31.9822C47.3149 31.6673 47.8698 31.4995 48.4373 31.5C49.197 31.5007 49.9254 31.8029 50.4626 32.3401C50.9998 32.8773 51.3019 33.6057 51.3027 34.3654Z" fill="white"/>
<path d="M49.9462 38.4272H46.9288C46.5366 38.4272 46.2187 38.7452 46.2187 39.1374V51.7899C46.2187 52.1821 46.5366 52.5 46.9288 52.5H49.9462C50.3384 52.5 50.6563 52.1821 50.6563 51.7899V39.1374C50.6563 38.7452 50.3384 38.4272 49.9462 38.4272Z" fill="white"/>
<path d="M66.4313 45.7227V51.8486C66.4313 52.0215 66.3626 52.1874 66.2403 52.3097C66.1181 52.432 65.9522 52.5007 65.7792 52.5007H62.5408C62.3679 52.5007 62.202 52.432 62.0797 52.3097C61.9574 52.1874 61.8887 52.0215 61.8887 51.8486V45.9133C61.8887 45.0264 62.1457 42.0449 59.5732 42.0449C57.5782 42.0449 57.172 44.0952 57.0863 45.0153V51.8624C57.0828 52.032 57.0132 52.1935 56.8925 52.3127C56.7718 52.4319 56.6094 52.4993 56.4398 52.5007H53.3063C53.2206 52.5011 53.1356 52.4845 53.0564 52.4518C52.9771 52.4192 52.9051 52.3711 52.8444 52.3105C52.7838 52.2499 52.7358 52.1779 52.7031 52.0986C52.6705 52.0193 52.6539 51.9343 52.6542 51.8486V39.0828C52.6539 38.9969 52.6705 38.9118 52.7031 38.8324C52.7357 38.753 52.7837 38.6808 52.8443 38.6199C52.9048 38.5591 52.9769 38.5108 53.0562 38.4778C53.1355 38.4449 53.2205 38.4279 53.3063 38.4279H56.4398C56.5267 38.4265 56.613 38.4423 56.6938 38.4746C56.7745 38.5068 56.848 38.5548 56.91 38.6158C56.972 38.6768 57.0212 38.7494 57.0548 38.8296C57.0884 38.9098 57.1057 38.9959 57.1057 39.0828V40.1881C57.8462 39.0828 58.946 38.2207 61.2863 38.2207C66.4617 38.2179 66.4313 43.0618 66.4313 45.7227Z" fill="white"/>
<defs>
<filter id="filter0_d_1629_3459" x="0" y="0" width="112" height="112" filterUnits="userSpaceOnUse" color-interpolation-filters="sRGB">
<feFlood flood-opacity="0" result="BackgroundImageFix"/>
<feColorMatrix in="SourceAlpha" type="matrix" values="0 0 0 0 0 0 0 0 0 0 0 0 0 0 0 0 0 0 127 0" result="hardAlpha"/>
<feOffset dy="14"/>
<feGaussianBlur stdDeviation="15"/>
<feComposite in2="hardAlpha" operator="out"/>
<feColorMatrix type="matrix" values="0 0 0 0 0.461068 0 0 0 0 0.461068 0 0 0 0 0.461068 0 0 0 0.25 0"/>
<feBlend mode="normal" in2="BackgroundImageFix" result="effect1_dropShadow_1629_3459"/>
<feBlend mode="normal" in="SourceGraphic" in2="effect1_dropShadow_1629_3459" result="shape"/>
</filter>
</defs>
</svg>
