<svg width="37" height="26" viewBox="0 0 37 26" fill="none" xmlns="http://www.w3.org/2000/svg">
<path d="M18.1999 11.453L34.8139 0.779998C34.1459 0.278998 33.3348 0.00559136 32.4999 0H3.89993C3.06499 0.00559136 2.25389 0.278998 1.58594 0.779998L18.1999 11.453Z" fill="white"/>
<path d="M18.902 14.0921L18.681 14.1961H18.577C18.4573 14.2496 18.3302 14.2846 18.2 14.3001C18.0921 14.3137 17.9829 14.3137 17.875 14.3001H17.771L17.55 14.1961L0.13 2.93811C0.0467714 3.25211 0.00310011 3.57528 0 3.90011V22.1001C0 23.1344 0.410891 24.1264 1.14228 24.8578C1.87367 25.5892 2.86565 26.0001 3.89999 26.0001H32.4999C33.5343 26.0001 34.5262 25.5892 35.2576 24.8578C35.989 24.1264 36.3999 23.1344 36.3999 22.1001V3.90011C36.3968 3.57528 36.3531 3.25211 36.2699 2.93811L18.902 14.0921Z" fill="white"/>
</svg>
