<svg width="26" height="32" viewBox="0 0 26 32" fill="none" xmlns="http://www.w3.org/2000/svg">
<path d="M13.0768 31.2523C13.597 31.2523 15.2667 30.5575 17.6557 28.3445C21.4511 24.8449 25.8823 18.6948 25.8823 12.9049C25.8823 9.48233 24.5251 6.19991 22.1091 3.77977C19.6932 1.35962 16.4164 0 12.9998 0C9.58309 0 6.30635 1.35962 3.8904 3.77977C1.47445 6.19991 0.117188 9.48233 0.117188 12.9049C0.117188 22.0014 10.6943 31.0593 13.0768 31.2523ZM12.9998 5.2173C14.214 5.2173 15.401 5.57799 16.4107 6.25378C17.4203 6.92956 18.2072 7.89007 18.6719 9.01386C19.1365 10.1376 19.2581 11.3742 19.0212 12.5672C18.7843 13.7602 18.1996 14.8561 17.341 15.7162C16.4824 16.5763 15.3884 17.162 14.1975 17.3993C13.0066 17.6366 11.7721 17.5148 10.6503 17.0494C9.52845 16.5839 8.5696 15.7956 7.89499 14.7842C7.22038 13.7728 6.86031 12.5838 6.86031 11.3674C6.86201 9.73682 7.50939 8.1735 8.66039 7.0205C9.81139 5.8675 11.372 5.219 12.9998 5.2173Z" fill="white"/>
</svg>
