<svg width="212" height="212" viewBox="0 0 212 212" fill="none" xmlns="http://www.w3.org/2000/svg">
<g filter="url(#filter0_d_170_654)">
<circle cx="106" cy="92" r="64" fill="#74D997"/>
<circle cx="106" cy="92" r="70" stroke="white" stroke-width="12"/>
</g>
<path d="M86.3506 95.9384C85.7059 95.9384 85.1159 95.5082 84.9412 94.8558C84.7325 94.0769 85.1947 93.2762 85.9737 93.0675C87.6958 92.606 88.8986 91.0384 88.8986 89.2556C88.8986 88.5638 88.7158 87.8815 88.3699 87.2824C87.9668 86.5841 88.206 85.691 88.9043 85.2879C89.6024 84.8845 90.4955 85.1239 90.8988 85.8222C91.5007 86.8646 91.8189 88.0518 91.8189 89.2556C91.8189 92.3579 89.726 95.0854 86.7294 95.8882C86.6029 95.9222 86.4757 95.9384 86.3506 95.9384Z" fill="white"/>
<path d="M97.5239 110.629C97.3987 110.629 97.2715 110.613 97.1448 110.579C96.366 110.37 95.9038 109.569 96.1127 108.79C96.2019 108.458 96.2472 108.114 96.2472 107.769C96.2472 105.593 94.4768 103.823 92.301 103.823C91.4946 103.823 90.8408 103.169 90.8408 102.363C90.8408 101.556 91.4946 100.902 92.301 100.902C96.0871 100.902 99.1675 103.983 99.1675 107.769C99.1675 108.369 99.0888 108.967 98.9334 109.547C98.7582 110.199 98.1683 110.629 97.5239 110.629Z" fill="white"/>
<path d="M97.4814 77.7039C95.6474 77.7039 93.9229 76.9897 92.6259 75.6928C92.0557 75.1227 92.0557 74.1981 92.6259 73.6279C93.196 73.0576 94.1206 73.0576 94.691 73.6279C95.4363 74.3732 96.4273 74.7838 97.4814 74.7838C98.5355 74.7838 99.5266 74.3734 100.272 73.628C100.842 73.0578 101.766 73.0578 102.337 73.628C102.907 74.1981 102.907 75.1227 102.337 75.6929C101.04 76.9898 99.3158 77.7039 97.4814 77.7039Z" fill="white"/>
<path d="M125.673 95.9383C125.548 95.9383 125.421 95.9221 125.295 95.8881C122.298 95.0852 120.205 92.3578 120.205 89.2555C120.205 88.0518 120.523 86.8645 121.125 85.8221C121.528 85.1234 122.421 84.8845 123.12 85.2878C123.818 85.691 124.057 86.584 123.654 87.2823C123.308 87.8814 123.125 88.5637 123.125 89.2555C123.125 91.0385 124.328 92.606 126.05 93.0674C126.829 93.2761 127.292 94.0768 127.083 94.8557C126.908 95.508 126.318 95.9383 125.673 95.9383Z" fill="white"/>
<path d="M114.5 110.629C113.855 110.629 113.265 110.199 113.09 109.546C112.935 108.967 112.856 108.369 112.856 107.769C112.856 103.983 115.937 100.902 119.723 100.902C120.529 100.902 121.183 101.556 121.183 102.363C121.183 103.169 120.529 103.823 119.723 103.823C117.547 103.823 115.777 105.593 115.777 107.769C115.777 108.114 115.822 108.457 115.911 108.791C116.12 109.569 115.658 110.37 114.879 110.579C114.752 110.613 114.625 110.629 114.5 110.629Z" fill="white"/>
<path d="M114.543 77.704C112.709 77.704 110.984 76.9897 109.687 75.6929C109.117 75.1226 109.117 74.1981 109.687 73.628C110.258 73.0578 111.182 73.0577 111.752 73.628C112.498 74.3733 113.489 74.7837 114.543 74.7837C115.597 74.7837 116.588 74.3733 117.333 73.6278C117.904 73.0577 118.828 73.0576 119.398 73.6278C119.969 74.1981 119.969 75.1226 119.398 75.6927C118.101 76.9899 116.377 77.704 114.543 77.704Z" fill="white"/>
<path d="M136.556 98.2456C136.556 94.3604 134.698 90.8282 131.601 88.6429C132.985 86.8468 133.753 84.6285 133.753 82.3287C133.753 78.7359 131.865 75.4042 128.855 73.5341C128.948 73.036 128.994 72.5289 128.994 72.0171C128.994 67.4506 125.279 63.7355 120.713 63.7355C120.191 63.7355 119.677 63.783 119.174 63.8775C118.499 60.4986 115.509 57.9451 111.935 57.9451C109.513 57.9451 107.359 59.1176 106.012 60.9247C104.665 59.1176 102.511 57.9451 100.089 57.9451C96.5036 57.9451 93.5066 60.515 92.8433 63.9101C92.084 63.7766 91.4393 63.7418 91.2662 63.7434C87.6307 63.7899 84.2853 66.336 83.3118 69.7974C82.9817 70.9714 82.9367 72.2821 83.1696 73.5335C80.1588 75.4036 78.2704 78.7356 78.2704 82.3287C78.2704 84.6285 79.0389 86.8468 80.4226 88.6429C77.3263 90.8281 75.4678 94.3604 75.4678 98.2456C75.4678 102.684 77.9144 106.666 81.7894 108.683C81.7701 108.94 81.7604 109.199 81.7604 109.456C81.7604 111.927 82.6456 114.318 84.2526 116.19C85.6285 117.793 87.4583 118.933 89.4802 119.463C90.67 123.25 94.22 125.908 98.2651 125.908C101.512 125.908 104.372 124.218 106.012 121.672C107.652 124.218 110.511 125.908 113.759 125.908C117.804 125.908 121.354 123.25 122.544 119.463C124.565 118.933 126.395 117.793 127.771 116.19C129.378 114.318 130.263 111.927 130.263 109.456C130.263 109.199 130.254 108.94 130.234 108.683C134.11 106.666 136.556 102.684 136.556 98.2456ZM128.129 106.442C128.12 106.446 128.111 106.448 128.102 106.452C126.357 107.159 124.341 107.29 122.494 106.795C121.715 106.587 120.914 107.049 120.705 107.828C120.497 108.607 120.959 109.407 121.737 109.616C122.731 109.882 123.756 110.017 124.784 110.017C125.649 110.017 126.502 109.92 127.337 109.735C127.208 113.268 124.639 116.207 121.13 116.781C121.126 116.782 121.123 116.782 121.119 116.782C120.084 116.952 119.011 116.899 117.998 116.627C117.219 116.418 116.418 116.88 116.21 117.659C116.001 118.438 116.463 119.239 117.242 119.448C117.896 119.623 118.566 119.734 119.241 119.778C118.151 121.713 116.074 122.988 113.759 122.988C110.292 122.988 107.472 120.167 107.472 116.701V101.486C107.472 100.68 106.818 100.903 106.012 100.903C105.206 100.903 104.552 100.68 104.552 101.486V116.701C104.552 120.167 101.732 122.988 98.2651 122.988C95.9496 122.988 93.8726 121.713 92.7826 119.778C93.4578 119.734 94.1276 119.623 94.7817 119.448C95.5606 119.239 96.023 118.438 95.814 117.659C95.6052 116.88 94.8049 116.418 94.0256 116.627C93.0123 116.899 91.9391 116.952 90.9044 116.782C90.9008 116.782 90.8973 116.782 90.8938 116.781C87.3849 116.207 84.8156 113.268 84.6867 109.735C85.5214 109.921 86.3744 110.017 87.2392 110.017C88.2678 110.017 89.2929 109.882 90.2859 109.616C91.0649 109.407 91.5271 108.607 91.3183 107.828C91.1095 107.049 90.3092 106.586 89.5299 106.796C87.7008 107.287 85.6726 107.16 83.9216 106.452C83.9128 106.448 83.9039 106.446 83.8952 106.443C80.5485 105.076 78.3877 101.862 78.3877 98.2457C78.3877 94.8429 80.2845 91.8 83.3391 90.2981C83.3462 90.2947 83.3533 90.2926 83.3604 90.2892C83.8684 90.0416 84.4025 89.842 84.9482 89.6958C85.7271 89.4871 86.1895 88.6865 85.9806 87.9075C85.772 87.1286 84.9708 86.666 84.1924 86.875C83.8077 86.9781 83.4279 87.1025 83.0547 87.2444C81.862 85.8944 81.1903 84.1475 81.1903 82.3289C81.1903 79.9401 82.3541 77.713 84.2431 76.3306C84.9603 77.5054 85.963 78.4926 87.1701 79.1894C87.3999 79.3222 87.651 79.3852 87.8986 79.3852C88.4034 79.3852 88.8942 79.1233 89.1646 78.6549C89.5677 77.9564 89.3284 77.0635 88.63 76.6603C86.5821 75.478 85.4794 72.8747 86.1224 70.5883C86.7424 68.384 88.9641 66.6983 91.2929 66.6638C93.2168 66.7046 94.9811 67.6515 95.9539 69.3367C96.2243 69.8051 96.7151 70.067 97.2199 70.067C97.4674 70.067 97.7186 70.0038 97.9485 69.8711C98.6468 69.4678 98.886 68.5749 98.4829 67.8765C97.7869 66.6711 96.8157 65.6764 95.6429 64.9588C95.8321 62.6701 97.7534 60.8653 100.089 60.8653C102.55 60.8653 104.552 62.8672 104.552 65.3278V84.6498C104.552 85.4562 105.206 85.092 106.012 85.092C106.818 85.092 107.472 85.4564 107.472 84.6498V65.3278C107.472 62.8672 109.474 60.8653 111.935 60.8653C114.27 60.8653 116.192 62.6701 116.38 64.9584C115.208 65.6761 114.236 66.6707 113.541 67.8761C113.137 68.5745 113.377 69.4676 114.075 69.8707C114.305 70.0034 114.556 70.0666 114.804 70.0666C115.308 70.0666 115.799 69.8047 116.069 69.3363C117.018 67.6934 118.816 66.6556 120.712 66.6556C123.669 66.6556 126.074 69.0607 126.074 72.017C126.074 73.9011 125.019 75.7217 123.393 76.6599C122.695 77.0632 122.455 77.9562 122.859 78.6545C123.129 79.1229 123.62 79.3848 124.125 79.3848C124.372 79.3848 124.623 79.3218 124.853 79.189C126.06 78.4922 127.063 77.505 127.78 76.3302C129.669 77.7126 130.833 79.9398 130.833 82.3286C130.833 84.1474 130.161 85.8943 128.969 87.2441C128.596 87.1022 128.216 86.9778 127.831 86.8747C127.052 86.6663 126.252 87.1284 126.043 87.9073C125.834 88.6862 126.296 89.4869 127.075 89.6955C127.621 89.8417 128.155 90.0413 128.663 90.2889C128.67 90.2923 128.677 90.2945 128.684 90.2978C131.739 91.7997 133.636 94.8425 133.636 98.2455C133.636 101.862 131.475 105.076 128.129 106.442Z" fill="white"/>
<path d="M106.012 102.986C105.885 102.986 105.759 102.97 105.635 102.937C103.91 102.476 101.294 100.721 98.9715 98.4656C97.3774 96.9175 94.5625 93.7954 93.6217 90.279C92.8587 87.4267 93.4857 84.8918 95.4354 82.9483C98.2242 80.1683 102.762 80.1682 105.551 82.9483C105.773 83.1695 106.156 83.2637 106.473 82.9484C109.262 80.1685 113.8 80.1683 116.589 82.9483C118.538 84.8918 119.165 87.4267 118.402 90.279C117.462 93.7954 114.647 96.9176 113.053 98.4656C110.73 100.721 108.114 102.476 106.389 102.937C106.265 102.97 106.139 102.986 106.012 102.986ZM100.493 83.7814C99.4083 83.7814 98.3232 84.1931 97.4971 85.0165C96.2965 86.2134 95.9515 87.6879 96.4429 89.5244C97.6726 94.1208 103.517 98.9907 106.012 99.988C108.507 98.9909 114.352 94.1208 115.581 89.5244C116.073 87.6879 115.728 86.2136 114.527 85.0165C112.875 83.3696 110.187 83.3698 108.534 85.0165C107.12 86.4264 104.904 86.4266 103.49 85.0165C102.664 84.1931 101.578 83.7814 100.493 83.7814Z" fill="white"/>
<path d="M108.794 90.6044C108.794 89.0703 107.546 87.8221 106.012 87.8221C104.478 87.8221 103.23 89.0702 103.23 90.6044C103.23 91.6026 103.76 92.4771 104.552 92.9681V94.5704C104.552 95.3768 105.206 96.0305 106.012 96.0305C106.818 96.0305 107.472 95.3768 107.472 94.5704V92.9682C108.264 92.4772 108.794 91.6027 108.794 90.6044Z" fill="white"/>
<defs>
<filter id="filter0_d_170_654" x="0" y="0" width="212" height="212" filterUnits="userSpaceOnUse" color-interpolation-filters="sRGB">
<feFlood flood-opacity="0" result="BackgroundImageFix"/>
<feColorMatrix in="SourceAlpha" type="matrix" values="0 0 0 0 0 0 0 0 0 0 0 0 0 0 0 0 0 0 127 0" result="hardAlpha"/>
<feOffset dy="14"/>
<feGaussianBlur stdDeviation="15"/>
<feComposite in2="hardAlpha" operator="out"/>
<feColorMatrix type="matrix" values="0 0 0 0 0.461068 0 0 0 0 0.461068 0 0 0 0 0.461068 0 0 0 0.25 0"/>
<feBlend mode="normal" in2="BackgroundImageFix" result="effect1_dropShadow_170_654"/>
<feBlend mode="normal" in="SourceGraphic" in2="effect1_dropShadow_170_654" result="shape"/>
</filter>
</defs>
</svg>
