<svg width="138" height="138" viewBox="0 0 138 138" fill="none" xmlns="http://www.w3.org/2000/svg">
<rect x="26" y="26" width="86" height="86" rx="20" fill="#6173FD"/>
<rect x="3" y="3" width="132" height="132" rx="17" stroke="#E2EBF4" stroke-width="6"/>
<path d="M64.3132 84.6504C65.2174 85.7965 66.1969 86.8781 67.245 87.8877C64.1114 90.2591 58.6131 93.526 52.2401 93.339C48.9142 93.2603 46.0305 90.7708 44.704 86.8545C43.0603 81.9543 43.9254 74.5153 51.2981 68.3064C54.5783 65.6075 58.4747 63.8062 62.6215 63.0715C66.8846 62.3246 71.2485 62.4282 75.4732 63.3766C75.3341 64.8151 75.0309 66.2319 74.5695 67.5981C49.9959 61.3658 40.1974 89.1968 53.9222 89.2653C57.2482 89.2653 60.7951 87.6909 64.3132 84.6504ZM61.3526 61.32C61.2598 59.2006 61.5065 57.08 62.0831 55.0422C63.1104 51.2249 66.9384 47.4268 70.7247 48.5872C73.0124 49.3252 74.9349 51.854 76.4344 56.1246C77.9056 60.3449 77.7752 64.9768 76.0691 69.1034C74.8188 72.2275 73.0314 75.097 70.7919 77.5755C70.5819 77.8135 70.3294 78.1173 70.1191 78.3626C70.9479 79.5767 71.9622 81.0543 72.9451 82.3282C79.5138 74.1376 83.0905 64.4977 79.1644 54.6486C76.8477 48.843 74.0698 45.3696 70.9169 44.3266C65.9179 42.6668 59.9784 47.6209 58.469 52.6806C57.4303 55.8554 57.0313 59.2129 57.2962 62.5501C58.618 62.0417 59.9736 61.6307 61.3526 61.32ZM89.3341 70.7368C87.4773 68.5748 85.1628 66.8752 82.5671 65.7677C82.4025 67.2299 82.1163 68.675 81.7115 70.0874C88.8869 73.8022 92.008 80.693 90.0553 86.0575C89.1114 88.0105 85.4239 89.4699 82.5671 89.3735C80.613 89.3481 78.6861 88.9012 76.9122 88.062C75.1383 87.2227 73.5572 86.0099 72.2722 84.5028C70.7647 82.7126 69.3743 80.8225 68.1101 78.8449C64.0441 72.6949 63.179 69.8413 63.0348 69.2903C63.0156 69.2411 63.006 69.2017 62.9867 69.1525C61.5723 69.4474 60.1953 69.9063 58.8823 70.5203C60.373 74.8664 62.5026 78.9543 65.1975 82.6431C68.6712 87.378 73.4378 90.9528 78.8952 92.9159C83.586 94.5592 87.1425 94.3329 89.4591 92.2468C95.5534 86.766 95.5149 78.7268 89.3341 70.7368Z" fill="white"/>
</svg>
