<svg width="30" height="30" viewBox="0 0 30 30" fill="none" xmlns="http://www.w3.org/2000/svg">
<path d="M21.2271 30C19.7423 30 18.2478 29.573 16.9428 28.6982C10.7274 24.533 5.46553 19.2714 1.30161 13.058C-0.7354 10.0179 -0.346939 5.94414 2.22461 3.37435L4.3483 1.25079C6.01451 -0.416929 8.92476 -0.416929 10.591 1.25079L13.5863 4.24593C14.5061 5.16406 14.9716 6.43531 14.864 7.73063C14.7565 9.02596 14.0887 10.2041 13.0293 10.9585C12.6408 11.2362 12.3984 11.6503 12.3471 12.127C12.2957 12.607 12.4466 13.0676 12.7692 13.4272C13.9699 14.7514 15.2493 16.0307 16.572 17.2297C16.93 17.5539 17.3906 17.7032 17.8722 17.6535C18.349 17.6021 18.7647 17.3581 19.0424 16.9697C19.7985 15.9135 20.9735 15.2442 22.2689 15.1366C23.5691 15.0307 24.8356 15.4946 25.7554 16.4143L28.7507 19.4095C30.5293 21.1879 30.3945 24.0065 28.4377 25.9647L26.6254 27.7769C25.1583 29.244 23.2015 30 21.2271 30ZM7.46884 2.36634C6.93269 2.36634 6.43026 2.57501 6.04983 2.95381L3.92613 5.07738C2.16522 6.83819 1.90357 9.63109 3.30171 11.7193C7.28905 17.6695 12.331 22.7112 18.2831 26.6999C20.3699 28.0995 23.163 27.8347 24.9239 26.0755L26.7362 24.2633C27.7555 23.2441 27.8839 21.9487 27.0492 21.1125L24.0539 18.1173C23.6349 17.6984 23.0554 17.4817 22.4695 17.5379C21.8804 17.586 21.3459 17.891 21.0024 18.3709C20.3298 19.3131 19.2816 19.9247 18.1306 20.0483C16.9733 20.1735 15.8191 19.7947 14.9571 19.0146C13.5751 17.7626 12.2395 16.4271 10.9859 15.0435C10.2057 14.1832 9.8285 13.0259 9.9537 11.8702C10.0773 10.7194 10.6889 9.67282 11.6295 9.00028C12.1111 8.65679 12.4145 8.12228 12.4643 7.53321C12.5124 6.94413 12.3005 6.36629 11.8832 5.94896L8.88784 2.95381C8.50901 2.57501 8.00498 2.36634 7.46884 2.36634ZM27.8422 0.937789H23.0265C22.362 0.937789 21.8226 1.47711 21.8226 2.14162C21.8226 2.80614 22.362 3.34546 23.0265 3.34546H24.9351L18.9638 9.31649C18.4934 9.78679 18.4934 10.5492 18.9638 11.0195C19.1981 11.2539 19.5063 11.3726 19.8145 11.3726C20.1227 11.3726 20.4309 11.2555 20.6653 11.0195L26.6367 5.04849V6.95697C26.6367 7.62149 27.176 8.16081 27.8406 8.16081C28.5051 8.16081 29.0445 7.62149 29.0445 6.95697V2.14162C29.0445 1.47711 28.5067 0.937789 27.8422 0.937789Z" fill="white"/>
</svg>
