<svg width="69" height="13" viewBox="0 0 69 13" fill="none" xmlns="http://www.w3.org/2000/svg">
<path d="M5.50016 2.92705C5.79952 2.00574 7.10292 2.00574 7.40228 2.92705L7.67509 3.7667C7.80897 4.17872 8.19292 4.45768 8.62615 4.45768H9.50901C10.4777 4.45768 10.8805 5.6973 10.0968 6.2667L9.38255 6.78563C9.03206 7.04028 8.8854 7.49164 9.01928 7.90367L9.2921 8.74332C9.59145 9.66463 8.53697 10.4308 7.75325 9.86135L7.039 9.34242C6.68852 9.08777 6.21392 9.08777 5.86343 9.34242L5.14919 9.86135C4.36547 10.4308 3.31099 9.66463 3.61034 8.74332L3.88316 7.90367C4.01704 7.49164 3.87038 7.04028 3.51989 6.78563L2.80564 6.2667C2.02193 5.6973 2.4247 4.45768 3.39343 4.45768H4.27629C4.70951 4.45768 5.09347 4.17872 5.22734 3.7667L5.50016 2.92705Z" fill="#FFDF6C"/>
<path d="M19.5246 2.92705C19.8239 2.00574 21.1273 2.00574 21.4267 2.92705L21.6995 3.7667C21.8334 4.17872 22.2173 4.45768 22.6506 4.45768H23.5334C24.5021 4.45768 24.9049 5.6973 24.1212 6.2667L23.407 6.78563C23.0565 7.04028 22.9098 7.49164 23.0437 7.90367L23.3165 8.74332C23.6159 9.66463 22.5614 10.4308 21.7777 9.86135L21.0634 9.34242C20.7129 9.08777 20.2383 9.08777 19.8878 9.34242L19.1736 9.86135C18.3899 10.4308 17.3354 9.66463 17.6348 8.74332L17.9076 7.90367C18.0415 7.49164 17.8948 7.04028 17.5443 6.78563L16.8301 6.2667C16.0463 5.6973 16.4491 4.45768 17.4178 4.45768H18.3007C18.7339 4.45768 19.1179 4.17872 19.2518 3.7667L19.5246 2.92705Z" fill="#FFDF6C"/>
<path d="M33.549 2.92705C33.8483 2.00574 35.1518 2.00574 35.4511 2.92705L35.7239 3.7667C35.8578 4.17872 36.2418 4.45768 36.675 4.45768H37.5578C38.5266 4.45768 38.9293 5.6973 38.1456 6.2667L37.4314 6.78563C37.0809 7.04028 36.9342 7.49164 37.0681 7.90367L37.3409 8.74332C37.6403 9.66463 36.5858 10.4308 35.8021 9.86135L35.0878 9.34242C34.7373 9.08777 34.2627 9.08777 33.9123 9.34242L33.198 9.86135C32.4143 10.4308 31.3598 9.66463 31.6592 8.74332L31.932 7.90367C32.0659 7.49164 31.9192 7.04028 31.5687 6.78563L30.8545 6.2667C30.0708 5.6973 30.4735 4.45768 31.4423 4.45768H32.3251C32.7583 4.45768 33.1423 4.17872 33.2762 3.7667L33.549 2.92705Z" fill="#FFDF6C"/>
<path d="M47.5733 2.92705C47.8726 2.00574 49.176 2.00574 49.4754 2.92705L49.7482 3.7667C49.8821 4.17872 50.266 4.45768 50.6993 4.45768H51.5821C52.5509 4.45768 52.9536 5.6973 52.1699 6.2667L51.4557 6.78563C51.1052 7.04028 50.9585 7.49164 51.0924 7.90367L51.3652 8.74332C51.6646 9.66463 50.6101 10.4308 49.8264 9.86135L49.1121 9.34242C48.7616 9.08777 48.287 9.08777 47.9366 9.34242L47.2223 9.86135C46.4386 10.4308 45.3841 9.66463 45.6835 8.74332L45.9563 7.90367C46.0902 7.49164 45.9435 7.04028 45.593 6.78563L44.8788 6.2667C44.095 5.6973 44.4978 4.45768 45.4665 4.45768H46.3494C46.7826 4.45768 47.1666 4.17872 47.3005 3.7667L47.5733 2.92705Z" fill="#FFDF6C"/>
<path d="M61.5977 2.92705C61.897 2.00574 63.2005 2.00574 63.4998 2.92705L63.7726 3.7667C63.9065 4.17872 64.2905 4.45768 64.7237 4.45768H65.6065C66.5753 4.45768 66.978 5.6973 66.1943 6.2667L65.4801 6.78563C65.1296 7.04028 64.9829 7.49164 65.1168 7.90367L65.3896 8.74332C65.689 9.66463 64.6345 10.4308 63.8508 9.86135L63.1365 9.34242C62.7861 9.08777 62.3115 9.08777 61.961 9.34242L61.2467 9.86135C60.463 10.4308 59.4085 9.66463 59.7079 8.74332L59.9807 7.90367C60.1146 7.49164 59.9679 7.04028 59.6174 6.78563L58.9032 6.2667C58.1195 5.6973 58.5222 4.45768 59.491 4.45768H60.3738C60.807 4.45768 61.191 4.17872 61.3249 3.7667L61.5977 2.92705Z" fill="#FFDF6C"/>
</svg>
