<svg width="18" height="18" viewBox="0 0 18 18" fill="none" xmlns="http://www.w3.org/2000/svg">
<path d="M9.02286 18C8.739 18 8.49906 17.7944 8.4303 17.519C8.21115 16.6413 7.79166 15.7078 7.17183 14.7188C6.43743 13.5312 5.39064 12.4297 4.03128 11.4141C2.84895 10.5205 1.66662 9.91107 0.48438 9.58599C0.2043 9.50904 0 9.26073 0 8.97039C0 8.68563 0.19647 8.44011 0.47025 8.36199C1.62945 8.03106 2.74608 7.49367 3.82032 6.75C5.05467 5.89059 6.08589 4.85937 6.91407 3.65625C7.64667 2.58444 8.14959 1.52451 8.42274 0.47628C8.49438 0.20169 8.73612 0 9.01989 0C9.30681 0 9.55026 0.2061 9.6201 0.48447C9.77778 1.11285 10.0242 1.75608 10.3594 2.41407C10.7813 3.22659 11.3203 4.00779 11.9766 4.75785C12.6484 5.49225 13.3985 6.15627 14.2266 6.75C15.3087 7.51707 16.4088 8.05599 17.527 8.36676C17.8013 8.44299 18 8.68716 18 8.97183C18 9.26082 17.7952 9.50706 17.5166 9.58347C16.8079 9.77778 16.0783 10.0912 15.3282 10.5234C14.4219 11.0547 13.5781 11.6875 12.7968 12.4219C12.0156 13.1406 11.375 13.8984 10.875 14.6953C10.254 15.6864 9.83403 16.6271 9.61533 17.5175C9.54747 17.7937 9.30717 18 9.02286 18Z" fill="#FD6161"/>
</svg>
