<svg width="1080" height="453" viewBox="0 0 1080 453" fill="none" xmlns="http://www.w3.org/2000/svg">
<rect width="296" height="296" rx="9" fill="#FD7A72"/>
<rect x="315" y="159" width="292" height="292" rx="7" stroke="#E2EBF4" stroke-width="4"/>
<rect x="628" width="296" height="296" rx="9" fill="#6072FA"/>
<rect x="315" y="2" width="131" height="131" rx="7" stroke="#E2EBF4" stroke-width="4"/>
<rect x="380" y="33.8284" width="47.1421" height="47.1421" rx="7" transform="rotate(45 380 33.8284)" stroke="#E2EBF4" stroke-width="4"/>
<rect x="229.326" y="343.828" width="58.6863" height="58.6863" rx="29.3432" transform="rotate(45 229.326 343.828)" stroke="#E2EBF4" stroke-width="4"/>
<rect x="628" y="318" width="135" height="135" rx="9" fill="#17C7EE"/>
<rect y="318" width="135" height="135" rx="9" fill="#74D997"/>
<rect x="163" y="320" width="131" height="131" rx="7" stroke="#E2EBF4" stroke-width="4"/>
<rect x="472" width="133" height="135" rx="9" fill="#74D997"/>
<rect x="785" y="318" width="135" height="135" rx="9" fill="#EDD93C"/>
<rect x="947" y="320" width="131" height="131" rx="7" stroke="#E2EBF4" stroke-width="4"/>
<rect x="945" y="157" width="135" height="135" rx="9" fill="#FD7A72"/>
<rect x="947" y="2" width="131" height="131" rx="7" fill="white" stroke="#E2EBF4" stroke-width="4"/>
<path d="M111.418 115.2H121.274V160H109.818V127.232L102.01 129.216L99.2575 119.552L111.418 115.2ZM145.982 129.472C150.334 130.027 153.811 131.733 156.414 134.592C159.016 137.408 160.318 140.928 160.318 145.152C160.318 149.803 158.76 153.6 155.646 156.544C152.531 159.488 148.435 160.96 143.358 160.96C138.28 160.96 134.184 159.488 131.07 156.544C127.955 153.6 126.398 149.803 126.398 145.152C126.398 141.653 127.336 138.56 129.214 135.872L142.462 115.2H155.454L145.982 129.472ZM143.358 150.464C144.936 150.464 146.238 149.995 147.262 149.056C148.328 148.117 148.862 146.816 148.862 145.152C148.862 143.445 148.35 142.123 147.326 141.184C146.302 140.245 144.979 139.776 143.358 139.776C141.736 139.776 140.414 140.245 139.39 141.184C138.366 142.123 137.854 143.445 137.854 145.152C137.854 146.859 138.366 148.181 139.39 149.12C140.414 150.016 141.736 150.464 143.358 150.464ZM194.466 132.544V142.656H184.226V152.896H174.114V142.656H163.874V132.544H174.114V122.304H184.226V132.544H194.466ZM69.7159 174L64.9159 182.54V188H62.1759V182.54L57.3959 174H60.5159L63.5559 179.84L66.5959 174H69.7159ZM71.1256 184.06C71.4723 185.313 72.4123 185.94 73.9456 185.94C74.9323 185.94 75.679 185.607 76.1856 184.94L78.2656 186.14C77.279 187.567 75.8256 188.28 73.9056 188.28C72.2523 188.28 70.9256 187.78 69.9256 186.78C68.9256 185.78 68.4256 184.52 68.4256 183C68.4256 181.493 68.919 180.24 69.9056 179.24C70.8923 178.227 72.159 177.72 73.7056 177.72C75.1723 177.72 76.379 178.227 77.3256 179.24C78.2856 180.253 78.7656 181.507 78.7656 183C78.7656 183.333 78.7323 183.687 78.6656 184.06H71.1256ZM71.0856 182.06H76.1856C76.039 181.38 75.7323 180.873 75.2656 180.54C74.8123 180.207 74.2923 180.04 73.7056 180.04C73.0123 180.04 72.439 180.22 71.9856 180.58C71.5323 180.927 71.2323 181.42 71.0856 182.06ZM88.0886 178H90.6686V188H88.0886V186.82C87.3153 187.793 86.2286 188.28 84.8286 188.28C83.4953 188.28 82.3486 187.773 81.3886 186.76C80.4419 185.733 79.9686 184.48 79.9686 183C79.9686 181.52 80.4419 180.273 81.3886 179.26C82.3486 178.233 83.4953 177.72 84.8286 177.72C86.2286 177.72 87.3153 178.207 88.0886 179.18V178ZM83.3286 185.04C83.8486 185.56 84.5086 185.82 85.3086 185.82C86.1086 185.82 86.7686 185.56 87.2886 185.04C87.8219 184.507 88.0886 183.827 88.0886 183C88.0886 182.173 87.8219 181.5 87.2886 180.98C86.7686 180.447 86.1086 180.18 85.3086 180.18C84.5086 180.18 83.8486 180.447 83.3286 180.98C82.8086 181.5 82.5486 182.173 82.5486 183C82.5486 183.827 82.8086 184.507 83.3286 185.04ZM95.5881 179.72C95.8281 179.08 96.2215 178.6 96.7681 178.28C97.3281 177.96 97.9481 177.8 98.6281 177.8V180.68C97.8415 180.587 97.1348 180.747 96.5081 181.16C95.8948 181.573 95.5881 182.26 95.5881 183.22V188H93.0081V178H95.5881V179.72ZM102.205 180.84C102.205 181.107 102.378 181.327 102.725 181.5C103.085 181.66 103.518 181.807 104.025 181.94C104.531 182.06 105.038 182.22 105.545 182.42C106.051 182.607 106.478 182.927 106.825 183.38C107.185 183.833 107.365 184.4 107.365 185.08C107.365 186.107 106.978 186.9 106.205 187.46C105.445 188.007 104.491 188.28 103.345 188.28C101.291 188.28 99.8912 187.487 99.1445 185.9L101.385 184.64C101.678 185.507 102.331 185.94 103.345 185.94C104.265 185.94 104.725 185.653 104.725 185.08C104.725 184.813 104.545 184.6 104.185 184.44C103.838 184.267 103.411 184.113 102.905 183.98C102.398 183.847 101.891 183.68 101.385 183.48C100.878 183.28 100.445 182.967 100.085 182.54C99.7379 182.1 99.5645 181.553 99.5645 180.9C99.5645 179.913 99.9245 179.14 100.645 178.58C101.378 178.007 102.285 177.72 103.365 177.72C104.178 177.72 104.918 177.907 105.585 178.28C106.251 178.64 106.778 179.16 107.165 179.84L104.965 181.04C104.645 180.36 104.111 180.02 103.365 180.02C103.031 180.02 102.751 180.093 102.525 180.24C102.311 180.387 102.205 180.587 102.205 180.84ZM122.641 186.76C121.615 187.773 120.361 188.28 118.881 188.28C117.401 188.28 116.148 187.773 115.121 186.76C114.108 185.733 113.601 184.48 113.601 183C113.601 181.52 114.108 180.273 115.121 179.26C116.148 178.233 117.401 177.72 118.881 177.72C120.361 177.72 121.615 178.233 122.641 179.26C123.668 180.273 124.181 181.52 124.181 183C124.181 184.48 123.668 185.733 122.641 186.76ZM116.941 184.98C117.461 185.5 118.108 185.76 118.881 185.76C119.655 185.76 120.301 185.5 120.821 184.98C121.341 184.46 121.601 183.8 121.601 183C121.601 182.2 121.341 181.54 120.821 181.02C120.301 180.5 119.655 180.24 118.881 180.24C118.108 180.24 117.461 180.5 116.941 181.02C116.435 181.54 116.181 182.2 116.181 183C116.181 183.8 116.435 184.46 116.941 184.98ZM131.064 176.2C129.651 176.093 128.944 176.66 128.944 177.9V178H131.064V180.48H128.944V188H126.364V180.48H124.924V178H126.364V177.9C126.364 176.487 126.757 175.413 127.544 174.68C128.331 173.947 129.504 173.627 131.064 173.72V176.2ZM140.126 185.36H146.026V188H137.366V174H145.926V176.64H140.126V179.62H145.426V182.22H140.126V185.36ZM157.072 188H154.092L151.932 184.96L149.752 188H146.772L150.432 182.9L146.932 178H149.912L151.932 180.82L153.952 178H156.912L153.412 182.88L157.072 188ZM164.18 177.72C165.526 177.72 166.673 178.233 167.62 179.26C168.58 180.273 169.06 181.52 169.06 183C169.06 184.48 168.58 185.733 167.62 186.76C166.673 187.773 165.526 188.28 164.18 188.28C162.78 188.28 161.7 187.793 160.94 186.82V192H158.36V178H160.94V179.18C161.7 178.207 162.78 177.72 164.18 177.72ZM161.72 185.04C162.24 185.56 162.9 185.82 163.7 185.82C164.5 185.82 165.16 185.56 165.68 185.04C166.213 184.507 166.48 183.827 166.48 183C166.48 182.173 166.213 181.5 165.68 180.98C165.16 180.447 164.5 180.18 163.7 180.18C162.9 180.18 162.24 180.447 161.72 180.98C161.2 181.5 160.94 182.173 160.94 183C160.94 183.827 161.2 184.507 161.72 185.04ZM173.059 184.06C173.406 185.313 174.346 185.94 175.879 185.94C176.866 185.94 177.613 185.607 178.119 184.94L180.199 186.14C179.213 187.567 177.759 188.28 175.839 188.28C174.186 188.28 172.859 187.78 171.859 186.78C170.859 185.78 170.359 184.52 170.359 183C170.359 181.493 170.853 180.24 171.839 179.24C172.826 178.227 174.093 177.72 175.639 177.72C177.106 177.72 178.313 178.227 179.259 179.24C180.219 180.253 180.699 181.507 180.699 183C180.699 183.333 180.666 183.687 180.599 184.06H173.059ZM173.019 182.06H178.119C177.973 181.38 177.666 180.873 177.199 180.54C176.746 180.207 176.226 180.04 175.639 180.04C174.946 180.04 174.373 180.22 173.919 180.58C173.466 180.927 173.166 181.42 173.019 182.06ZM185.08 179.72C185.32 179.08 185.714 178.6 186.26 178.28C186.82 177.96 187.44 177.8 188.12 177.8V180.68C187.334 180.587 186.627 180.747 186 181.16C185.387 181.573 185.08 182.26 185.08 183.22V188H182.5V178H185.08V179.72ZM190.909 176.8C190.483 176.8 190.109 176.647 189.789 176.34C189.483 176.02 189.329 175.647 189.329 175.22C189.329 174.793 189.483 174.42 189.789 174.1C190.109 173.78 190.483 173.62 190.909 173.62C191.349 173.62 191.723 173.78 192.029 174.1C192.349 174.42 192.509 174.793 192.509 175.22C192.509 175.647 192.349 176.02 192.029 176.34C191.723 176.647 191.349 176.8 190.909 176.8ZM189.629 188V178H192.209V188H189.629ZM196.751 184.06C197.097 185.313 198.037 185.94 199.571 185.94C200.557 185.94 201.304 185.607 201.811 184.94L203.891 186.14C202.904 187.567 201.451 188.28 199.531 188.28C197.877 188.28 196.551 187.78 195.551 186.78C194.551 185.78 194.051 184.52 194.051 183C194.051 181.493 194.544 180.24 195.531 179.24C196.517 178.227 197.784 177.72 199.331 177.72C200.797 177.72 202.004 178.227 202.951 179.24C203.911 180.253 204.391 181.507 204.391 183C204.391 183.333 204.357 183.687 204.291 184.06H196.751ZM196.711 182.06H201.811C201.664 181.38 201.357 180.873 200.891 180.54C200.437 180.207 199.917 180.04 199.331 180.04C198.637 180.04 198.064 180.22 197.611 180.58C197.157 180.927 196.857 181.42 196.711 182.06ZM211.752 177.72C212.845 177.72 213.745 178.087 214.452 178.82C215.172 179.553 215.532 180.567 215.532 181.86V188H212.952V182.18C212.952 181.513 212.772 181.007 212.412 180.66C212.052 180.3 211.572 180.12 210.972 180.12C210.305 180.12 209.772 180.327 209.372 180.74C208.972 181.153 208.772 181.773 208.772 182.6V188H206.192V178H208.772V179.12C209.398 178.187 210.392 177.72 211.752 177.72ZM222.495 188.28C220.988 188.28 219.728 187.773 218.715 186.76C217.715 185.747 217.215 184.493 217.215 183C217.215 181.507 217.715 180.253 218.715 179.24C219.728 178.227 220.988 177.72 222.495 177.72C223.468 177.72 224.355 177.953 225.155 178.42C225.955 178.887 226.561 179.513 226.975 180.3L224.755 181.6C224.555 181.187 224.248 180.86 223.835 180.62C223.435 180.38 222.981 180.26 222.475 180.26C221.701 180.26 221.061 180.52 220.555 181.04C220.048 181.547 219.795 182.2 219.795 183C219.795 183.787 220.048 184.44 220.555 184.96C221.061 185.467 221.701 185.72 222.475 185.72C222.995 185.72 223.455 185.607 223.855 185.38C224.268 185.14 224.575 184.813 224.775 184.4L227.015 185.68C226.575 186.467 225.955 187.1 225.155 187.58C224.355 188.047 223.468 188.28 222.495 188.28ZM230.403 184.06C230.75 185.313 231.69 185.94 233.223 185.94C234.21 185.94 234.956 185.607 235.463 184.94L237.543 186.14C236.556 187.567 235.103 188.28 233.183 188.28C231.53 188.28 230.203 187.78 229.203 186.78C228.203 185.78 227.703 184.52 227.703 183C227.703 181.493 228.196 180.24 229.183 179.24C230.17 178.227 231.436 177.72 232.983 177.72C234.45 177.72 235.656 178.227 236.603 179.24C237.563 180.253 238.043 181.507 238.043 183C238.043 183.333 238.01 183.687 237.943 184.06H230.403ZM230.363 182.06H235.463C235.316 181.38 235.01 180.873 234.543 180.54C234.09 180.207 233.57 180.04 232.983 180.04C232.29 180.04 231.716 180.22 231.263 180.58C230.81 180.927 230.51 181.42 230.363 182.06Z" fill="white"/>
<path d="M425.063 301V292.68L439.911 277C441.404 275.379 442.492 274.077 443.175 273.096C443.857 272.072 444.199 271.069 444.199 270.088C444.199 268.979 443.836 268.083 443.111 267.4C442.428 266.717 441.468 266.376 440.231 266.376C437.585 266.376 435.58 267.933 434.215 271.048L424.359 265.544C425.809 262.173 427.943 259.613 430.759 257.864C433.575 256.115 436.689 255.24 440.103 255.24C444.369 255.24 448.017 256.52 451.047 259.08C454.119 261.597 455.655 265.053 455.655 269.448C455.655 272.051 455.036 274.461 453.799 276.68C452.604 278.856 450.833 281.16 448.487 283.592L442.407 289.928H456.423V301H425.063ZM469.449 256.2H479.305V301H467.849V268.232L460.041 270.216L457.289 260.552L469.449 256.2ZM516.685 273.544V283.656H506.445V293.896H496.333V283.656H486.093V273.544H496.333V263.304H506.445V273.544H516.685ZM401.883 317.64H396.283V320.96H401.723V323.6H396.283V329H393.523V315H401.883V317.64ZM406.354 320.72C406.594 320.08 406.987 319.6 407.534 319.28C408.094 318.96 408.714 318.8 409.394 318.8V321.68C408.607 321.587 407.9 321.747 407.274 322.16C406.66 322.573 406.354 323.26 406.354 324.22V329H403.774V319H406.354V320.72ZM418.132 319H420.712V329H418.132V327.82C417.358 328.793 416.272 329.28 414.872 329.28C413.538 329.28 412.392 328.773 411.432 327.76C410.485 326.733 410.012 325.48 410.012 324C410.012 322.52 410.485 321.273 411.432 320.26C412.392 319.233 413.538 318.72 414.872 318.72C416.272 318.72 417.358 319.207 418.132 320.18V319ZM413.372 326.04C413.892 326.56 414.552 326.82 415.352 326.82C416.152 326.82 416.812 326.56 417.332 326.04C417.865 325.507 418.132 324.827 418.132 324C418.132 323.173 417.865 322.5 417.332 321.98C416.812 321.447 416.152 321.18 415.352 321.18C414.552 321.18 413.892 321.447 413.372 321.98C412.852 322.5 412.592 323.173 412.592 324C412.592 324.827 412.852 325.507 413.372 326.04ZM428.611 318.72C429.704 318.72 430.604 319.087 431.311 319.82C432.031 320.553 432.391 321.567 432.391 322.86V329H429.811V323.18C429.811 322.513 429.631 322.007 429.271 321.66C428.911 321.3 428.431 321.12 427.831 321.12C427.164 321.12 426.631 321.327 426.231 321.74C425.831 322.153 425.631 322.773 425.631 323.6V329H423.051V319H425.631V320.12C426.258 319.187 427.251 318.72 428.611 318.72ZM439.354 329.28C437.847 329.28 436.587 328.773 435.574 327.76C434.574 326.747 434.074 325.493 434.074 324C434.074 322.507 434.574 321.253 435.574 320.24C436.587 319.227 437.847 318.72 439.354 318.72C440.327 318.72 441.214 318.953 442.014 319.42C442.814 319.887 443.421 320.513 443.834 321.3L441.614 322.6C441.414 322.187 441.107 321.86 440.694 321.62C440.294 321.38 439.841 321.26 439.334 321.26C438.561 321.26 437.921 321.52 437.414 322.04C436.907 322.547 436.654 323.2 436.654 324C436.654 324.787 436.907 325.44 437.414 325.96C437.921 326.467 438.561 326.72 439.334 326.72C439.854 326.72 440.314 326.607 440.714 326.38C441.127 326.14 441.434 325.813 441.634 325.4L443.874 326.68C443.434 327.467 442.814 328.1 442.014 328.58C441.214 329.047 440.327 329.28 439.354 329.28ZM450.799 318.72C451.892 318.72 452.792 319.087 453.499 319.82C454.219 320.553 454.579 321.567 454.579 322.86V329H451.999V323.18C451.999 322.513 451.819 322.007 451.459 321.66C451.099 321.3 450.619 321.12 450.019 321.12C449.352 321.12 448.819 321.327 448.419 321.74C448.019 322.153 447.819 322.773 447.819 323.6V329H445.239V315H447.819V320.12C448.445 319.187 449.439 318.72 450.799 318.72ZM458.062 317.8C457.635 317.8 457.262 317.647 456.942 317.34C456.635 317.02 456.482 316.647 456.482 316.22C456.482 315.793 456.635 315.42 456.942 315.1C457.262 314.78 457.635 314.62 458.062 314.62C458.502 314.62 458.875 314.78 459.182 315.1C459.502 315.42 459.662 315.793 459.662 316.22C459.662 316.647 459.502 317.02 459.182 317.34C458.875 317.647 458.502 317.8 458.062 317.8ZM456.782 329V319H459.362V329H456.782ZM464.025 321.84C464.025 322.107 464.198 322.327 464.545 322.5C464.905 322.66 465.338 322.807 465.845 322.94C466.352 323.06 466.858 323.22 467.365 323.42C467.872 323.607 468.298 323.927 468.645 324.38C469.005 324.833 469.185 325.4 469.185 326.08C469.185 327.107 468.798 327.9 468.025 328.46C467.265 329.007 466.312 329.28 465.165 329.28C463.112 329.28 461.712 328.487 460.965 326.9L463.205 325.64C463.498 326.507 464.152 326.94 465.165 326.94C466.085 326.94 466.545 326.653 466.545 326.08C466.545 325.813 466.365 325.6 466.005 325.44C465.658 325.267 465.232 325.113 464.725 324.98C464.218 324.847 463.712 324.68 463.205 324.48C462.698 324.28 462.265 323.967 461.905 323.54C461.558 323.1 461.385 322.553 461.385 321.9C461.385 320.913 461.745 320.14 462.465 319.58C463.198 319.007 464.105 318.72 465.185 318.72C465.998 318.72 466.738 318.907 467.405 319.28C468.072 319.64 468.598 320.16 468.985 320.84L466.785 322.04C466.465 321.36 465.932 321.02 465.185 321.02C464.852 321.02 464.572 321.093 464.345 321.24C464.132 321.387 464.025 321.587 464.025 321.84ZM472.887 325.06C473.234 326.313 474.174 326.94 475.707 326.94C476.694 326.94 477.441 326.607 477.947 325.94L480.027 327.14C479.041 328.567 477.587 329.28 475.667 329.28C474.014 329.28 472.687 328.78 471.687 327.78C470.687 326.78 470.187 325.52 470.187 324C470.187 322.493 470.681 321.24 471.667 320.24C472.654 319.227 473.921 318.72 475.467 318.72C476.934 318.72 478.141 319.227 479.087 320.24C480.047 321.253 480.527 322.507 480.527 324C480.527 324.333 480.494 324.687 480.427 325.06H472.887ZM472.847 323.06H477.947C477.801 322.38 477.494 321.873 477.027 321.54C476.574 321.207 476.054 321.04 475.467 321.04C474.774 321.04 474.201 321.22 473.747 321.58C473.294 321.927 472.994 322.42 472.847 323.06ZM494.928 319H497.508V329H494.928V327.82C494.155 328.793 493.068 329.28 491.668 329.28C490.335 329.28 489.188 328.773 488.228 327.76C487.282 326.733 486.808 325.48 486.808 324C486.808 322.52 487.282 321.273 488.228 320.26C489.188 319.233 490.335 318.72 491.668 318.72C493.068 318.72 494.155 319.207 494.928 320.18V319ZM490.168 326.04C490.688 326.56 491.348 326.82 492.148 326.82C492.948 326.82 493.608 326.56 494.128 326.04C494.662 325.507 494.928 324.827 494.928 324C494.928 323.173 494.662 322.5 494.128 321.98C493.608 321.447 492.948 321.18 492.148 321.18C491.348 321.18 490.688 321.447 490.168 321.98C489.648 322.5 489.388 323.173 489.388 324C489.388 324.827 489.648 325.507 490.168 326.04ZM504.608 329.28C503.101 329.28 501.841 328.773 500.828 327.76C499.828 326.747 499.328 325.493 499.328 324C499.328 322.507 499.828 321.253 500.828 320.24C501.841 319.227 503.101 318.72 504.608 318.72C505.581 318.72 506.468 318.953 507.268 319.42C508.068 319.887 508.675 320.513 509.088 321.3L506.868 322.6C506.668 322.187 506.361 321.86 505.948 321.62C505.548 321.38 505.095 321.26 504.588 321.26C503.815 321.26 503.175 321.52 502.668 322.04C502.161 322.547 501.908 323.2 501.908 324C501.908 324.787 502.161 325.44 502.668 325.96C503.175 326.467 503.815 326.72 504.588 326.72C505.108 326.72 505.568 326.607 505.968 326.38C506.381 326.14 506.688 325.813 506.888 325.4L509.128 326.68C508.688 327.467 508.068 328.1 507.268 328.58C506.468 329.047 505.581 329.28 504.608 329.28ZM513.151 320.72C513.391 320.08 513.784 319.6 514.331 319.28C514.891 318.96 515.511 318.8 516.191 318.8V321.68C515.404 321.587 514.697 321.747 514.071 322.16C513.457 322.573 513.151 323.26 513.151 324.22V329H510.571V319H513.151V320.72ZM525.848 327.76C524.822 328.773 523.568 329.28 522.088 329.28C520.608 329.28 519.355 328.773 518.328 327.76C517.315 326.733 516.808 325.48 516.808 324C516.808 322.52 517.315 321.273 518.328 320.26C519.355 319.233 520.608 318.72 522.088 318.72C523.568 318.72 524.822 319.233 525.848 320.26C526.875 321.273 527.388 322.52 527.388 324C527.388 325.48 526.875 326.733 525.848 327.76ZM520.148 325.98C520.668 326.5 521.315 326.76 522.088 326.76C522.862 326.76 523.508 326.5 524.028 325.98C524.548 325.46 524.808 324.8 524.808 324C524.808 323.2 524.548 322.54 524.028 322.02C523.508 321.5 522.862 321.24 522.088 321.24C521.315 321.24 520.668 321.5 520.148 322.02C519.642 322.54 519.388 323.2 519.388 324C519.388 324.8 519.642 325.46 520.148 325.98ZM531.369 321.84C531.369 322.107 531.542 322.327 531.889 322.5C532.249 322.66 532.682 322.807 533.189 322.94C533.695 323.06 534.202 323.22 534.709 323.42C535.215 323.607 535.642 323.927 535.989 324.38C536.349 324.833 536.529 325.4 536.529 326.08C536.529 327.107 536.142 327.9 535.369 328.46C534.609 329.007 533.655 329.28 532.509 329.28C530.455 329.28 529.055 328.487 528.309 326.9L530.549 325.64C530.842 326.507 531.495 326.94 532.509 326.94C533.429 326.94 533.889 326.653 533.889 326.08C533.889 325.813 533.709 325.6 533.349 325.44C533.002 325.267 532.575 325.113 532.069 324.98C531.562 324.847 531.055 324.68 530.549 324.48C530.042 324.28 529.609 323.967 529.249 323.54C528.902 323.1 528.729 322.553 528.729 321.9C528.729 320.913 529.089 320.14 529.809 319.58C530.542 319.007 531.449 318.72 532.529 318.72C533.342 318.72 534.082 318.907 534.749 319.28C535.415 319.64 535.942 320.16 536.329 320.84L534.129 322.04C533.809 321.36 533.275 321.02 532.529 321.02C532.195 321.02 531.915 321.093 531.689 321.24C531.475 321.387 531.369 321.587 531.369 321.84ZM540.04 321.84C540.04 322.107 540.214 322.327 540.56 322.5C540.92 322.66 541.354 322.807 541.86 322.94C542.367 323.06 542.874 323.22 543.38 323.42C543.887 323.607 544.314 323.927 544.66 324.38C545.02 324.833 545.2 325.4 545.2 326.08C545.2 327.107 544.814 327.9 544.04 328.46C543.28 329.007 542.327 329.28 541.18 329.28C539.127 329.28 537.727 328.487 536.98 326.9L539.22 325.64C539.514 326.507 540.167 326.94 541.18 326.94C542.1 326.94 542.56 326.653 542.56 326.08C542.56 325.813 542.38 325.6 542.02 325.44C541.674 325.267 541.247 325.113 540.74 324.98C540.234 324.847 539.727 324.68 539.22 324.48C538.714 324.28 538.28 323.967 537.92 323.54C537.574 323.1 537.4 322.553 537.4 321.9C537.4 320.913 537.76 320.14 538.48 319.58C539.214 319.007 540.12 318.72 541.2 318.72C542.014 318.72 542.754 318.907 543.42 319.28C544.087 319.64 544.614 320.16 545 320.84L542.8 322.04C542.48 321.36 541.947 321.02 541.2 321.02C540.867 321.02 540.587 321.093 540.36 321.24C540.147 321.387 540.04 321.587 540.04 321.84ZM418.756 357.28C416.65 357.28 414.91 356.58 413.536 355.18C412.163 353.78 411.476 352.053 411.476 350C411.476 347.933 412.163 346.207 413.536 344.82C414.91 343.42 416.65 342.72 418.756 342.72C420.023 342.72 421.19 343.02 422.256 343.62C423.336 344.207 424.176 345.007 424.776 346.02L422.396 347.4C422.05 346.773 421.556 346.287 420.916 345.94C420.276 345.58 419.556 345.4 418.756 345.4C417.396 345.4 416.296 345.827 415.456 346.68C414.63 347.533 414.216 348.64 414.216 350C414.216 351.347 414.63 352.447 415.456 353.3C416.296 354.153 417.396 354.58 418.756 354.58C419.556 354.58 420.276 354.407 420.916 354.06C421.57 353.7 422.063 353.213 422.396 352.6L424.776 353.98C424.176 354.993 423.343 355.8 422.276 356.4C421.21 356.987 420.036 357.28 418.756 357.28ZM428.59 353.06C428.937 354.313 429.877 354.94 431.41 354.94C432.397 354.94 433.144 354.607 433.65 353.94L435.73 355.14C434.744 356.567 433.29 357.28 431.37 357.28C429.717 357.28 428.39 356.78 427.39 355.78C426.39 354.78 425.89 353.52 425.89 352C425.89 350.493 426.384 349.24 427.37 348.24C428.357 347.227 429.624 346.72 431.17 346.72C432.637 346.72 433.844 347.227 434.79 348.24C435.75 349.253 436.23 350.507 436.23 352C436.23 352.333 436.197 352.687 436.13 353.06H428.59ZM428.55 351.06H433.65C433.504 350.38 433.197 349.873 432.73 349.54C432.277 349.207 431.757 349.04 431.17 349.04C430.477 349.04 429.904 349.22 429.45 349.58C428.997 349.927 428.697 350.42 428.55 351.06ZM443.592 346.72C444.685 346.72 445.585 347.087 446.292 347.82C447.012 348.553 447.372 349.567 447.372 350.86V357H444.792V351.18C444.792 350.513 444.612 350.007 444.252 349.66C443.892 349.3 443.412 349.12 442.812 349.12C442.145 349.12 441.612 349.327 441.212 349.74C440.812 350.153 440.612 350.773 440.612 351.6V357H438.032V347H440.612V348.12C441.238 347.187 442.232 346.72 443.592 346.72ZM455.295 349.48H453.035V353.64C453.035 353.987 453.121 354.24 453.295 354.4C453.468 354.56 453.721 354.653 454.055 354.68C454.388 354.693 454.801 354.687 455.295 354.66V357C453.521 357.2 452.268 357.033 451.535 356.5C450.815 355.967 450.455 355.013 450.455 353.64V349.48H448.715V347H450.455V344.98L453.035 344.2V347H455.295V349.48ZM459.85 348.72C460.09 348.08 460.483 347.6 461.03 347.28C461.59 346.96 462.21 346.8 462.89 346.8V349.68C462.103 349.587 461.397 349.747 460.77 350.16C460.157 350.573 459.85 351.26 459.85 352.22V357H457.27V347H459.85V348.72ZM471.628 347H474.208V357H471.628V355.82C470.854 356.793 469.768 357.28 468.368 357.28C467.034 357.28 465.888 356.773 464.928 355.76C463.981 354.733 463.508 353.48 463.508 352C463.508 350.52 463.981 349.273 464.928 348.26C465.888 347.233 467.034 346.72 468.368 346.72C469.768 346.72 470.854 347.207 471.628 348.18V347ZM466.868 354.04C467.388 354.56 468.048 354.82 468.848 354.82C469.648 354.82 470.308 354.56 470.828 354.04C471.361 353.507 471.628 352.827 471.628 352C471.628 351.173 471.361 350.5 470.828 349.98C470.308 349.447 469.648 349.18 468.848 349.18C468.048 349.18 467.388 349.447 466.868 349.98C466.348 350.5 466.088 351.173 466.088 352C466.088 352.827 466.348 353.507 466.868 354.04ZM476.547 357V342.4H479.127V357H476.547ZM486.609 343H489.369V357H486.609V343ZM497.4 346.72C498.493 346.72 499.393 347.087 500.1 347.82C500.82 348.553 501.18 349.567 501.18 350.86V357H498.6V351.18C498.6 350.513 498.42 350.007 498.06 349.66C497.7 349.3 497.22 349.12 496.62 349.12C495.953 349.12 495.42 349.327 495.02 349.74C494.62 350.153 494.42 350.773 494.42 351.6V357H491.84V347H494.42V348.12C495.047 347.187 496.04 346.72 497.4 346.72ZM510.963 343H513.543V357H510.963V355.82C510.203 356.793 509.123 357.28 507.723 357.28C506.376 357.28 505.223 356.773 504.263 355.76C503.316 354.733 502.843 353.48 502.843 352C502.843 350.52 503.316 349.273 504.263 348.26C505.223 347.233 506.376 346.72 507.723 346.72C509.123 346.72 510.203 347.207 510.963 348.18V343ZM506.203 354.04C506.736 354.56 507.403 354.82 508.203 354.82C509.003 354.82 509.663 354.56 510.183 354.04C510.703 353.507 510.963 352.827 510.963 352C510.963 351.173 510.703 350.5 510.183 349.98C509.663 349.447 509.003 349.18 508.203 349.18C507.403 349.18 506.736 349.447 506.203 349.98C505.683 350.5 505.423 351.173 505.423 352C505.423 352.827 505.683 353.507 506.203 354.04ZM517.183 345.8C516.756 345.8 516.383 345.647 516.063 345.34C515.756 345.02 515.603 344.647 515.603 344.22C515.603 343.793 515.756 343.42 516.063 343.1C516.383 342.78 516.756 342.62 517.183 342.62C517.623 342.62 517.996 342.78 518.303 343.1C518.623 343.42 518.783 343.793 518.783 344.22C518.783 344.647 518.623 345.02 518.303 345.34C517.996 345.647 517.623 345.8 517.183 345.8ZM515.903 357V347H518.483V357H515.903ZM528.444 347H531.024V357H528.444V355.82C527.671 356.793 526.584 357.28 525.184 357.28C523.851 357.28 522.704 356.773 521.744 355.76C520.797 354.733 520.324 353.48 520.324 352C520.324 350.52 520.797 349.273 521.744 348.26C522.704 347.233 523.851 346.72 525.184 346.72C526.584 346.72 527.671 347.207 528.444 348.18V347ZM523.684 354.04C524.204 354.56 524.864 354.82 525.664 354.82C526.464 354.82 527.124 354.56 527.644 354.04C528.177 353.507 528.444 352.827 528.444 352C528.444 351.173 528.177 350.5 527.644 349.98C527.124 349.447 526.464 349.18 525.664 349.18C524.864 349.18 524.204 349.447 523.684 349.98C523.164 350.5 522.904 351.173 522.904 352C522.904 352.827 523.164 353.507 523.684 354.04Z" fill="#504E76"/>
<path d="M706.779 127.944C711.173 127.944 714.821 129.224 717.723 131.784C720.667 134.344 722.139 137.971 722.139 142.664C722.139 147.528 720.56 151.304 717.403 153.992C714.245 156.637 710.32 157.96 705.627 157.96C701.701 157.96 698.288 157.128 695.387 155.464C692.485 153.757 690.373 151.219 689.051 147.848L699.035 142.152C699.973 145.267 702.171 146.824 705.627 146.824C707.248 146.824 708.485 146.461 709.339 145.736C710.235 144.968 710.683 143.944 710.683 142.664C710.683 141.341 710.235 140.317 709.339 139.592C708.485 138.867 707.312 138.504 705.819 138.504H691.483L693.339 112.2H719.707V123.144H703.899L703.579 127.944H706.779ZM756.823 151.624C753.581 155.848 749.037 157.96 743.191 157.96C737.346 157.96 732.781 155.848 729.495 151.624C726.253 147.357 724.631 141.683 724.631 134.6C724.631 127.517 726.253 121.864 729.495 117.64C732.781 113.373 737.346 111.24 743.191 111.24C749.037 111.24 753.581 113.373 756.823 117.64C760.109 121.864 761.751 127.517 761.751 134.6C761.751 141.683 760.109 147.357 756.823 151.624ZM736.087 134.6C736.087 142.749 738.455 146.824 743.191 146.824C747.927 146.824 750.295 142.749 750.295 134.6C750.295 126.451 747.927 122.376 743.191 122.376C738.455 122.376 736.087 126.451 736.087 134.6ZM797.136 151.624C793.893 155.848 789.349 157.96 783.504 157.96C777.658 157.96 773.093 155.848 769.808 151.624C766.565 147.357 764.944 141.683 764.944 134.6C764.944 127.517 766.565 121.864 769.808 117.64C773.093 113.373 777.658 111.24 783.504 111.24C789.349 111.24 793.893 113.373 797.136 117.64C800.421 121.864 802.064 127.517 802.064 134.6C802.064 141.683 800.421 147.357 797.136 151.624ZM776.4 134.6C776.4 142.749 778.768 146.824 783.504 146.824C788.24 146.824 790.608 142.749 790.608 134.6C790.608 126.451 788.24 122.376 783.504 122.376C778.768 122.376 776.4 126.451 776.4 134.6ZM837.448 151.624C834.206 155.848 829.662 157.96 823.816 157.96C817.971 157.96 813.406 155.848 810.12 151.624C806.878 147.357 805.256 141.683 805.256 134.6C805.256 127.517 806.878 121.864 810.12 117.64C813.406 113.373 817.971 111.24 823.816 111.24C829.662 111.24 834.206 113.373 837.448 117.64C840.734 121.864 842.376 127.517 842.376 134.6C842.376 141.683 840.734 147.357 837.448 151.624ZM816.712 134.6C816.712 142.749 819.08 146.824 823.816 146.824C828.552 146.824 830.92 142.749 830.92 134.6C830.92 126.451 828.552 122.376 823.816 122.376C819.08 122.376 816.712 126.451 816.712 134.6ZM877.185 129.544V139.656H866.945V149.896H856.833V139.656H846.593V129.544H856.833V119.304H866.945V129.544H877.185ZM695.734 185.28C694.348 185.28 693.181 184.973 692.234 184.36C691.288 183.733 690.621 182.887 690.234 181.82L692.594 180.44C693.141 181.867 694.214 182.58 695.814 182.58C696.588 182.58 697.154 182.44 697.514 182.16C697.874 181.88 698.054 181.527 698.054 181.1C698.054 180.607 697.834 180.227 697.394 179.96C696.954 179.68 696.168 179.38 695.034 179.06C694.408 178.873 693.874 178.687 693.434 178.5C693.008 178.313 692.574 178.067 692.134 177.76C691.708 177.44 691.381 177.04 691.154 176.56C690.928 176.08 690.814 175.52 690.814 174.88C690.814 173.613 691.261 172.607 692.154 171.86C693.061 171.1 694.148 170.72 695.414 170.72C696.548 170.72 697.541 171 698.394 171.56C699.261 172.107 699.934 172.873 700.414 173.86L698.094 175.2C697.534 174 696.641 173.4 695.414 173.4C694.841 173.4 694.388 173.533 694.054 173.8C693.734 174.053 693.574 174.387 693.574 174.8C693.574 175.24 693.754 175.6 694.114 175.88C694.488 176.147 695.194 176.44 696.234 176.76C696.661 176.893 696.981 177 697.194 177.08C697.421 177.147 697.721 177.26 698.094 177.42C698.481 177.567 698.774 177.707 698.974 177.84C699.188 177.973 699.428 178.153 699.694 178.38C699.961 178.607 700.161 178.84 700.294 179.08C700.441 179.32 700.561 179.613 700.654 179.96C700.761 180.293 700.814 180.66 700.814 181.06C700.814 182.353 700.341 183.38 699.394 184.14C698.461 184.9 697.241 185.28 695.734 185.28ZM707.921 177.48H705.661V181.64C705.661 181.987 705.748 182.24 705.921 182.4C706.095 182.56 706.348 182.653 706.681 182.68C707.015 182.693 707.428 182.687 707.921 182.66V185C706.148 185.2 704.895 185.033 704.161 184.5C703.441 183.967 703.081 183.013 703.081 181.64V177.48H701.341V175H703.081V172.98L705.661 172.2V175H707.921V177.48ZM716.497 175H719.077V185H716.497V183.88C715.87 184.813 714.877 185.28 713.517 185.28C712.423 185.28 711.517 184.913 710.797 184.18C710.09 183.447 709.737 182.433 709.737 181.14V175H712.317V180.82C712.317 181.487 712.497 182 712.857 182.36C713.217 182.707 713.697 182.88 714.297 182.88C714.963 182.88 715.497 182.673 715.897 182.26C716.297 181.847 716.497 181.227 716.497 180.4V175ZM729.02 171H731.6V185H729.02V183.82C728.26 184.793 727.18 185.28 725.78 185.28C724.433 185.28 723.28 184.773 722.32 183.76C721.373 182.733 720.9 181.48 720.9 180C720.9 178.52 721.373 177.273 722.32 176.26C723.28 175.233 724.433 174.72 725.78 174.72C727.18 174.72 728.26 175.207 729.02 176.18V171ZM724.26 182.04C724.793 182.56 725.46 182.82 726.26 182.82C727.06 182.82 727.72 182.56 728.24 182.04C728.76 181.507 729.02 180.827 729.02 180C729.02 179.173 728.76 178.5 728.24 177.98C727.72 177.447 727.06 177.18 726.26 177.18C725.46 177.18 724.793 177.447 724.26 177.98C723.74 178.5 723.48 179.173 723.48 180C723.48 180.827 723.74 181.507 724.26 182.04ZM736.139 181.06C736.486 182.313 737.426 182.94 738.959 182.94C739.946 182.94 740.693 182.607 741.199 181.94L743.279 183.14C742.293 184.567 740.839 185.28 738.919 185.28C737.266 185.28 735.939 184.78 734.939 183.78C733.939 182.78 733.439 181.52 733.439 180C733.439 178.493 733.933 177.24 734.919 176.24C735.906 175.227 737.173 174.72 738.719 174.72C740.186 174.72 741.393 175.227 742.339 176.24C743.299 177.253 743.779 178.507 743.779 180C743.779 180.333 743.746 180.687 743.679 181.06H736.139ZM736.099 179.06H741.199C741.053 178.38 740.746 177.873 740.279 177.54C739.826 177.207 739.306 177.04 738.719 177.04C738.026 177.04 737.453 177.22 736.999 177.58C736.546 177.927 736.246 178.42 736.099 179.06ZM751.14 174.72C752.234 174.72 753.134 175.087 753.84 175.82C754.56 176.553 754.92 177.567 754.92 178.86V185H752.34V179.18C752.34 178.513 752.16 178.007 751.8 177.66C751.44 177.3 750.96 177.12 750.36 177.12C749.694 177.12 749.16 177.327 748.76 177.74C748.36 178.153 748.16 178.773 748.16 179.6V185H745.58V175H748.16V176.12C748.787 175.187 749.78 174.72 751.14 174.72ZM762.843 177.48H760.583V181.64C760.583 181.987 760.67 182.24 760.843 182.4C761.017 182.56 761.27 182.653 761.603 182.68C761.937 182.693 762.35 182.687 762.843 182.66V185C761.07 185.2 759.817 185.033 759.083 184.5C758.363 183.967 758.003 183.013 758.003 181.64V177.48H756.263V175H758.003V172.98L760.583 172.2V175H762.843V177.48ZM766.828 177.84C766.828 178.107 767.001 178.327 767.348 178.5C767.708 178.66 768.141 178.807 768.648 178.94C769.154 179.06 769.661 179.22 770.168 179.42C770.674 179.607 771.101 179.927 771.448 180.38C771.808 180.833 771.988 181.4 771.988 182.08C771.988 183.107 771.601 183.9 770.828 184.46C770.068 185.007 769.114 185.28 767.968 185.28C765.914 185.28 764.514 184.487 763.768 182.9L766.008 181.64C766.301 182.507 766.954 182.94 767.968 182.94C768.888 182.94 769.348 182.653 769.348 182.08C769.348 181.813 769.168 181.6 768.808 181.44C768.461 181.267 768.034 181.113 767.528 180.98C767.021 180.847 766.514 180.68 766.008 180.48C765.501 180.28 765.068 179.967 764.708 179.54C764.361 179.1 764.188 178.553 764.188 177.9C764.188 176.913 764.548 176.14 765.268 175.58C766.001 175.007 766.908 174.72 767.988 174.72C768.801 174.72 769.541 174.907 770.208 175.28C770.874 175.64 771.401 176.16 771.788 176.84L769.588 178.04C769.268 177.36 768.734 177.02 767.988 177.02C767.654 177.02 767.374 177.093 767.148 177.24C766.934 177.387 766.828 177.587 766.828 177.84ZM784.424 171C786.344 171 787.944 171.673 789.224 173.02C790.518 174.367 791.164 176.027 791.164 178C791.164 179.973 790.518 181.633 789.224 182.98C787.944 184.327 786.344 185 784.424 185H778.864V171H784.424ZM784.424 182.36C785.638 182.36 786.624 181.96 787.384 181.16C788.144 180.347 788.524 179.293 788.524 178C788.524 176.707 788.144 175.66 787.384 174.86C786.624 174.047 785.638 173.64 784.424 173.64H781.624V182.36H784.424ZM795.182 181.06C795.529 182.313 796.469 182.94 798.002 182.94C798.989 182.94 799.736 182.607 800.242 181.94L802.322 183.14C801.336 184.567 799.882 185.28 797.962 185.28C796.309 185.28 794.982 184.78 793.982 183.78C792.982 182.78 792.482 181.52 792.482 180C792.482 178.493 792.976 177.24 793.962 176.24C794.949 175.227 796.216 174.72 797.762 174.72C799.229 174.72 800.436 175.227 801.382 176.24C802.342 177.253 802.822 178.507 802.822 180C802.822 180.333 802.789 180.687 802.722 181.06H795.182ZM795.142 179.06H800.242C800.096 178.38 799.789 177.873 799.322 177.54C798.869 177.207 798.349 177.04 797.762 177.04C797.069 177.04 796.496 177.22 796.042 177.58C795.589 177.927 795.289 178.42 795.142 179.06ZM810.813 175H813.653L809.853 185H806.913L803.113 175H805.953L808.373 182L810.813 175ZM816.686 181.06C817.033 182.313 817.973 182.94 819.506 182.94C820.493 182.94 821.24 182.607 821.746 181.94L823.826 183.14C822.84 184.567 821.386 185.28 819.466 185.28C817.813 185.28 816.486 184.78 815.486 183.78C814.486 182.78 813.986 181.52 813.986 180C813.986 178.493 814.48 177.24 815.466 176.24C816.453 175.227 817.72 174.72 819.266 174.72C820.733 174.72 821.94 175.227 822.886 176.24C823.846 177.253 824.326 178.507 824.326 180C824.326 180.333 824.293 180.687 824.226 181.06H816.686ZM816.646 179.06H821.746C821.6 178.38 821.293 177.873 820.826 177.54C820.373 177.207 819.853 177.04 819.266 177.04C818.573 177.04 818 177.22 817.546 177.58C817.093 177.927 816.793 178.42 816.646 179.06ZM826.127 185V170.4H828.707V185H826.127ZM839.589 183.76C838.562 184.773 837.309 185.28 835.829 185.28C834.349 185.28 833.095 184.773 832.069 183.76C831.055 182.733 830.549 181.48 830.549 180C830.549 178.52 831.055 177.273 832.069 176.26C833.095 175.233 834.349 174.72 835.829 174.72C837.309 174.72 838.562 175.233 839.589 176.26C840.615 177.273 841.129 178.52 841.129 180C841.129 181.48 840.615 182.733 839.589 183.76ZM833.889 181.98C834.409 182.5 835.055 182.76 835.829 182.76C836.602 182.76 837.249 182.5 837.769 181.98C838.289 181.46 838.549 180.8 838.549 180C838.549 179.2 838.289 178.54 837.769 178.02C837.249 177.5 836.602 177.24 835.829 177.24C835.055 177.24 834.409 177.5 833.889 178.02C833.382 178.54 833.129 179.2 833.129 180C833.129 180.8 833.382 181.46 833.889 181.98ZM848.764 174.72C850.11 174.72 851.257 175.233 852.204 176.26C853.164 177.273 853.644 178.52 853.644 180C853.644 181.48 853.164 182.733 852.204 183.76C851.257 184.773 850.11 185.28 848.764 185.28C847.364 185.28 846.284 184.793 845.524 183.82V189H842.944V175H845.524V176.18C846.284 175.207 847.364 174.72 848.764 174.72ZM846.304 182.04C846.824 182.56 847.484 182.82 848.284 182.82C849.084 182.82 849.744 182.56 850.264 182.04C850.797 181.507 851.064 180.827 851.064 180C851.064 179.173 850.797 178.5 850.264 177.98C849.744 177.447 849.084 177.18 848.284 177.18C847.484 177.18 846.824 177.447 846.304 177.98C845.784 178.5 845.524 179.173 845.524 180C845.524 180.827 845.784 181.507 846.304 182.04ZM857.643 181.06C857.99 182.313 858.93 182.94 860.463 182.94C861.45 182.94 862.197 182.607 862.703 181.94L864.783 183.14C863.797 184.567 862.343 185.28 860.423 185.28C858.77 185.28 857.443 184.78 856.443 183.78C855.443 182.78 854.943 181.52 854.943 180C854.943 178.493 855.437 177.24 856.423 176.24C857.41 175.227 858.677 174.72 860.223 174.72C861.69 174.72 862.897 175.227 863.843 176.24C864.803 177.253 865.283 178.507 865.283 180C865.283 180.333 865.25 180.687 865.183 181.06H857.643ZM857.603 179.06H862.703C862.557 178.38 862.25 177.873 861.783 177.54C861.33 177.207 860.81 177.04 860.223 177.04C859.53 177.04 858.957 177.22 858.503 177.58C858.05 177.927 857.75 178.42 857.603 179.06ZM874.586 171H877.166V185H874.586V183.82C873.826 184.793 872.746 185.28 871.346 185.28C870 185.28 868.846 184.773 867.886 183.76C866.94 182.733 866.466 181.48 866.466 180C866.466 178.52 866.94 177.273 867.886 176.26C868.846 175.233 870 174.72 871.346 174.72C872.746 174.72 873.826 175.207 874.586 176.18V171ZM869.826 182.04C870.36 182.56 871.026 182.82 871.826 182.82C872.626 182.82 873.286 182.56 873.806 182.04C874.326 181.507 874.586 180.827 874.586 180C874.586 179.173 874.326 178.5 873.806 177.98C873.286 177.447 872.626 177.18 871.826 177.18C871.026 177.18 870.36 177.447 869.826 177.98C869.306 178.5 869.046 179.173 869.046 180C869.046 180.827 869.306 181.507 869.826 182.04Z" fill="white"/>
<path d="M519.943 80.9062C517.91 78.8724 517.91 75.5749 519.943 73.5411C521.977 71.5073 525.275 71.5073 527.308 73.5411L544.641 90.8734C546.675 92.9072 546.675 96.2047 544.641 98.2385C542.607 100.272 539.309 100.272 537.276 98.2385L519.943 80.9062Z" fill="white"/>
<path d="M547.541 87.9779C545.507 85.9441 545.507 82.6467 547.541 80.6129L564.873 63.2806C566.907 61.2467 570.205 61.2467 572.238 63.2805C574.272 65.3144 574.272 68.6118 572.238 70.6456L554.906 87.9779C552.872 90.0118 549.575 90.0118 547.541 87.9779Z" fill="white"/>
<path d="M533.743 74.1778C529.757 70.1919 529.757 63.7295 533.743 59.7436C537.729 55.7577 544.192 55.7577 548.178 59.7436C552.163 63.7295 552.163 70.1919 548.178 74.1778C544.192 78.1637 537.729 78.1637 533.743 74.1778Z" fill="white"/>
<path d="M509.683 70.6408C507.649 68.607 507.649 65.3095 509.683 63.2757L527.015 45.9434C529.049 43.9096 532.346 43.9096 534.38 45.9434C536.414 47.9772 536.414 51.2747 534.38 53.3085L517.048 70.6408C515.014 72.6746 511.716 72.6746 509.683 70.6408Z" fill="white"/>
<path d="M537.28 43.0478C535.247 41.014 535.247 37.7165 537.28 35.6827C539.314 33.6489 542.612 33.6489 544.645 35.6827L561.978 53.015C564.012 55.0488 564.012 58.3463 561.978 60.3801C559.944 62.4139 556.646 62.4139 554.613 60.3801L537.28 43.0478Z" fill="white"/>
<path d="M1007.92 218.626C1005.33 217.438 1002.46 216.759 999.421 216.759C988.143 216.759 979 225.901 979 237.179C979 248.457 988.143 257.6 999.421 257.6C1002.46 257.6 1005.33 256.921 1007.92 255.733C1003.11 251.004 1000.12 244.436 1000.12 237.179C1000.12 229.923 1003.11 223.355 1007.92 218.626Z" fill="white"/>
<path d="M1044.73 228.682C1040 233.488 1033.44 236.475 1026.18 236.475C1018.92 236.475 1012.35 233.488 1007.63 228.682C1006.44 231.273 1005.76 234.142 1005.76 237.179C1005.76 248.457 1014.9 257.6 1026.18 257.6C1037.46 257.6 1046.6 248.457 1046.6 237.179C1046.6 234.142 1045.92 231.274 1044.73 228.682Z" fill="white"/>
<path d="M1026.18 190C1023.14 190 1020.27 190.679 1017.68 191.867C1022.49 196.596 1025.48 203.164 1025.48 210.421C1025.48 217.677 1022.49 224.245 1017.68 228.974C1020.27 230.162 1023.14 230.841 1026.18 230.841C1037.46 230.841 1046.6 221.699 1046.6 210.421C1046.6 199.143 1037.46 190 1026.18 190Z" fill="white"/>
<path d="M999.421 190C988.143 190 979 199.143 979 210.421C979 213.458 979.679 216.326 980.867 218.915C985.596 214.112 992.164 211.125 999.421 211.125C1006.68 211.125 1013.25 214.112 1017.97 218.915C1019.16 216.327 1019.84 213.458 1019.84 210.421C1019.84 199.143 1010.7 190 999.421 190Z" fill="white"/>
<g clip-path="url(#clip0_1629_655)">
<path d="M86 385.5C86 397.92 75.92 408 63.5 408C51.08 408 41 397.92 41 385.5C41 373.08 51.08 363 63.5 363L70.3541 359.083L63.5 354C46.085 354 32 368.085 32 385.5C32 402.915 46.085 417 63.5 417C80.915 417 95 402.915 95 385.5L89.9167 379.943L86 385.5Z" fill="white"/>
<path d="M104 385.5C104 374.34 99.455 364.17 92.12 356.88C84.83 349.545 74.6599 345 63.5 345V354L70.3541 359.083L63.5 363V372L77 385.5H86L89.9167 379.943L95 385.5H104Z" fill="white"/>
<path d="M77 385.5C77 392.97 70.9699 399 63.5 399C56.0301 399 50 392.97 50 385.5C50 378.03 56.0301 372 63.5 372L77 385.5Z" fill="white"/>
<path d="M95 385.5H86C86 373.08 75.92 363 63.5 363V354C80.915 354 95 368.085 95 385.5Z" fill="white"/>
<path d="M77 385.5H63.5V372C70.9699 372 77 378.03 77 385.5Z" fill="white"/>
</g>
<path d="M691.5 416.73L696 417H691.5V416.73Z" fill="white"/>
<path d="M691.5 356.25L696 358.5V363L691.5 365.25L696 367.5V372L691.5 374.25L696 376.5V385.5L691.5 387.75L696 390V394.5L691.5 396.75L696 399V403.5L691.5 405.75L696 408V412.5L691.5 416.73C673.725 414.525 660 399.36 660 381C660 362.64 673.725 347.475 691.5 345.27L696 349.5V354L691.5 356.25Z" fill="white"/>
<path d="M691.5 345H696L691.5 345.27V345Z" fill="white"/>
<path d="M732 381C732 400.845 715.845 417 696 417L691.5 414.75L696 412.5C713.37 412.5 727.5 398.37 727.5 381C727.5 363.63 713.37 349.5 696 349.5L691.5 347.25L696 345C715.845 345 732 361.155 732 381Z" fill="white"/>
<path d="M723 381C723 395.895 710.895 408 696 408L691.5 405.75L696 403.5C708.42 403.5 718.5 393.42 718.5 381C718.5 368.58 708.42 358.5 696 358.5L691.5 356.25L696 354C710.895 354 723 366.105 723 381Z" fill="white"/>
<path d="M714 381C714 390.945 705.945 399 696 399L691.5 396.75L696 394.5C703.425 394.5 709.5 388.425 709.5 381C709.5 373.575 703.425 367.5 696 367.5L691.5 365.25L696 363C705.945 363 714 371.055 714 381Z" fill="white"/>
<path d="M705 381C705 385.95 700.95 390 696 390L691.5 387.75L696 385.5C698.475 385.5 700.5 383.475 700.5 381C700.5 378.525 698.475 376.5 696 376.5L691.5 374.25L696 372C700.95 372 705 376.05 705 381Z" fill="white"/>
<path d="M696 412.5V417C694.47 417 692.985 416.91 691.5 416.73V412.5H696Z" fill="white"/>
<path d="M691.5 354H696V358.5H691.5V354Z" fill="white"/>
<path d="M691.5 403.5H696V408H691.5V403.5Z" fill="white"/>
<path d="M691.5 363H696V367.5H691.5V363Z" fill="white"/>
<path d="M691.5 394.5H696V399H691.5V394.5Z" fill="white"/>
<path d="M691.5 372H696V376.5H691.5V372Z" fill="white"/>
<path d="M691.5 385.5H696V390H691.5V385.5Z" fill="white"/>
<path d="M696 345V349.5H691.5V345.27C692.985 345.09 694.47 345 696 345Z" fill="white"/>
<path d="M843.562 417C831.115 416.966 821 406.885 821 394.5V385.125C821 384.089 821.84 383.25 822.875 383.25H828.625C830.696 383.25 832.375 384.929 832.375 387V394.356C832.375 400.55 837.321 405.689 843.514 405.749C849.768 405.81 854.875 400.74 854.875 394.5V392.625C854.875 391.589 855.715 390.75 856.75 390.75H864.25C865.285 390.75 866.125 391.589 866.125 392.625V394.309C866.125 406.719 855.972 417.033 843.562 417Z" fill="white"/>
<path d="M864.25 390.75H856.75C855.714 390.75 854.875 391.589 854.875 392.625V394.5C854.875 396.794 854.184 398.93 853 400.711V414.908C860.73 411.285 866.125 403.354 866.125 394.309V392.625C866.125 391.589 865.285 390.75 864.25 390.75Z" fill="white"/>
<path d="M883.125 386.75H877.375C875.304 386.75 873.625 385.071 873.625 383V375.643C873.625 369.45 868.679 364.311 862.486 364.251C856.232 364.19 851.125 369.26 851.125 375.5V377.375C851.125 378.41 850.286 379.25 849.25 379.25H841.75C840.715 379.25 839.875 378.41 839.875 377.375V375.691C839.875 363.281 850.028 352.966 862.438 353C874.885 353.034 885 363.114 885 375.5V384.875C885 385.91 884.16 386.75 883.125 386.75Z" fill="white"/>
<path d="M862.438 353C859.073 352.991 855.875 353.744 853 355.092V369.289C855.036 366.226 858.531 364.212 862.486 364.251C868.679 364.311 873.625 369.45 873.625 375.643V383C873.625 385.071 875.304 386.75 877.375 386.75H883.125C884.16 386.75 885 385.91 885 384.875V375.5C885 363.114 874.885 353.034 862.438 353Z" fill="white"/>
<path d="M828.5 371.75C824.365 371.75 821 368.385 821 364.25C821 360.114 824.365 356.75 828.5 356.75C832.636 356.75 836 360.114 836 364.25C836 368.385 832.636 371.75 828.5 371.75Z" fill="white"/>
<path d="M877.5 413.25C873.364 413.25 870 409.885 870 405.75C870 401.614 873.364 398.25 877.5 398.25C881.635 398.25 885 401.614 885 405.75C885 409.885 881.635 413.25 877.5 413.25Z" fill="white"/>
<path d="M1012.05 34.3992C1012.35 33.4779 1013.65 33.4779 1013.95 34.3992L1019.85 52.5664C1020.52 54.6265 1022.44 56.0213 1024.61 56.0213H1043.71C1044.68 56.0213 1045.08 57.2609 1044.3 57.8303L1028.85 69.0582C1027.09 70.3315 1026.36 72.5883 1027.03 74.6484L1032.93 92.8156C1033.23 93.7369 1032.18 94.503 1031.39 93.9336L1015.94 82.7057C1014.19 81.4325 1011.81 81.4325 1010.06 82.7057L994.607 93.9336C993.823 94.503 992.769 93.7369 993.068 92.8156L998.971 74.6484C999.641 72.5883 998.907 70.3315 997.155 69.0582L995.979 70.6763L997.155 69.0582L981.701 57.8303C980.917 57.2609 981.32 56.0213 982.289 56.0213H1001.39C1003.56 56.0213 1005.48 54.6265 1006.15 52.5664L1012.05 34.3992Z" stroke="#E2EBF4" stroke-width="4"/>
<path d="M1039.5 378.938C1044.17 381.632 1044.17 388.368 1039.5 391.062L1005 410.981C1000.33 413.675 994.5 410.307 994.5 404.919L994.5 365.081C994.5 359.693 1000.33 356.325 1005 359.019L1039.5 378.938Z" stroke="#E2EBF4" stroke-width="4"/>
<defs>
<clipPath id="clip0_1629_655">
<rect width="72" height="72" fill="white" transform="translate(32 345)"/>
</clipPath>
</defs>
</svg>
