<svg width="205" height="205" viewBox="0 0 205 205" fill="none" xmlns="http://www.w3.org/2000/svg">
<g filter="url(#filter0_d_170_654)">
<circle cx="102.5" cy="88.5" r="60.5" fill="#FD7A72"/>
<circle cx="102.5" cy="88.5" r="66.5" stroke="white" stroke-width="12"/>
</g>
<path d="M90.844 102.006H88.6238C88.6238 102.783 89.03 103.504 89.6949 103.906C90.3598 104.308 91.1866 104.333 91.8748 103.973L90.844 102.006ZM70.8623 118.287C70.8623 119.514 71.8563 120.508 73.0825 120.508C74.3087 120.508 75.3027 119.514 75.3027 118.287H70.8623ZM100.443 96.9736L101.474 98.9401L101.557 98.8969L101.636 98.8469L100.443 96.9736ZM105.027 104.242L106.07 106.202L106.138 106.166L106.204 106.125L105.027 104.242ZM93.1064 110.583L92.0638 108.623L91.9954 108.659L91.9297 108.7L93.1064 110.583ZM83.8909 102.385C83.2825 101.32 81.9263 100.95 80.8617 101.558C79.7971 102.167 79.4272 103.523 80.0356 104.588L83.8909 102.385ZM93.0641 112.367C93.0641 111.141 92.0701 110.147 90.844 110.147C89.6178 110.147 88.6238 111.141 88.6238 112.367H93.0641ZM88.6238 118.287C88.6238 119.514 89.6178 120.508 90.844 120.508C92.0701 120.508 93.0641 119.514 93.0641 118.287H88.6238ZM105.252 94.8935L104.06 96.7667L107.806 99.1506L108.998 97.2776L105.252 94.8935ZM119.359 80.9962C120.017 79.9617 119.713 78.5894 118.678 77.9311C117.644 77.2728 116.271 77.5778 115.613 78.6122L119.359 80.9962ZM82.7033 66.4831C82.7033 67.7093 83.6973 68.7033 84.9235 68.7033C86.1496 68.7033 87.1437 67.7093 87.1437 66.4831H82.7033ZM123.407 86.4648C122.181 86.4648 121.186 87.4588 121.186 88.6849C121.186 89.9111 122.181 90.9051 123.407 90.9051V86.4648ZM96.7645 68.7033C95.5383 68.7033 94.5443 69.6973 94.5443 70.9235C94.5443 72.1496 95.5383 73.1437 96.7645 73.1437V68.7033ZM120.446 73.1437C121.673 73.1437 122.667 72.1496 122.667 70.9235C122.667 69.6973 121.673 68.7033 120.446 68.7033V73.1437ZM96.7645 77.584C95.5383 77.584 94.5443 78.578 94.5443 79.8042C94.5443 81.0304 95.5383 82.0244 96.7645 82.0244V77.584ZM108.605 82.0244C109.832 82.0244 110.826 81.0304 110.826 79.8042C110.826 78.578 109.832 77.584 108.605 77.584V82.0244ZM85.6635 79.8042C85.6635 81.8478 84.0069 83.5045 81.9632 83.5045V87.9449C86.4592 87.9449 90.1039 84.3002 90.1039 79.8042H85.6635ZM81.9632 83.5045C79.9196 83.5045 78.2629 81.8478 78.2629 79.8042H73.8225C73.8225 84.3002 77.4673 87.9449 81.9632 87.9449V83.5045ZM78.2629 79.8042C78.2629 77.7606 79.9196 76.1039 81.9632 76.1039V71.6635C77.4673 71.6635 73.8225 75.3082 73.8225 79.8042H78.2629ZM81.9632 76.1039C84.0069 76.1039 85.6635 77.7606 85.6635 79.8042H90.1039C90.1039 75.3082 86.4592 71.6635 81.9632 71.6635V76.1039ZM93.0641 102.006V100.526H88.6238V102.006H93.0641ZM70.8623 100.526V118.287H75.3027V100.526H70.8623ZM91.8748 103.973L101.474 98.9401L99.4127 95.0074L89.8131 100.04L91.8748 103.973ZM103.985 102.282L92.0638 108.623L94.149 112.543L106.07 106.202L103.985 102.282ZM86.7557 107.398L83.8909 102.385L80.0356 104.588L82.9004 109.601L86.7557 107.398ZM101.636 98.8469C102.621 98.2196 103.93 98.5286 104.531 99.5304L108.338 97.2457C106.452 94.1019 102.345 93.1324 99.2514 95.1007L101.636 98.8469ZM91.9297 108.7C90.1482 109.814 87.7981 109.222 86.7557 107.398L82.9004 109.601C85.1935 113.614 90.3637 114.915 94.2831 112.465L91.9297 108.7ZM75.3027 100.526C75.3027 96.8475 78.2847 93.8654 81.9632 93.8654V89.425C75.8323 89.425 70.8623 94.395 70.8623 100.526H75.3027ZM104.531 99.5304C105.113 100.501 104.811 101.759 103.851 102.359L106.204 106.125C109.217 104.242 110.166 100.292 108.338 97.2457L104.531 99.5304ZM93.0641 100.526C93.0641 94.395 88.0941 89.425 81.9632 89.425V93.8654C85.6417 93.8654 88.6238 96.8475 88.6238 100.526H93.0641ZM88.6238 112.367V118.287H93.0641V112.367H88.6238ZM108.998 97.2776L119.359 80.9962L115.613 78.6122L105.252 94.8935L108.998 97.2776ZM87.1437 66.4831V65.003H82.7033V66.4831H87.1437ZM90.844 61.3027H126.367V56.8623H90.844V61.3027ZM130.067 65.003V82.7645H134.508V65.003H130.067ZM126.367 86.4648H123.407V90.9051H126.367V86.4648ZM130.067 82.7645C130.067 84.8082 128.411 86.4648 126.367 86.4648V90.9051C130.863 90.9051 134.508 87.2605 134.508 82.7645H130.067ZM126.367 61.3027C128.411 61.3027 130.067 62.9593 130.067 65.003H134.508C134.508 60.507 130.863 56.8623 126.367 56.8623V61.3027ZM87.1437 65.003C87.1437 62.9593 88.8003 61.3027 90.844 61.3027V56.8623C86.348 56.8623 82.7033 60.507 82.7033 65.003H87.1437ZM96.7645 73.1437H120.446V68.7033H96.7645V73.1437ZM96.7645 82.0244H108.605V77.584H96.7645V82.0244Z" fill="white"/>
<defs>
<filter id="filter0_d_170_654" x="0" y="0" width="205" height="205" filterUnits="userSpaceOnUse" color-interpolation-filters="sRGB">
<feFlood flood-opacity="0" result="BackgroundImageFix"/>
<feColorMatrix in="SourceAlpha" type="matrix" values="0 0 0 0 0 0 0 0 0 0 0 0 0 0 0 0 0 0 127 0" result="hardAlpha"/>
<feOffset dy="14"/>
<feGaussianBlur stdDeviation="15"/>
<feComposite in2="hardAlpha" operator="out"/>
<feColorMatrix type="matrix" values="0 0 0 0 0.461068 0 0 0 0 0.461068 0 0 0 0 0.461068 0 0 0 0.25 0"/>
<feBlend mode="normal" in2="BackgroundImageFix" result="effect1_dropShadow_170_654"/>
<feBlend mode="normal" in="SourceGraphic" in2="effect1_dropShadow_170_654" result="shape"/>
</filter>
</defs>
</svg>
