<svg width="112" height="112" viewBox="0 0 112 112" fill="none" xmlns="http://www.w3.org/2000/svg">
<g filter="url(#filter0_d_1629_3468)">
<circle cx="56" cy="42" r="21" fill="#FD7A72"/>
<circle cx="56" cy="42" r="23.5" stroke="white" stroke-width="5"/>
</g>
<path d="M56 63C67.598 63 77 53.598 77 42C77 30.402 67.598 21 56 21C44.402 21 35 30.402 35 42C35 53.598 44.402 63 56 63Z" fill="#FF0000"/>
<path d="M62.8719 34.1001H49.128C48.5787 34.1001 48.0349 34.2083 47.5275 34.4186C47.0201 34.6289 46.5591 34.9371 46.1708 35.3256C45.7826 35.7141 45.4747 36.1753 45.2648 36.6828C45.0548 37.1903 44.947 37.7343 44.9473 38.2835V45.7164C44.947 46.2657 45.0548 46.8096 45.2648 47.3171C45.4747 47.8247 45.7826 48.2859 46.1708 48.6744C46.5591 49.0629 47.0201 49.3711 47.5275 49.5813C48.0349 49.7916 48.5787 49.8998 49.128 49.8998H62.8719C63.4212 49.8998 63.965 49.7916 64.4724 49.5813C64.9798 49.3711 65.4408 49.0629 65.8291 48.6744C66.2173 48.2859 66.5252 47.8247 66.7351 47.3171C66.9451 46.8096 67.053 46.2657 67.0526 45.7164V38.2835C67.053 37.7343 66.9451 37.1903 66.7351 36.6828C66.5252 36.1753 66.2173 35.7141 65.8291 35.3256C65.4408 34.9371 64.9798 34.6289 64.4724 34.4186C63.965 34.2083 63.4212 34.1001 62.8719 34.1001ZM53.0876 45.3876V38.6123L58.9123 42L53.0876 45.3876Z" fill="white"/>
<defs>
<filter id="filter0_d_1629_3468" x="0" y="0" width="112" height="112" filterUnits="userSpaceOnUse" color-interpolation-filters="sRGB">
<feFlood flood-opacity="0" result="BackgroundImageFix"/>
<feColorMatrix in="SourceAlpha" type="matrix" values="0 0 0 0 0 0 0 0 0 0 0 0 0 0 0 0 0 0 127 0" result="hardAlpha"/>
<feOffset dy="14"/>
<feGaussianBlur stdDeviation="15"/>
<feComposite in2="hardAlpha" operator="out"/>
<feColorMatrix type="matrix" values="0 0 0 0 0.461068 0 0 0 0 0.461068 0 0 0 0 0.461068 0 0 0 0.25 0"/>
<feBlend mode="normal" in2="BackgroundImageFix" result="effect1_dropShadow_1629_3468"/>
<feBlend mode="normal" in="SourceGraphic" in2="effect1_dropShadow_1629_3468" result="shape"/>
</filter>
</defs>
</svg>
